<svg width="811" height="291" viewBox="0 0 811 291" fill="none" xmlns="http://www.w3.org/2000/svg">
<path d="M231.908 177.913C231.908 169.785 233.14 162.732 235.603 156.76C238.066 150.788 241.483 145.83 245.853 141.886C250.223 137.943 255.33 135.021 261.187 133.113C267.037 131.205 273.344 130.251 280.118 130.251C282.581 130.251 284.984 130.468 287.319 130.897C289.654 131.332 291.569 131.851 293.049 132.467V102.532C294.28 102.164 296.248 101.766 298.958 101.33C301.662 100.902 304.433 100.684 307.271 100.684C309.974 100.684 312.407 100.872 314.563 101.24C316.718 101.608 318.535 102.344 320.014 103.456C321.494 104.568 322.598 106.078 323.341 107.986C324.077 109.894 324.452 112.388 324.452 115.467V203.047C324.452 208.839 321.741 213.459 316.327 216.907C312.753 219.25 308.135 221.316 302.473 223.096C296.811 224.877 290.285 225.77 282.896 225.77C274.891 225.77 267.72 224.666 261.375 222.443C255.029 220.227 249.675 217.027 245.305 212.835C240.934 208.651 237.608 203.626 235.332 197.782C233.05 191.922 231.908 185.304 231.908 177.913ZM284.368 154.814C277.715 154.814 272.608 156.722 269.042 160.538C265.467 164.362 263.687 170.146 263.687 177.905C263.687 185.545 265.347 191.299 268.674 195.182C272 199.066 276.799 201.004 283.076 201.004C285.292 201.004 287.297 200.666 289.076 199.99C290.863 199.314 292.245 198.548 293.229 197.684V157.038C290.766 155.55 287.815 154.814 284.368 154.814Z" fill="black" fill-opacity="0.87"/>
<path d="M391.495 225.763C384.226 225.763 377.483 224.749 371.273 222.713C365.055 220.678 359.633 217.635 355.023 213.564C350.404 209.5 346.77 204.392 344.127 198.232C341.476 192.073 340.154 184.869 340.154 176.614C340.154 168.486 341.476 161.492 344.127 155.641C346.77 149.796 350.247 144.989 354.565 141.233C358.875 137.477 363.801 134.705 369.343 132.917C374.885 131.13 380.547 130.236 386.336 130.236C392.862 130.236 398.802 131.227 404.163 133.195C409.517 135.171 414.136 137.875 418.018 141.323C421.893 144.771 424.911 148.895 427.066 153.703C429.222 158.51 430.295 163.746 430.295 169.41C430.295 173.601 429.124 176.801 426.789 179.017C424.446 181.233 421.187 182.653 416.997 183.269L371.378 190.105C372.729 194.169 375.5 197.218 379.691 199.254C383.873 201.282 388.679 202.304 394.093 202.304C399.14 202.304 403.908 201.658 408.406 200.366C412.896 199.074 416.561 197.564 419.4 195.836C421.367 197.068 423.034 198.796 424.386 201.012C425.737 203.228 426.413 205.571 426.413 208.035C426.413 213.579 423.83 217.703 418.656 220.415C414.714 222.511 410.283 223.923 405.357 224.666C400.416 225.395 395.798 225.763 391.495 225.763ZM386.321 153.154C383.37 153.154 380.809 153.65 378.654 154.634C376.499 155.618 374.742 156.888 373.39 158.42C372.031 159.96 371.017 161.688 370.342 163.596C369.666 165.504 369.26 167.449 369.14 169.417L400.724 164.242C400.356 161.778 398.997 159.314 396.662 156.85C394.326 154.386 390.872 153.154 386.321 153.154Z" fill="black" fill-opacity="0.87"/>
<path d="M489.199 130.243C496.22 130.243 502.588 131.137 508.317 132.925C514.039 134.713 518.875 137.019 522.818 139.851C525.281 141.578 527.218 143.486 528.637 145.582C530.049 147.678 530.762 150.382 530.762 153.71V218.379C530.762 224.907 529.531 230.541 527.068 235.288C524.605 240.028 521.248 243.972 516.998 247.112C512.748 250.251 507.762 252.558 502.032 254.037C496.31 255.517 490.182 256.253 483.657 256.253C472.453 256.253 463.645 254.743 457.239 251.731C450.834 248.712 447.635 243.814 447.635 237.046C447.635 234.214 448.221 231.712 449.384 229.564C450.556 227.408 451.878 225.778 453.357 224.666C456.924 226.634 460.956 228.302 465.454 229.654C469.945 231.006 474.601 231.682 479.399 231.682C486.052 231.682 491.339 230.578 495.281 228.355C499.223 226.139 501.191 222.563 501.191 217.635V214.676C496.137 216.892 489.987 218.003 482.718 218.003C477.176 218.003 471.912 217.177 466.926 215.509C461.94 213.849 457.57 211.258 453.815 207.75C450.06 204.242 447.042 199.712 444.766 194.168C442.483 188.625 441.35 182.037 441.35 174.397C441.35 166.886 442.551 160.358 444.954 154.814C447.357 149.271 450.676 144.681 454.926 141.053C459.177 137.417 464.223 134.713 470.073 132.925C475.93 131.137 482.305 130.243 489.199 130.243ZM500.65 157.03C499.787 156.542 498.525 156.046 496.866 155.55C495.206 155.062 493.141 154.814 490.678 154.814C484.64 154.814 480.12 156.512 477.101 159.892C474.082 163.28 472.581 168.11 472.581 174.397C472.581 181.541 474.09 186.687 477.101 189.827C480.12 192.967 483.965 194.537 488.643 194.537C493.689 194.537 497.692 193.365 500.65 191.029V157.03Z" fill="black" fill-opacity="0.87"/>
<path d="M597.616 225.763C590.347 225.763 583.604 224.749 577.394 222.713C571.176 220.678 565.754 217.635 561.144 213.564C556.526 209.5 552.891 204.392 550.248 198.232C547.597 192.073 546.275 184.869 546.275 176.614C546.275 168.486 547.597 161.492 550.248 155.641C552.891 149.796 556.368 144.989 560.686 141.233C564.996 137.477 569.922 134.705 575.464 132.917C581.006 131.13 586.668 130.236 592.457 130.236C598.983 130.236 604.923 131.227 610.284 133.195C615.638 135.171 620.257 137.875 624.139 141.323C628.014 144.771 631.032 148.895 633.188 153.703C635.343 158.51 636.417 163.746 636.417 169.41C636.417 173.601 635.245 176.801 632.91 179.017C630.567 181.233 627.308 182.653 623.118 183.269L577.499 190.105C578.851 194.169 581.621 197.218 585.812 199.254C589.994 201.282 594.8 202.304 600.214 202.304C605.261 202.304 610.029 201.658 614.527 200.366C619.018 199.074 622.682 197.564 625.521 195.836C627.488 197.068 629.155 198.796 630.507 201.012C631.858 203.228 632.534 205.571 632.534 208.035C632.534 213.579 629.951 217.703 624.777 220.415C620.835 222.511 616.404 223.923 611.478 224.666C606.545 225.395 601.927 225.763 597.616 225.763ZM592.45 153.154C589.499 153.154 586.938 153.65 584.783 154.634C582.628 155.618 580.871 156.888 579.519 158.42C578.16 159.96 577.146 161.688 576.47 163.596C575.794 165.504 575.389 167.449 575.269 169.417L606.853 164.242C606.485 161.778 605.125 159.314 602.79 156.85C600.447 154.386 597 153.154 592.45 153.154Z" fill="black" fill-opacity="0.87"/>
<path d="M650.812 108.069C650.812 103.389 652.382 99.4452 655.521 96.2452C658.66 93.0451 662.82 91.4376 667.986 91.4376C673.16 91.4376 677.313 93.0376 680.452 96.2452C683.59 99.4527 685.16 103.389 685.16 108.069C685.16 112.749 683.59 116.692 680.452 119.892C677.313 123.1 673.16 124.7 667.986 124.7C662.812 124.7 658.66 123.1 655.521 119.892C652.382 116.692 650.812 112.756 650.812 108.069ZM683.688 222.623C682.329 222.871 680.331 223.209 677.688 223.638C675.037 224.066 672.364 224.284 669.653 224.284C666.942 224.284 664.509 224.103 662.354 223.728C660.199 223.36 658.382 222.623 656.902 221.512C655.423 220.407 654.282 218.898 653.486 216.982C652.682 215.074 652.284 212.58 652.284 209.5V134.307C653.636 134.059 655.641 133.721 658.284 133.293C660.935 132.865 663.608 132.647 666.319 132.647C669.03 132.647 671.455 132.828 673.618 133.203C675.773 133.571 677.591 134.315 679.062 135.419C680.542 136.523 681.676 138.041 682.479 139.949C683.275 141.857 683.681 144.351 683.681 147.43V222.623H683.688Z" fill="black" fill-opacity="0.87"/>
<path d="M735.036 191.953C735.036 195.16 736.05 197.436 738.085 198.788C740.12 200.148 742.981 200.817 746.675 200.817C748.523 200.817 750.43 200.666 752.397 200.358C754.365 200.05 756.092 199.652 757.571 199.156C758.675 200.516 759.629 202.018 760.432 203.679C761.228 205.339 761.634 207.344 761.634 209.68C761.634 214.368 759.884 218.184 756.37 221.136C752.863 224.096 746.675 225.568 737.807 225.568C726.971 225.568 718.628 223.104 712.779 218.176C706.929 213.249 704.008 205.241 704.008 194.154V115.092C705.359 114.724 707.297 114.326 709.827 113.89C712.351 113.462 715.024 113.244 717.862 113.244C723.277 113.244 727.497 114.198 730.515 116.106C733.534 118.014 735.044 122.048 735.044 128.208V140.031H759.238C759.974 141.391 760.688 143.081 761.364 145.109C762.039 147.137 762.377 149.391 762.377 151.855C762.377 156.166 761.424 159.276 759.516 161.184C757.609 163.1 755.056 164.046 751.849 164.046H735.044V191.953H735.036Z" fill="black" fill-opacity="0.87"/>
<path d="M187.725 103.854V113.386C180.621 118.622 171.835 121.724 162.328 121.724C141.19 121.724 123.633 106.423 120.119 86.2764C125.57 85.0219 131.247 84.3609 137.067 84.3609C156.554 84.3609 174.321 91.7375 187.725 103.854ZM162.328 36C138.659 36 119.48 55.1926 119.48 78.8547C119.48 81.3787 119.698 83.8651 120.119 86.2764C125.57 85.0219 131.247 84.3609 137.067 84.3609C156.554 84.3609 174.321 91.7375 187.725 103.854V44.3306C180.621 39.0949 171.835 36 162.328 36Z" fill="#25CCB3"/>
<path d="M187.725 122.927V234.98C173.097 248.201 153.715 256.253 132.449 256.253C86.8979 256.253 49.9824 219.318 49.9824 173.759C49.9824 134.547 77.3161 101.736 113.954 93.3527C117.791 115.332 136.947 132.031 160.016 132.031C170.386 132.023 179.975 128.643 187.725 122.927ZM175.447 173.751C175.447 149.999 156.193 130.739 132.449 130.739C108.705 130.739 89.4511 149.999 89.4511 173.751C89.4511 197.504 108.705 216.764 132.449 216.764C156.193 216.764 175.447 197.511 175.447 173.751Z" fill="#0B57A7"/>
</svg>
