<svg width="232" height="183" viewBox="0 0 232 183" fill="none" xmlns="http://www.w3.org/2000/svg">
<g clip-path="url(#clip0)">
<path d="M42.3865 20.5534C42.3865 20.5534 16.1577 42.1239 6.41726 68.7724C-3.32319 95.4209 4.175 125.367 26.7035 143.975C49.232 162.582 82.692 152.299 114.198 160.374C145.704 168.449 176.574 158.755 183.742 125.748C190.909 92.742 168.211 85.8669 157.407 51.7838C146.603 17.7007 105.03 -26.6823 42.3865 20.5534Z" fill="#C6FF00"/>
<path d="M42.3865 20.5534C42.3865 20.5534 16.1577 42.1239 6.41726 68.7724C-3.32319 95.4209 4.175 125.367 26.7035 143.975C49.232 162.582 82.692 152.299 114.198 160.374C145.704 168.449 176.574 158.755 183.742 125.748C190.909 92.742 168.211 85.8669 157.407 51.7838C146.603 17.7007 105.03 -26.6823 42.3865 20.5534Z" fill="#E6F1FF"/>
<path d="M82.3277 26.0891H60.4392C60.0506 26.0891 59.7356 26.4041 59.7356 26.7927V40.0386C59.7356 40.4271 60.0506 40.7422 60.4392 40.7422H82.3277C82.7163 40.7422 83.0313 40.4271 83.0313 40.0386V26.7927C83.0313 26.4041 82.7163 26.0891 82.3277 26.0891Z" stroke="#263238" stroke-width="0.423866" stroke-miterlimit="10"/>
<path d="M83.0313 34.7314H59.7356V38.1139H83.0313V34.7314Z" stroke="#263238" stroke-width="0.423866" stroke-miterlimit="10"/>
<path d="M79.369 30.5055C80.2515 30.5055 80.967 29.7901 80.967 28.9075C80.967 28.025 80.2515 27.3096 79.369 27.3096C78.4864 27.3096 77.771 28.025 77.771 28.9075C77.771 29.7901 78.4864 30.5055 79.369 30.5055Z" stroke="#263238" stroke-width="0.423866" stroke-miterlimit="10"/>
<path d="M76.9276 30.5055C77.8101 30.5055 78.5255 29.7901 78.5255 28.9075C78.5255 28.025 77.8101 27.3096 76.9276 27.3096C76.045 27.3096 75.3296 28.025 75.3296 28.9075C75.3296 29.7901 76.045 30.5055 76.9276 30.5055Z" stroke="#263238" stroke-width="0.423866" stroke-miterlimit="10"/>
<path d="M61.804 28.4373H68.1916" stroke="#263238" stroke-width="0.423866" stroke-miterlimit="10"/>
<path d="M32.8921 91.4448H11.0037C10.6151 91.4448 10.3 91.7598 10.3 92.1484V105.394C10.3 105.783 10.6151 106.098 11.0037 106.098H32.8921C33.2807 106.098 33.5957 105.783 33.5957 105.394V92.1484C33.5957 91.7598 33.2807 91.4448 32.8921 91.4448Z" stroke="#263238" stroke-width="0.423866" stroke-miterlimit="10"/>
<path d="M33.5957 100.088H10.3V103.47H33.5957V100.088Z" stroke="#263238" stroke-width="0.423866" stroke-miterlimit="10"/>
<path d="M29.9293 95.8617C30.8118 95.8617 31.5273 95.1463 31.5273 94.2637C31.5273 93.3812 30.8118 92.6658 29.9293 92.6658C29.0467 92.6658 28.3313 93.3812 28.3313 94.2637C28.3313 95.1463 29.0467 95.8617 29.9293 95.8617Z" stroke="#263238" stroke-width="0.423866" stroke-miterlimit="10"/>
<path d="M27.4876 95.8617C28.3702 95.8617 29.0856 95.1463 29.0856 94.2637C29.0856 93.3812 28.3702 92.6658 27.4876 92.6658C26.6051 92.6658 25.8896 93.3812 25.8896 94.2637C25.8896 95.1463 26.6051 95.8617 27.4876 95.8617Z" stroke="#263238" stroke-width="0.423866" stroke-miterlimit="10"/>
<path d="M12.3643 93.7932H18.7519" stroke="#263238" stroke-width="0.423866" stroke-miterlimit="10"/>
<path d="M156.114 11.9954H141.639V26.4704H156.114V11.9954Z" stroke="#263238" stroke-width="0.423866" stroke-miterlimit="10"/>
<path d="M153.351 18.1203H149.659V14.4326H148.095V18.1203H144.407V19.6843H148.095V23.3762H149.659V19.6843H153.351V18.1203Z" stroke="#263238" stroke-width="0.423866" stroke-miterlimit="10"/>
<path d="M170.56 11.9954H156.084V26.4704H170.56V11.9954Z" stroke="#263238" stroke-width="0.423866" stroke-miterlimit="10"/>
<path d="M167.177 18.1204H159.467V19.4598H167.177V18.1204Z" stroke="#263238" stroke-width="0.423866" stroke-miterlimit="10"/>
<path d="M156.114 26.4451H141.639V40.9201H156.114V26.4451Z" stroke="#263238" stroke-width="0.423866" stroke-miterlimit="10"/>
<path d="M151.486 29.6367L148.879 32.2435L146.272 29.6367L145.166 30.743L147.773 33.3498L145.166 35.9566L146.272 37.0629L148.879 34.4561L151.486 37.0629L152.592 35.9566L149.985 33.3498L152.592 30.743L151.486 29.6367Z" stroke="#263238" stroke-width="0.423866" stroke-miterlimit="10"/>
<path d="M170.56 26.4451H156.084V40.9201H170.56V26.4451Z" stroke="#263238" stroke-width="0.423866" stroke-miterlimit="10"/>
<path d="M167.177 32.5657H159.467V33.9051H167.177V32.5657Z" stroke="#263238" stroke-width="0.423866" stroke-miterlimit="10"/>
<path d="M163.32 31.3407C163.856 31.3407 164.29 30.9061 164.29 30.3701C164.29 29.834 163.856 29.3994 163.32 29.3994C162.784 29.3994 162.349 29.834 162.349 30.3701C162.349 30.9061 162.784 31.3407 163.32 31.3407Z" stroke="#263238" stroke-width="0.423866" stroke-miterlimit="10"/>
<path d="M163.32 37.2282C163.856 37.2282 164.29 36.7936 164.29 36.2575C164.29 35.7214 163.856 35.2869 163.32 35.2869C162.784 35.2869 162.349 35.7214 162.349 36.2575C162.349 36.7936 162.784 37.2282 163.32 37.2282Z" stroke="#263238" stroke-width="0.423866" stroke-miterlimit="10"/>
<path d="M10.7026 138.918H1.55981V148.061H10.7026V138.918Z" stroke="#263238" stroke-width="0.423866" stroke-miterlimit="10"/>
<path d="M8.95205 142.784H6.62502V140.457H5.63742V142.784H3.30615V143.775H5.63742V146.102H6.62502V143.775H8.95205V142.784Z" stroke="#263238" stroke-width="0.423866" stroke-miterlimit="10"/>
<path d="M19.8242 138.918H10.6814V148.061H19.8242V138.918Z" stroke="#263238" stroke-width="0.423866" stroke-miterlimit="10"/>
<path d="M17.6878 142.784H12.8176V143.631H17.6878V142.784Z" stroke="#263238" stroke-width="0.423866" stroke-miterlimit="10"/>
<path d="M10.7026 148.04H1.55981V157.182H10.7026V148.04Z" stroke="#263238" stroke-width="0.423866" stroke-miterlimit="10"/>
<path d="M7.77798 150.057L6.12914 151.706L4.48454 150.057L3.78516 150.757L5.42976 152.405L3.78516 154.05L4.48454 154.749L6.12914 153.1L7.77798 154.749L8.47736 154.05L6.82852 152.405L8.47736 150.757L7.77798 150.057Z" stroke="#263238" stroke-width="0.423866" stroke-miterlimit="10"/>
<path d="M19.8242 148.04H10.6814V157.182H19.8242V148.04Z" stroke="#263238" stroke-width="0.423866" stroke-miterlimit="10"/>
<path d="M17.6878 151.909H12.8176V152.757H17.6878V151.909Z" stroke="#263238" stroke-width="0.423866" stroke-miterlimit="10"/>
<path d="M15.2507 151.134C15.5878 151.134 15.8611 150.861 15.8611 150.523C15.8611 150.186 15.5878 149.913 15.2507 149.913C14.9137 149.913 14.6404 150.186 14.6404 150.523C14.6404 150.861 14.9137 151.134 15.2507 151.134Z" stroke="#263238" stroke-width="0.423866" stroke-miterlimit="10"/>
<path d="M15.2507 154.851C15.5878 154.851 15.8611 154.578 15.8611 154.241C15.8611 153.904 15.5878 153.63 15.2507 153.63C14.9137 153.63 14.6404 153.904 14.6404 154.241C14.6404 154.578 14.9137 154.851 15.2507 154.851Z" stroke="#263238" stroke-width="0.423866" stroke-miterlimit="10"/>
<path d="M112.358 30.0691C112.335 30.073 112.314 30.0849 112.299 30.1026C112.283 30.1204 112.274 30.143 112.274 30.1666V30.7939C112.279 30.8262 112.276 30.8593 112.266 30.8904C112.256 30.9215 112.239 30.9498 112.215 30.9729C112.192 30.9961 112.164 31.0134 112.133 31.0236C112.102 31.0337 112.069 31.0363 112.036 31.0313H111.214C111.182 31.0363 111.149 31.0337 111.118 31.0236C111.086 31.0134 111.058 30.9961 111.035 30.9729C111.012 30.9498 110.995 30.9215 110.984 30.8904C110.974 30.8593 110.972 30.8262 110.977 30.7939L111.006 30.1496C111.006 30.1261 110.997 30.1035 110.981 30.0857C110.966 30.0679 110.945 30.056 110.922 30.0521C109.328 29.8572 108.408 28.8907 108.408 27.5513V26.9537C108.404 26.9215 108.407 26.8888 108.418 26.8581C108.428 26.8274 108.445 26.7996 108.468 26.7766C108.491 26.7537 108.519 26.7363 108.55 26.7259C108.581 26.7154 108.613 26.7121 108.645 26.7163H110.099C110.252 26.7163 110.337 26.7884 110.337 26.8986V27.0935C110.33 27.2766 110.364 27.4588 110.435 27.6278C110.506 27.7967 110.612 27.9483 110.747 28.0723C110.882 28.1963 111.042 28.2897 111.216 28.3461C111.39 28.4024 111.575 28.4205 111.757 28.3991C112.651 28.3991 113.028 27.8523 113.028 27.297C113.028 26.3052 111.21 26.1526 109.87 25.2836C109.023 24.7538 108.404 24.0671 108.404 22.8803C108.404 21.4137 109.311 20.3795 110.917 20.1421C110.941 20.1382 110.962 20.1264 110.977 20.1086C110.993 20.0908 111.001 20.0682 111.002 20.0446L110.972 19.2902C110.967 19.2578 110.97 19.2248 110.98 19.1937C110.99 19.1625 111.008 19.1343 111.031 19.1111C111.054 19.088 111.082 19.0706 111.113 19.0605C111.144 19.0504 111.177 19.0477 111.21 19.0528H112.007C112.039 19.0486 112.072 19.0519 112.102 19.0624C112.133 19.0728 112.161 19.0902 112.184 19.1131C112.207 19.1361 112.224 19.1639 112.234 19.1946C112.245 19.2253 112.248 19.258 112.244 19.2902V20.0319C112.245 20.0555 112.254 20.0781 112.269 20.0959C112.284 20.1136 112.306 20.1255 112.329 20.1294C114.024 20.3117 114.957 21.329 114.957 22.7701V23.2321C114.961 23.2643 114.958 23.297 114.947 23.3277C114.937 23.3584 114.919 23.3862 114.896 23.4092C114.874 23.4321 114.846 23.4495 114.815 23.4599C114.784 23.4704 114.752 23.4736 114.719 23.4695H113.253C113.1 23.4695 113.015 23.4144 113.015 23.3296V23.1897C113.031 23.0015 113.006 22.812 112.942 22.6344C112.877 22.4568 112.775 22.2954 112.642 22.1611C112.509 22.0269 112.348 21.9232 112.171 21.8571C111.994 21.791 111.805 21.7641 111.617 21.7783C110.833 21.7783 110.345 22.2021 110.345 22.8125C110.345 23.7196 111.617 23.8594 112.931 24.4317C114.368 25.0759 114.999 25.9703 114.999 27.1995C114.999 28.7551 114.062 29.8444 112.358 30.0691Z" stroke="#263238" stroke-width="0.423866" stroke-miterlimit="10"/>
<path d="M111.587 33.0701C115.974 33.0701 119.53 29.5138 119.53 25.1268C119.53 20.7399 115.974 17.1836 111.587 17.1836C107.2 17.1836 103.644 20.7399 103.644 25.1268C103.644 29.5138 107.2 33.0701 111.587 33.0701Z" stroke="#263238" stroke-width="0.423866" stroke-miterlimit="10"/>
<path d="M48.7149 15.2975C48.6999 15.3004 48.6863 15.3082 48.6763 15.3197C48.6663 15.3313 48.6605 15.3458 48.6598 15.3611V15.785C48.6635 15.8069 48.6619 15.8295 48.6551 15.8507C48.6483 15.8719 48.6365 15.8912 48.6208 15.907C48.605 15.9227 48.5857 15.9345 48.5645 15.9413C48.5433 15.9481 48.5207 15.9497 48.4988 15.946H47.9477C47.9257 15.9497 47.9032 15.9481 47.882 15.9413C47.8608 15.9345 47.8415 15.9227 47.8257 15.907C47.8099 15.8912 47.7982 15.8719 47.7914 15.8507C47.7846 15.8295 47.783 15.8069 47.7867 15.785V15.3611C47.786 15.3458 47.7802 15.3313 47.7702 15.3197C47.7602 15.3082 47.7466 15.3004 47.7316 15.2975C46.6634 15.1661 46.0361 14.5218 46.0361 13.6021V13.1994C46.0333 13.1776 46.0356 13.1554 46.0427 13.1346C46.0498 13.1138 46.0616 13.0949 46.0772 13.0794C46.0927 13.0638 46.1116 13.0521 46.1324 13.0449C46.1532 13.0378 46.1753 13.0356 46.1972 13.0383H47.1721C47.2738 13.0383 47.3331 13.0849 47.3331 13.1612V13.2926C47.3261 13.4162 47.3462 13.5397 47.392 13.6547C47.4378 13.7696 47.5082 13.8731 47.5983 13.958C47.6884 14.0428 47.7959 14.1069 47.9134 14.1457C48.0309 14.1845 48.1555 14.1972 48.2783 14.1827C48.3838 14.1973 48.4911 14.189 48.5931 14.1587C48.6951 14.1283 48.7894 14.0764 48.8697 14.0065C48.95 13.9367 49.0144 13.8504 49.0587 13.7536C49.1029 13.6568 49.1259 13.5517 49.1261 13.4452C49.1261 12.7798 47.9096 12.678 47.0067 12.0973C46.6547 11.914 46.3719 11.621 46.2012 11.2626C46.0305 10.9042 45.9812 10.5 46.0607 10.1111C46.1402 9.72221 46.3442 9.36978 46.6419 9.10716C46.9395 8.84453 47.3146 8.68599 47.7104 8.65553C47.7254 8.65269 47.739 8.64486 47.749 8.63332C47.759 8.62178 47.7648 8.60721 47.7655 8.59195V8.08755C47.7618 8.06557 47.7634 8.04303 47.7702 8.02181C47.777 8.00058 47.7888 7.98129 47.8045 7.96553C47.8203 7.94977 47.8396 7.93801 47.8608 7.93121C47.882 7.92442 47.9046 7.9228 47.9265 7.92648H48.4606C48.4824 7.92372 48.5046 7.92599 48.5254 7.93311C48.5462 7.94023 48.5651 7.95201 48.5806 7.96755C48.5961 7.9831 48.6079 8.00199 48.615 8.02279C48.6222 8.04359 48.6244 8.06574 48.6217 8.08755V8.58348C48.6224 8.59873 48.6282 8.61331 48.6382 8.62484C48.6482 8.63638 48.6618 8.64421 48.6768 8.64706C49.8 8.76998 50.4358 9.4524 50.4358 10.4146V10.724C50.4386 10.7458 50.4363 10.768 50.4292 10.7888C50.4221 10.8096 50.4103 10.8285 50.3948 10.844C50.3792 10.8595 50.3603 10.8713 50.3395 10.8784C50.3187 10.8856 50.2966 10.8878 50.2748 10.8851H49.2914C49.1897 10.8851 49.1303 10.8469 49.1303 10.7918V10.6986C49.1415 10.5736 49.1256 10.4477 49.0837 10.3295C49.0419 10.2112 48.975 10.1034 48.8878 10.0133C48.8005 9.92319 48.6948 9.85296 48.5779 9.80737C48.4611 9.76178 48.3358 9.74191 48.2105 9.74911C47.6849 9.74911 47.3628 10.0204 47.3628 10.44C47.3628 11.0461 48.2105 11.1436 49.0922 11.5251C50.0543 11.949 50.4782 12.5551 50.4782 13.3774C50.4824 14.4116 49.8551 15.1492 48.7149 15.2975Z" stroke="#263238" stroke-width="0.423866" stroke-miterlimit="10"/>
<path d="M48.1979 17.3065C51.1358 17.3065 53.5175 14.9249 53.5175 11.987C53.5175 9.04911 51.1358 6.66748 48.1979 6.66748C45.26 6.66748 42.8784 9.04911 42.8784 11.987C42.8784 14.9249 45.26 17.3065 48.1979 17.3065Z" stroke="#263238" stroke-width="0.423866" stroke-miterlimit="10"/>
<path d="M7.54068 68.5858C7.52568 68.5887 7.51207 68.5965 7.50207 68.6081C7.49207 68.6196 7.48626 68.6342 7.48557 68.6494V69.0733C7.48926 69.0953 7.48763 69.1178 7.48084 69.139C7.47405 69.1603 7.46229 69.1796 7.44653 69.1953C7.43077 69.2111 7.41147 69.2228 7.39025 69.2296C7.36902 69.2364 7.34648 69.238 7.3245 69.2344H6.78196C6.75998 69.238 6.73744 69.2364 6.71621 69.2296C6.69498 69.2228 6.67569 69.2111 6.65993 69.1953C6.64417 69.1796 6.63241 69.1603 6.62562 69.139C6.61883 69.1178 6.6172 69.0953 6.62089 69.0733V68.6494C6.6202 68.6342 6.61439 68.6196 6.60439 68.6081C6.59439 68.5965 6.58078 68.5887 6.56578 68.5858C5.49764 68.4544 4.87032 67.8102 4.87032 66.8904V66.4877C4.86756 66.4659 4.86982 66.4437 4.87694 66.4229C4.88406 66.4022 4.89584 66.3833 4.91139 66.3677C4.92693 66.3522 4.94583 66.3404 4.96663 66.3333C4.98743 66.3261 5.00958 66.3239 5.03139 66.3266H6.00628C6.10801 66.3266 6.16735 66.3733 6.16735 66.4496V66.581C6.16032 66.7045 6.18041 66.8281 6.22623 66.943C6.27204 67.0579 6.34246 67.1615 6.43253 67.2463C6.52261 67.3311 6.63017 67.3952 6.74765 67.434C6.86513 67.4729 6.98968 67.4855 7.11257 67.4711C7.21801 67.4856 7.32533 67.4774 7.42734 67.447C7.52934 67.4166 7.62365 67.3647 7.70395 67.2949C7.78425 67.225 7.84867 67.1388 7.89289 67.042C7.9371 66.9451 7.96009 66.84 7.9603 66.7336C7.9603 66.0681 6.74381 65.9664 5.84097 65.3857C5.48891 65.2023 5.20614 64.9093 5.03544 64.5509C4.86475 64.1926 4.81543 63.7883 4.89493 63.3994C4.97443 63.0105 5.17844 62.6581 5.47609 62.3955C5.77373 62.1329 6.14882 61.9743 6.54459 61.9439C6.55959 61.941 6.57319 61.9332 6.58319 61.9217C6.59319 61.9101 6.59901 61.8955 6.59969 61.8803V61.3759C6.59601 61.3539 6.59763 61.3314 6.60442 61.3101C6.61122 61.2889 6.62298 61.2696 6.63874 61.2539C6.6545 61.2381 6.67379 61.2263 6.69502 61.2195C6.71624 61.2128 6.73878 61.2111 6.76076 61.2148H7.29483C7.31664 61.2121 7.3388 61.2143 7.35959 61.2214C7.38039 61.2286 7.39929 61.2403 7.41483 61.2559C7.43038 61.2714 7.44216 61.2903 7.44928 61.3111C7.4564 61.3319 7.45866 61.3541 7.4559 61.3759V61.8718C7.45659 61.8871 7.4624 61.9016 7.4724 61.9132C7.4824 61.9247 7.496 61.9325 7.51101 61.9354C8.63425 62.0583 9.27005 62.7407 9.27005 63.7029V64.0039C9.27281 64.0257 9.27054 64.0478 9.26343 64.0686C9.25631 64.0894 9.24453 64.1083 9.22898 64.1239C9.21344 64.1394 9.19454 64.1512 9.17374 64.1583C9.15294 64.1654 9.13079 64.1677 9.10898 64.1649H8.12985C8.02812 64.1649 7.96878 64.1268 7.96878 64.0717V64.0039C7.9796 63.8777 7.96286 63.7508 7.91973 63.6317C7.8766 63.5127 7.80811 63.4045 7.71901 63.3146C7.6299 63.2247 7.52231 63.1552 7.40369 63.111C7.28507 63.0668 7.15825 63.049 7.03204 63.0586C6.50644 63.0586 6.1843 63.3299 6.1843 63.7495C6.1843 64.3557 7.03204 64.4532 7.91368 64.8346C8.87585 65.2585 9.29972 65.8646 9.29972 66.6869C9.32515 67.7042 8.68088 68.4333 7.54068 68.5858Z" stroke="#263238" stroke-width="0.423866" stroke-miterlimit="10"/>
<path d="M7.02338 70.5949C9.96127 70.5949 12.3429 68.2132 12.3429 65.2753C12.3429 62.3374 9.96127 59.9558 7.02338 59.9558C4.08549 59.9558 1.70386 62.3374 1.70386 65.2753C1.70386 68.2132 4.08549 70.5949 7.02338 70.5949Z" stroke="#263238" stroke-width="0.423866" stroke-miterlimit="10"/>
<path d="M92.5724 176.451C132.614 176.451 165.075 175.305 165.075 173.891C165.075 172.477 132.614 171.331 92.5724 171.331C52.5305 171.331 20.0701 172.477 20.0701 173.891C20.0701 175.305 52.5305 176.451 92.5724 176.451Z" fill="#CCCCCC"/>
<path d="M87.3588 150.875C87.3588 150.875 90.8854 166.033 89.351 168.525C87.3461 171.785 65.979 173.747 65.979 173.747H113.092C113.092 173.747 118.996 172.09 117.22 167.342C115.847 163.672 109.256 150.875 109.256 150.875H87.3588Z" fill="white" stroke="#263238" stroke-width="0.423866" stroke-linecap="round" stroke-linejoin="round"/>
<path d="M86.3247 150.875C86.3247 150.875 90.0844 166.16 88.3168 168.525C86.5493 170.89 65.9749 172.696 65.9749 172.696H113.312C113.312 172.696 117.292 171.085 116.186 167.342C115.08 163.6 108.222 150.875 108.222 150.875H86.3247Z" fill="white" stroke="#263238" stroke-width="0.423866" stroke-linecap="round" stroke-linejoin="round"/>
<path d="M108.226 150.875H86.3247C86.3247 150.875 88.55 159.933 88.7704 165.181H115.368C113.215 160.132 108.226 150.875 108.226 150.875Z" fill="#263238" stroke="#263238" stroke-width="0.423866" stroke-linecap="round" stroke-linejoin="round"/>
<path d="M113.088 172.768H65.9749V173.743H113.088V172.768Z" fill="white" stroke="#263238" stroke-width="0.423866" stroke-linecap="round" stroke-linejoin="round"/>
<path d="M166.363 45.748H31.3959C29.4108 45.748 27.8015 47.3573 27.8015 49.3424V148.769C27.8015 150.754 29.4108 152.363 31.3959 152.363H166.363C168.349 152.363 169.958 150.754 169.958 148.769V49.3424C169.958 47.3573 168.349 45.748 166.363 45.748Z" fill="white" stroke="#263238" stroke-width="0.423866" stroke-linecap="round" stroke-linejoin="round"/>
<path d="M163.015 45.748H28.0473C26.0621 45.748 24.4529 47.3573 24.4529 49.3424V148.769C24.4529 150.754 26.0621 152.363 28.0473 152.363H163.015C165 152.363 166.609 150.754 166.609 148.769V49.3424C166.609 47.3573 165 45.748 163.015 45.748Z" fill="#263238" stroke="#263238" stroke-width="0.423866" stroke-linecap="round" stroke-linejoin="round"/>
<path d="M24.4529 135.794H166.609V148.777C166.609 149.731 166.23 150.645 165.556 151.319C164.882 151.993 163.968 152.372 163.015 152.372H28.0473C27.094 152.372 26.1797 151.993 25.5057 151.319C24.8316 150.645 24.4529 149.731 24.4529 148.777V135.794Z" fill="white" stroke="#263238" stroke-width="0.423866" stroke-linecap="round" stroke-linejoin="round"/>
<path d="M159.459 52.3816H31.6035V127.707H159.459V52.3816Z" fill="white" stroke="#263238" stroke-width="0.423866" stroke-linecap="round" stroke-linejoin="round"/>
<path d="M146.547 95.7473H38.0122V100.512H146.547V95.7473Z" fill="#25CCB3"/>
<path d="M146.547 104.75H38.0122V109.514H146.547V104.75Z" fill="#25CCB3"/>
<path d="M38.0039 67.3313H57.0991" stroke="#263238" stroke-width="0.423866" stroke-miterlimit="10"/>
<path d="M38.0039 70.1372H57.0991" stroke="#263238" stroke-width="0.423866" stroke-miterlimit="10"/>
<path d="M99.918 70.1372H119.013" stroke="#263238" stroke-width="0.423866" stroke-miterlimit="10"/>
<path d="M99.918 72.9304H119.013" stroke="#263238" stroke-width="0.423866" stroke-miterlimit="10"/>
<path d="M99.918 75.7239H119.013" stroke="#263238" stroke-width="0.423866" stroke-miterlimit="10"/>
<path d="M38.0039 72.9478H57.0991" stroke="#263238" stroke-width="0.423866" stroke-miterlimit="10"/>
<path d="M38.0039 120.077H57.0991" stroke="#263238" stroke-width="0.423866" stroke-miterlimit="10"/>
<path d="M38.0039 122.68H57.0991" stroke="#263238" stroke-width="0.423866" stroke-miterlimit="10"/>
<path d="M38.0039 75.7534H57.0991" stroke="#263238" stroke-width="0.423866" stroke-miterlimit="10"/>
<path d="M83.773 78.5637H38.0039V83.6162H83.773V78.5637Z" fill="#25CCB3"/>
<path d="M146.386 73.5068H122.239V76.0331H146.386V73.5068Z" fill="#25CCB3"/>
<path d="M146.386 67.0515H122.239V76.0375H146.386V67.0515Z" stroke="#263238" stroke-width="0.423866" stroke-miterlimit="10"/>
<path d="M146.386 69.5779H122.239V73.5071H146.386V69.5779Z" stroke="#263238" stroke-width="0.423866" stroke-miterlimit="10"/>
<path d="M125.914 67.1279V75.9274" stroke="#263238" stroke-width="0.423866" stroke-miterlimit="10"/>
<path d="M146.547 87.0112H38.0122V117.453H146.547V87.0112Z" stroke="#263238" stroke-width="0.423866" stroke-miterlimit="10"/>
<path d="M146.547 87.0112H38.0122V91.7755H146.547V87.0112Z" fill="#25CCB3" stroke="#263238" stroke-width="0.423866" stroke-miterlimit="10"/>
<path d="M114.635 87.126V117.403" stroke="#263238" stroke-width="0.423866" stroke-miterlimit="10"/>
<path d="M126.431 87.126V117.403" stroke="#263238" stroke-width="0.423866" stroke-miterlimit="10"/>
<path d="M126.617 119.823H111.134V125.757H126.617V119.823Z" fill="#25CCB3"/>
<path d="M117.131 122.421C117.134 122.561 117.108 122.699 117.053 122.828C116.999 122.957 116.918 123.072 116.816 123.167C116.714 123.263 116.593 123.335 116.461 123.381C116.329 123.426 116.189 123.443 116.05 123.43H115.381C115.373 123.43 115.365 123.433 115.36 123.439C115.354 123.444 115.351 123.452 115.351 123.46V124.647C115.352 124.658 115.351 124.669 115.348 124.679C115.344 124.689 115.338 124.699 115.33 124.707C115.323 124.714 115.313 124.72 115.303 124.724C115.292 124.727 115.281 124.729 115.27 124.727H114.762C114.751 124.729 114.74 124.727 114.729 124.724C114.719 124.72 114.71 124.714 114.702 124.707C114.694 124.699 114.688 124.689 114.685 124.679C114.681 124.669 114.68 124.658 114.681 124.647V121.472C114.68 121.461 114.681 121.45 114.685 121.439C114.688 121.429 114.694 121.42 114.702 121.412C114.71 121.404 114.719 121.398 114.729 121.395C114.74 121.391 114.751 121.39 114.762 121.391H116.08C116.219 121.382 116.358 121.401 116.489 121.449C116.619 121.497 116.738 121.573 116.837 121.67C116.937 121.767 117.014 121.885 117.065 122.014C117.116 122.144 117.138 122.282 117.131 122.421ZM116.466 122.421C116.468 122.358 116.457 122.294 116.434 122.235C116.41 122.176 116.373 122.122 116.327 122.078C116.281 122.034 116.226 122 116.166 121.979C116.106 121.958 116.042 121.95 115.978 121.955H115.376C115.372 121.954 115.368 121.955 115.364 121.956C115.36 121.957 115.357 121.959 115.354 121.962C115.351 121.965 115.349 121.969 115.347 121.973C115.346 121.977 115.346 121.981 115.347 121.985V122.832C115.346 122.837 115.346 122.841 115.347 122.845C115.349 122.849 115.351 122.852 115.354 122.855C115.357 122.858 115.36 122.86 115.364 122.861C115.368 122.863 115.372 122.863 115.376 122.862H115.978C116.038 122.867 116.099 122.86 116.156 122.842C116.213 122.823 116.266 122.793 116.312 122.754C116.357 122.714 116.394 122.666 116.421 122.612C116.447 122.557 116.463 122.498 116.466 122.438V122.421Z" fill="#263238"/>
<path d="M119.335 124.663L119.204 124.24C119.204 124.24 119.204 124.214 119.174 124.214H118.004C118.001 124.214 117.997 124.214 117.993 124.215C117.99 124.216 117.986 124.218 117.984 124.22C117.981 124.222 117.978 124.225 117.977 124.229C117.975 124.232 117.975 124.236 117.975 124.24L117.843 124.663C117.838 124.683 117.827 124.701 117.811 124.713C117.795 124.725 117.775 124.732 117.754 124.731H117.203C117.148 124.731 117.118 124.693 117.135 124.642L118.148 121.468C118.153 121.448 118.165 121.43 118.181 121.418C118.197 121.406 118.217 121.399 118.237 121.4H118.937C118.957 121.399 118.977 121.406 118.993 121.418C119.009 121.43 119.021 121.448 119.026 121.468L120.039 124.642C120.039 124.693 120.039 124.731 119.971 124.731H119.42C119.4 124.731 119.381 124.724 119.366 124.712C119.351 124.7 119.34 124.683 119.335 124.663ZM118.17 123.676H119.017C119.017 123.676 119.047 123.676 119.043 123.642L118.619 122.188C118.619 122.163 118.589 122.163 118.581 122.188L118.157 123.642C118.14 123.667 118.148 123.676 118.165 123.676H118.17Z" fill="#263238"/>
<path d="M120.904 124.642V123.464C120.906 123.451 120.906 123.438 120.904 123.426L119.941 121.489C119.912 121.438 119.941 121.391 119.997 121.391H120.548C120.567 121.392 120.587 121.398 120.603 121.409C120.62 121.421 120.633 121.436 120.641 121.455L121.221 122.692H121.26L121.84 121.455C121.848 121.436 121.861 121.421 121.878 121.409C121.894 121.398 121.914 121.392 121.934 121.391H122.497C122.561 121.391 122.586 121.433 122.561 121.489L121.59 123.426C121.588 123.438 121.588 123.451 121.59 123.464V124.642C121.592 124.653 121.59 124.664 121.587 124.675C121.583 124.685 121.577 124.694 121.57 124.702C121.562 124.71 121.552 124.716 121.542 124.719C121.532 124.723 121.521 124.724 121.51 124.723H121.005C120.993 124.729 120.98 124.731 120.966 124.729C120.953 124.728 120.94 124.723 120.929 124.714C120.919 124.706 120.911 124.695 120.906 124.682C120.901 124.669 120.901 124.655 120.904 124.642Z" fill="#263238"/>
<path d="M159.459 52.3816H31.6035V55.8615H159.459V52.3816Z" fill="#25CCB3" stroke="#263238" stroke-width="0.423866" stroke-linecap="round" stroke-linejoin="round"/>
<path d="M95.531 146.704C96.98 146.704 98.1547 145.53 98.1547 144.081C98.1547 142.632 96.98 141.457 95.531 141.457C94.0819 141.457 92.9072 142.632 92.9072 144.081C92.9072 145.53 94.0819 146.704 95.531 146.704Z" fill="#263238" stroke="#263238" stroke-width="0.423866" stroke-linecap="round" stroke-linejoin="round"/>
<path d="M169.051 183.205C182.258 183.205 192.965 181.267 192.965 178.876C192.965 176.485 182.258 174.547 169.051 174.547C155.843 174.547 145.136 176.485 145.136 178.876C145.136 181.267 155.843 183.205 169.051 183.205Z" fill="#CCCCCC"/>
<path d="M154.269 67.9062C154.269 67.9062 151.692 68.8695 150.886 72.494C150.079 76.1186 148.393 87.0645 147.502 92.2183C146.611 97.3722 141.872 114.122 141.872 114.122L144.365 115.814C144.365 115.814 150.482 106.879 152.192 102.695C153.902 98.5101 155.576 95.6081 155.805 92.3929C156.033 89.1778 155.642 71.4645 155.642 70.1158C155.642 68.7671 154.992 67.7617 154.269 67.9062Z" fill="#226EBE" stroke="#263238" stroke-width="0.602085" stroke-linecap="round" stroke-linejoin="round"/>
<path d="M156.605 173.012C156.605 173.012 150.247 177.118 149.519 178.569C148.79 180.02 150.163 180.423 153.733 179.936C157.304 179.448 159.754 177.6 161.464 176.636C163.174 175.673 163.957 175.589 163.397 173.415C162.837 171.242 156.605 173.012 156.605 173.012Z" fill="white" stroke="#263238" stroke-width="0.602085" stroke-linecap="round" stroke-linejoin="round"/>
<path d="M181.484 173.656C181.484 173.656 188.486 178.406 188.107 179.454C187.727 180.502 185.614 180.983 181.911 179.773C178.208 178.563 177.401 177.6 175.89 176.311C174.379 175.023 174.927 173.415 174.927 172.283C174.927 171.151 181.484 173.656 181.484 173.656Z" fill="white" stroke="#263238" stroke-width="0.602085" stroke-linecap="round" stroke-linejoin="round"/>
<path d="M153.306 100.105C153.306 100.105 151.855 112.821 151.698 122.985C151.542 133.148 156.196 171.802 156.196 172.205V173.409C157.39 173.951 158.67 174.277 159.977 174.373C161.348 174.408 162.72 174.353 164.083 174.21C164.083 174.21 164.083 167.045 164.246 161.494C164.408 155.943 165.294 130.607 165.294 130.607L165.534 119.661L167.142 120.709L174.71 174.373L181.472 173.65C181.472 173.65 182.278 137.934 182.116 128.114C181.953 118.294 180.021 100.985 180.021 100.985L153.306 100.105Z" fill="#263238" stroke="#263238" stroke-width="0.602085" stroke-linecap="round" stroke-linejoin="round"/>
<path d="M165.944 64.149C165.944 64.149 155.239 67.4484 154.269 67.9301C153.3 68.4117 152.662 70.9887 152.662 74.2098C152.662 77.431 153.866 93.3681 153.709 95.2828C153.553 97.1974 152.583 99.6298 153.39 100.997C154.197 102.363 164.83 103.248 170.538 103.008C176.245 102.767 179.472 103.327 180.279 101.719C181.086 100.111 181.568 80.2246 182.375 75.6368C183.181 71.0489 183.741 68.6345 182.134 67.3461C180.526 66.0576 171.989 64.5283 169.899 64.0466L165.944 64.149Z" fill="#226EBE" stroke="#263238" stroke-width="0.602085" stroke-linecap="round" stroke-linejoin="round"/>
<path d="M165.582 62.0959C165.582 62.0959 163.812 62.698 163.216 64.0286C162.62 65.3592 160.85 71.9822 161.494 72.3013C162.139 72.6204 167.136 70.206 167.888 70.3686C168.641 70.5311 171.706 74.5049 172.615 73.9811C173.524 73.4573 175.685 67.7616 174.861 64.8896C174.036 62.0177 166.389 61.3433 165.582 62.0959Z" fill="white" stroke="#263238" stroke-width="0.602085" stroke-linecap="round" stroke-linejoin="round"/>
<path d="M164.625 60.2655C164.625 60.2655 164.571 63.2217 164.571 64.7269C164.571 66.2321 165.859 71.6027 166.979 71.392C168.099 71.1812 172.783 65.913 173.536 64.5162C174.289 63.1193 174.451 60.2173 174.451 60.2173C174.451 60.2173 171.122 62.5835 168.593 61.8309C167.222 61.4405 165.893 60.9162 164.625 60.2655Z" fill="white" stroke="#263238" stroke-width="0.602085" stroke-linecap="round" stroke-linejoin="round"/>
<path d="M168.593 61.825C167.22 61.437 165.889 60.9146 164.619 60.2656C164.619 60.2656 164.619 61.4276 164.583 62.6739C164.95 63.4627 165.299 64.125 165.546 64.5946C165.868 65.3323 166.462 65.9172 167.205 66.2269C167.948 66.5366 168.782 66.5471 169.532 66.2564C171.28 65.4859 172.835 64.3363 174.084 62.8907C174.27 62.0075 174.392 61.1121 174.451 60.2114C174.451 60.2114 171.116 62.5776 168.593 61.825Z" fill="#263238" stroke="#263238" stroke-width="0.602085" stroke-linecap="round" stroke-linejoin="round"/>
<path d="M163.355 51.6257C163.355 51.6257 163.048 49.4823 162.042 50.3553C161.037 51.2283 161.211 53.4199 161.693 54.4736C162.175 55.5272 162.698 55.3948 162.831 55.3466C162.963 55.2984 163.355 51.6257 163.355 51.6257Z" fill="white" stroke="#263238" stroke-width="0.602085" stroke-linecap="round" stroke-linejoin="round"/>
<path d="M177.365 53.6848C177.498 53.468 179.117 48.0372 179.208 45.099C179.298 42.1609 175.047 39.4033 172.025 38.8374C169.002 38.2714 164.535 39.012 163.596 40.7219C162.656 42.4318 162.542 49.1511 162.542 50.2709C162.542 51.3908 163.415 51.5835 163.638 51.3246C163.861 51.0657 164.511 44.4488 164.908 43.9671C165.306 43.4854 172.308 43.7022 173.404 44.0093C174.499 44.3163 175.114 45.4543 174.891 47.116C174.668 48.7778 174.933 48.6935 175.372 49.6568C175.812 50.6201 175.812 50.9694 175.812 52.2819C175.812 53.5944 176.444 55.1719 177.365 53.6848Z" fill="#263238" stroke="#263238" stroke-width="0.602085" stroke-linecap="round" stroke-linejoin="round"/>
<path d="M164.318 43.7441C163.574 46.9604 163.047 50.223 162.741 53.5099C162.524 57.4054 164.667 61.4394 165.546 63.1012C165.868 63.8389 166.462 64.4237 167.205 64.7334C167.948 65.0431 168.782 65.0537 169.532 64.7629C171.631 63.8199 173.455 62.3568 174.831 60.5122C176.45 58.4109 177.281 53.3715 177.281 53.3715C177.281 53.3715 176.625 53.7207 176.583 53.1547C176.54 52.5888 176.974 50.6139 176.54 49.3435C176.107 48.0731 175.138 47.7661 175.71 46.5378C176.077 45.8492 176.343 45.111 176.498 44.3462C176.498 44.1295 174.307 42.8109 170.321 42.4617C166.335 42.1125 164.535 42.6483 164.318 43.7441Z" fill="white" stroke="#263238" stroke-width="0.602085" stroke-linecap="round" stroke-linejoin="round"/>
<path d="M164.752 47.3326C164.752 47.3326 165.956 46.309 167.563 47.4831" stroke="#263238" stroke-width="0.602085" stroke-linecap="round" stroke-linejoin="round"/>
<path d="M170.646 47.7963C170.646 47.7963 173.458 46.6705 174.577 48.6634" stroke="#263238" stroke-width="0.602085" stroke-linecap="round" stroke-linejoin="round"/>
<path d="M176.841 54.0337C176.841 54.0337 177.714 52.0649 178.985 51.9745C180.255 51.8842 180.081 54.3829 178.895 56.0025C177.708 57.6221 176.005 58.2784 175.962 57.0983" fill="white"/>
<path d="M176.841 54.0337C176.841 54.0337 177.714 52.0649 178.985 51.9745C180.255 51.8842 180.081 54.3829 178.895 56.0025C177.708 57.6221 176.005 58.2784 175.962 57.0983" stroke="#263238" stroke-width="0.602085" stroke-linecap="round" stroke-linejoin="round"/>
<path d="M168.238 50.4875C168.238 50.4875 166.793 54.648 167.1 55.2199C167.407 55.7919 168.587 56.4241 170.032 55.7437" stroke="#263238" stroke-width="0.602085" stroke-linecap="round" stroke-linejoin="round"/>
<path d="M168.84 57.7124C169.472 57.9296 170.149 57.9833 170.808 57.8686C171.467 57.7538 172.087 57.4744 172.609 57.0562" stroke="#263238" stroke-width="0.602085" stroke-linecap="round" stroke-linejoin="round"/>
<path d="M166.437 51.4929C166.644 51.4929 166.811 51.1101 166.811 50.6379C166.811 50.1657 166.644 49.783 166.437 49.783C166.231 49.783 166.064 50.1657 166.064 50.6379C166.064 51.1101 166.231 51.4929 166.437 51.4929Z" fill="#263238"/>
<path d="M171.916 52.0651C172.123 52.0651 172.29 51.6824 172.29 51.2102C172.29 50.738 172.123 50.3552 171.916 50.3552C171.71 50.3552 171.543 50.738 171.543 51.2102C171.543 51.6824 171.71 52.0651 171.916 52.0651Z" fill="#263238"/>
<path d="M165.781 52.8957C167.171 52.8957 168.298 51.769 168.298 50.379C168.298 48.9891 167.171 47.8623 165.781 47.8623C164.391 47.8623 163.264 48.9891 163.264 50.379C163.264 51.769 164.391 52.8957 165.781 52.8957Z" stroke="#263238" stroke-width="0.602085" stroke-linecap="round" stroke-linejoin="round"/>
<path d="M172.181 53.5642C173.644 53.5642 174.83 52.3781 174.83 50.915C174.83 49.4519 173.644 48.2659 172.181 48.2659C170.718 48.2659 169.532 49.4519 169.532 50.915C169.532 52.3781 170.718 53.5642 172.181 53.5642Z" stroke="#263238" stroke-width="0.602085" stroke-linecap="round" stroke-linejoin="round"/>
<path d="M168.298 49.9157C168.494 49.8133 168.719 49.7791 168.937 49.8183C169.155 49.8575 169.354 49.968 169.502 50.1325" stroke="#263238" stroke-width="0.602085" stroke-linecap="round" stroke-linejoin="round"/>
<path d="M174.782 51.186L177.937 52.5046" stroke="#263238" stroke-width="0.602085" stroke-linecap="round" stroke-linejoin="round"/>
<path d="M142.517 112.261L145.9 113.628" stroke="#263238" stroke-width="0.602085" stroke-linecap="round" stroke-linejoin="round"/>
<path d="M139.398 122.551C139.398 122.551 139.873 125.333 140.205 125.477C140.536 125.622 140.644 124.122 140.536 123.171L140.427 122.22C140.427 122.22 140.939 124.706 141.451 124.929C141.963 125.152 141.668 124.05 141.523 123.502L141.379 122.954C141.379 122.954 142.661 124.309 142.769 123.978C142.878 123.647 141.999 122.003 141.963 121.889C141.757 121.255 141.598 120.607 141.487 119.95C141.451 119.438 140.716 117.385 139.988 118.668C139.259 119.95 139.398 122.551 139.398 122.551Z" fill="white" stroke="#263238" stroke-width="0.602085" stroke-linecap="round" stroke-linejoin="round"/>
<path d="M141.872 114.122C141.872 114.122 139.464 117.987 138.814 119.276C138.164 120.564 137.688 125.393 138.248 125.718C138.808 126.043 138.97 124.869 139.097 124.05C139.326 123.086 139.67 122.152 140.12 121.269C140.12 121.269 139.771 124.351 140.259 124.279C140.746 124.207 141.144 121.383 141.463 120.667C141.782 119.95 143.715 118.897 144.359 115.85L141.872 114.122Z" fill="#FFFBFB" stroke="#263238" stroke-width="0.602085" stroke-linecap="round" stroke-linejoin="round"/>
<path d="M140.126 121.251C140.126 121.251 140.126 120.835 140.421 119.312L140.126 121.251Z" fill="white"/>
<path d="M140.126 121.251C140.126 121.251 140.126 120.835 140.421 119.312" stroke="#263238" stroke-width="0.602085" stroke-linecap="round" stroke-linejoin="round"/>
<path d="M181.803 67.1592C183.632 68.5452 185.028 70.4253 185.825 72.5779C187.354 76.359 192.586 92.8622 192.748 93.1873C192.911 93.5124 192.748 96.7276 190.172 97.7752C187.595 98.8228 186.39 96.571 184.861 93.9941C183.332 91.4172 179.792 79.9896 179.792 79.9896" fill="#226EBE"/>
<path d="M181.803 67.1592C183.632 68.5452 185.028 70.4253 185.825 72.5779C187.354 76.359 192.586 92.8622 192.748 93.1873C192.911 93.5124 192.748 96.7276 190.172 97.7752C187.595 98.8228 186.39 96.571 184.861 93.9941C183.332 91.4172 179.792 79.9896 179.792 79.9896" stroke="#263238" stroke-width="0.602085" stroke-linecap="round" stroke-linejoin="round"/>
<path d="M188.401 88.5154L200.901 82.3801L203.074 84.8728C203.074 84.8728 193.874 96.0595 191.863 97.366C189.852 98.6725 187.354 98.3294 186.391 96.1619" fill="#226EBE"/>
<path d="M188.401 88.5154L200.901 82.3801L203.074 84.8728C203.074 84.8728 193.874 96.0595 191.863 97.366C189.852 98.6725 187.354 98.3294 186.391 96.1619" stroke="#263238" stroke-width="0.602085" stroke-linecap="round" stroke-linejoin="round"/>
<path d="M199.534 83.2593L201.864 86.077" stroke="#263238" stroke-width="0.602085" stroke-linecap="round" stroke-linejoin="round"/>
<path d="M200.901 82.374C200.901 82.374 203.64 78.1052 204.441 77.7861C205.242 77.467 207.5 76.9793 208.788 76.016C210.077 75.0527 210.799 75.2935 210.077 76.3351C209.354 77.3767 208.547 77.5393 207.825 77.8644C207.457 78.0174 207.106 78.207 206.777 78.4304C206.777 78.4304 208.788 78.5086 210.077 78.5929C210.859 78.6403 211.644 78.5857 212.413 78.4304C212.413 78.4304 215.712 76.9793 214.905 78.7495C214.098 80.5196 214.183 81.6455 210.962 82.6149C208.866 83.2094 206.698 83.5073 204.519 83.4999L203.068 84.8667L200.901 82.374Z" fill="white" stroke="#263238" stroke-width="0.602085" stroke-linecap="round" stroke-linejoin="round"/>
<path d="M213.538 81.4108C214.049 81.2267 214.51 80.928 214.887 80.5376C215.264 80.1473 215.546 79.6756 215.712 79.159C216.278 77.3889 215.953 77.3046 215.23 77.9548C214.523 78.679 213.95 79.523 213.538 80.4475C213.135 81.2482 213.538 81.4108 213.538 81.4108Z" fill="white" stroke="#263238" stroke-width="0.602085" stroke-linecap="round" stroke-linejoin="round"/>
<path d="M212.792 81.4889C212.792 81.4889 213.755 82.1331 214.484 80.2004C215.212 78.2677 215.128 76.7384 214.484 77.0636C213.84 77.3887 213.677 77.467 212.876 79.1588C212.075 80.8507 211.347 81.5671 211.829 81.7357C211.997 81.7697 212.172 81.7652 212.339 81.7225C212.505 81.6797 212.66 81.5999 212.792 81.4889Z" fill="white" stroke="#263238" stroke-width="0.602085" stroke-linecap="round" stroke-linejoin="round"/>
<path d="M203.556 82.2115C203.556 82.2115 204.76 80.2006 206.133 80.2006C207.807 80.3246 209.473 80.5396 211.124 80.8448C211.124 80.8448 213.779 76.9794 214.345 77.5454C214.911 78.1113 213.46 80.7665 212.816 81.489C212.172 82.2115 212.094 82.2958 211.528 82.4523" fill="white"/>
<path d="M203.556 82.2115C203.556 82.2115 204.76 80.2006 206.133 80.2006C207.807 80.3246 209.473 80.5396 211.124 80.8448C211.124 80.8448 213.779 76.9794 214.345 77.5454C214.911 78.1113 213.46 80.7665 212.816 81.489C212.172 82.2115 212.094 82.2958 211.528 82.4523" stroke="#263238" stroke-width="0.602085" stroke-linecap="round" stroke-linejoin="round"/>
<path d="M41.5386 64L40.6806 62.77C40.6446 62.774 40.5906 62.776 40.5186 62.776H39.5706V64H38.7906V59.8H40.5186C40.8826 59.8 41.1986 59.86 41.4666 59.98C41.7386 60.1 41.9466 60.272 42.0906 60.496C42.2346 60.72 42.3066 60.986 42.3066 61.294C42.3066 61.61 42.2286 61.882 42.0726 62.11C41.9206 62.338 41.7006 62.508 41.4126 62.62L42.3786 64H41.5386ZM41.5206 61.294C41.5206 61.026 41.4326 60.82 41.2566 60.676C41.0806 60.532 40.8226 60.46 40.4826 60.46H39.5706V62.134H40.4826C40.8226 62.134 41.0806 62.062 41.2566 61.918C41.4326 61.77 41.5206 61.562 41.5206 61.294ZM46.5093 63.346V64H43.3593V59.8H46.4253V60.454H44.1393V61.546H46.1673V62.188H44.1393V63.346H46.5093ZM49.4852 64.06C49.0612 64.06 48.6772 63.968 48.3332 63.784C47.9932 63.596 47.7252 63.338 47.5292 63.01C47.3372 62.682 47.2412 62.312 47.2412 61.9C47.2412 61.488 47.3392 61.118 47.5352 60.79C47.7312 60.462 47.9992 60.206 48.3392 60.022C48.6832 59.834 49.0672 59.74 49.4912 59.74C49.8352 59.74 50.1492 59.8 50.4332 59.92C50.7172 60.04 50.9572 60.214 51.1532 60.442L50.6492 60.916C50.3452 60.588 49.9712 60.424 49.5272 60.424C49.2392 60.424 48.9812 60.488 48.7532 60.616C48.5252 60.74 48.3472 60.914 48.2192 61.138C48.0912 61.362 48.0272 61.616 48.0272 61.9C48.0272 62.184 48.0912 62.438 48.2192 62.662C48.3472 62.886 48.5252 63.062 48.7532 63.19C48.9812 63.314 49.2392 63.376 49.5272 63.376C49.9712 63.376 50.3452 63.21 50.6492 62.878L51.1532 63.358C50.9572 63.586 50.7152 63.76 50.4272 63.88C50.1432 64 49.8292 64.06 49.4852 64.06ZM55.2306 63.346V64H52.0806V59.8H55.1466V60.454H52.8606V61.546H54.8886V62.188H52.8606V63.346H55.2306ZM56.2801 59.8H57.0601V64H56.2801V59.8ZM60.1041 59.8C60.4681 59.8 60.7841 59.86 61.0521 59.98C61.3241 60.1 61.5321 60.272 61.6761 60.496C61.8201 60.72 61.8921 60.986 61.8921 61.294C61.8921 61.598 61.8201 61.864 61.6761 62.092C61.5321 62.316 61.3241 62.488 61.0521 62.608C60.7841 62.728 60.4681 62.788 60.1041 62.788H59.1561V64H58.3761V59.8H60.1041ZM60.0681 62.128C60.4081 62.128 60.6661 62.056 60.8421 61.912C61.0181 61.768 61.1061 61.562 61.1061 61.294C61.1061 61.026 61.0181 60.82 60.8421 60.676C60.6661 60.532 60.4081 60.46 60.0681 60.46H59.1561V62.128H60.0681ZM63.58 60.46H62.188V59.8H65.752V60.46H64.36V64H63.58V60.46Z" fill="black"/>
</g>
<defs>
<clipPath id="clip0">
<rect width="232" height="183" fill="white"/>
</clipPath>
</defs>
</svg>
