<svg width="177" height="182" viewBox="0 0 177 182" fill="none" xmlns="http://www.w3.org/2000/svg">
<g clip-path="url(#clip0)">
<path d="M5.20952 70.7739C5.20952 70.7739 -2.2091 102.471 18.4514 130.083C39.1119 157.695 75.1243 168.427 104.07 177.893C133.016 187.358 160.13 176.432 170.3 152.102C180.469 127.771 159.932 114.672 155.399 82.8994C150.866 51.1268 154.484 41.9624 133.357 17.7826C112.229 -6.39721 68.8814 -5.83507 39.5513 19.0019C10.2212 43.8388 5.20952 70.7739 5.20952 70.7739Z" fill="#E5F1FF"/>
<path d="M71.5338 22.7824L67.6186 16.5435H33.1779V22.7824V25.0309V128.86H174.943V22.7824H71.5338Z" fill="#263238"/>
<path d="M174.013 25.6445H34.231V126.596H174.013V25.6445Z" fill="white"/>
<path opacity="0.17" d="M174.698 24.7817H171.452V127.364H174.698V24.7817Z" fill="black"/>
<path opacity="0.17" d="M174.698 86.8027H171.452V126.528H174.698V86.8027Z" fill="black"/>
<path d="M174.195 24.2827H33.6766V29.7734H174.195V24.2827Z" fill="#25CCB3" stroke="#263238" stroke-width="0.395871" stroke-miterlimit="10"/>
<path d="M174.013 25.6445H34.231V126.596H174.013V25.6445Z" stroke="#263238" stroke-width="0.395871" stroke-linecap="round" stroke-linejoin="round"/>
<g opacity="0.17">
<path opacity="0.17" d="M107.059 35.0663H97.2812C97.0523 35.0663 96.8328 34.9754 96.671 34.8136C96.5091 34.6517 96.4182 34.4322 96.4182 34.2033C96.4182 33.9744 96.5091 33.7549 96.671 33.5931C96.8328 33.4313 97.0523 33.3403 97.2812 33.3403H107.059C107.288 33.3403 107.508 33.4313 107.669 33.5931C107.831 33.7549 107.922 33.9744 107.922 34.2033C107.922 34.4322 107.831 34.6517 107.669 34.8136C107.508 34.9754 107.288 35.0663 107.059 35.0663Z" fill="black"/>
<path opacity="0.17" d="M126.615 35.0663H116.837C116.611 35.0622 116.396 34.9694 116.237 34.808C116.079 34.6466 115.99 34.4295 115.99 34.2033C115.99 33.9744 116.081 33.7549 116.243 33.5931C116.405 33.4313 116.624 33.3403 116.853 33.3403H126.631C126.856 33.3465 127.069 33.4402 127.226 33.6013C127.383 33.7625 127.47 33.9785 127.47 34.2033C127.47 34.4308 127.381 34.6492 127.22 34.8108C127.06 34.9724 126.843 35.0642 126.615 35.0663Z" fill="black"/>
<path opacity="0.17" d="M146.175 35.0663H136.397C136.168 35.0663 135.949 34.9754 135.787 34.8136C135.625 34.6517 135.534 34.4322 135.534 34.2033C135.534 33.9744 135.625 33.7549 135.787 33.5931C135.949 33.4313 136.168 33.3403 136.397 33.3403H146.175C146.404 33.3403 146.624 33.4313 146.785 33.5931C146.947 33.7549 147.038 33.9744 147.038 34.2033C147.038 34.4322 146.947 34.6517 146.785 34.8136C146.624 34.9754 146.404 35.0663 146.175 35.0663Z" fill="black"/>
<path opacity="0.17" d="M165.731 35.0663H155.973C155.744 35.0663 155.525 34.9754 155.363 34.8136C155.201 34.6517 155.11 34.4322 155.11 34.2033C155.11 33.9744 155.201 33.7549 155.363 33.5931C155.525 33.4313 155.744 33.3403 155.973 33.3403H165.751C165.98 33.3403 166.199 33.4313 166.361 33.5931C166.523 33.7549 166.614 33.9744 166.614 34.2033C166.614 34.3183 166.591 34.4322 166.546 34.5382C166.502 34.6442 166.437 34.7403 166.354 34.8207C166.272 34.9011 166.175 34.9642 166.068 35.0064C165.961 35.0486 165.846 35.069 165.731 35.0663Z" fill="black"/>
</g>
<path d="M104.3 75.3937L104.375 74.6614L104.154 74.8712L104.3 75.3937Z" fill="#C6FF00"/>
<path d="M74.4435 85.6269L76.1655 85.3814L74.4435 84.8232L74.6849 85.3656L73.9843 85.5041L74.4435 85.6269Z" fill="#C6FF00"/>
<path d="M87.9386 94.9259L85.3219 93.8808L84.8508 94.1342L84.9261 93.7581L84.0829 93.1999L83.1169 93.576L83.4297 93.1208L82.7052 92.911L82.4756 93.2158L82.9269 92.4042L81.7591 90.706L80.33 90.5159L79.3245 89.5302L78.8059 89.4748L78.9009 89.1502L78.3665 88.9325L78.414 88.7147L78.1131 88.6197L77.4204 88.8889L75.6944 88.0615L75.5914 88.3149L75.1045 88.6197L75.2233 89.1937L74.8432 89.0552L75.1283 87.9467L73.9208 88.4455L73.1014 89.6133L73.0222 89.6331L72.2978 89.0631L71.2131 89.2571L70.6272 88.5049L70.841 86.8779L70.4411 86.5691L69.0041 86.5968L68.8577 86.5058L69.0675 85.6507L69.1466 85.6032L69.5663 84.3008L68.6914 84.2374L67.8878 85.4092L66.7754 85.5636L65.7778 84.4393L65.7976 82.4085L65.6472 82.3452L65.7976 82.4085L65.7778 81.5257L67.005 80.635L68.2005 80.924L68.3589 80.7854L68.6756 81.0269L68.5251 80.6113L69.0912 80.3737L69.2337 80.4767L69.7088 80.4173L70.2907 80.7221L70.6272 80.5994L71.5337 82.6262L71.8029 82.6777L71.9613 82.2145L71.4625 80.2787L73.2122 78.1648L73.4577 78.1846L73.5448 77.947L73.0697 77.0247L73.2122 76.8821L73.2677 76.3675H73.3864L73.4498 77.2226L73.6081 77.1117L73.6794 76.4309L73.9367 76.4111L74.1267 75.9241L74.8511 75.651L74.3009 75.6352L75.3618 75.2947L75.3104 74.788L76.011 73.9329L76.4584 73.9527L77.5233 73.2283L77.547 73.3945L77.8756 73.5331L77.1432 73.8735L77.1037 74.309L78.7426 73.6479L78.8138 73.446L79.2889 73.252L79.1543 73.0976L79.1463 72.8245L78.5684 73.3747L77.5391 72.9036L77.4916 72.5038L77.3333 72.3732L77.3016 72.2148L77.65 71.7081L76.0981 71.9892L75.3183 72.7215L80.7377 70.093L80.6031 69.8159L80.8169 69.5783L80.6269 69.2735L80.2469 69.3289L80.2231 69.0122L79.3245 69.3289L79.2334 69.1706L80.1677 68.7787L78.4219 67.6782L78.4615 67.5752L78.7505 67.3971L77.6262 65.4098L77.1828 66.2649L76.4821 66.6766L75.7498 65.8967L75.8289 65.1208L72.8124 64.1549L72.662 64.4399L72.8916 64.7131L72.6937 65.0852L72.951 65.6632L72.5828 66.4985L73.1252 66.9735L73.2043 67.8365L72.1949 68.5847L72.464 70.3661L72.3057 70.3503L72.1038 70.5918L71.8029 70.469L71.1735 69.5783L71.1893 68.6639L68.0065 67.2229L67.4761 67.3971L67.1 66.3678L66.7041 66.2649L67.3296 64.337L68.1491 63.6561L67.0683 63.1652L68.3114 63.3948L68.3985 63.0544L68.9289 63.1494L69.4396 62.5754L68.541 62.1557L68.5647 61.938L69.2812 62.322L69.8236 61.8945L69.6138 61.6649L69.8948 61.5342L70.1245 61.7203L70.5045 61.6767L70.3066 61.3957L70.3699 61.2928L70.6153 61.5263L70.9281 61.5342L71.4625 61.1186L71.1735 60.2437L71.5337 60.1051L71.316 59.6934L70.0769 59.3094L70.2195 59.8795L69.7484 60.6198L69.59 60.3743L69.5425 60.6792L69.6771 60.9246L69.4238 61.1186L68.9843 60.5327L69.1387 60.3585L69.1308 60.0972L68.8893 59.8241L68.5568 59.737L68.2639 60.3308L68.1886 59.6934L68.2797 59.539L67.9195 59.3807L67.6503 59.4599L67.6661 59.1194L67.8719 59.0402L67.3296 58.5771L67.3454 58.2287L66.7991 57.7062L67.0604 57.4964L67.1396 57.1124L67.6978 57.1638L68.2124 56.3879L66.5022 56.2058L66.6012 56.4394L66.3676 56.4117L66.5656 57.7576L66.3439 57.9833L66.4547 58.2208L66.1618 58.1852L66.1776 59.2501L66.9021 59.5272L66.7833 60.0418L66.9575 59.9032L67.1158 60.121L66.5181 60.5129V60.8969L66.3281 61.0473L66.138 60.7227L66.1855 60.4179L65.7699 60.2872L66.6408 60.0537L66.4389 59.7132L66.1539 59.6855L66.4468 59.6261L65.8372 59.3886L65.0573 59.7647L65.6432 60.1922L65.3344 60.402L65.3107 60.6554L63.3273 60.4971L62.8286 60.0101L61.7122 60.2872L61.8705 60.4535L62.6821 60.1843L62.0962 60.5248L62.0487 61.3601L61.823 61.2571L61.7835 60.9325L59.3251 60.691L59.7328 60.3822L59.5982 60.0853L56.0394 59.6341L55.9364 59.0759L55.4495 59.6341L54.9111 58.8502L52.817 60.0853L52.9041 59.8676L54.1629 59.1353L52.6349 59.6143L52.3657 59.4678L51.8708 59.8597L52.0134 60.0853L45.9011 58.8304L45.7903 58.6285L45.1688 58.6404L44.9946 58.4821L44.5354 58.585L44.6779 58.4108L44.3889 58.2643L43.1181 58.7592L43.1973 58.969L42.4095 59.0402L41.8355 59.8439L40.929 60.0418L40.834 60.2872L41.8197 61.2492L42.4254 61.265L42.5441 61.6055L42.9281 61.6926L41.7326 61.9024V61.6332L40.2916 62.227L40.8102 62.4527L40.7469 62.6427L41.0161 62.9317L42.7421 62.7298L42.6787 63.5255L42.2433 63.5611L42.0493 63.8817L41.598 63.7432L40.9211 64.7804L41.2457 65.0179L41.2338 65.394L41.6772 65.8532L42.0968 65.7859L42.2829 65.6196L42.3937 66.4549L43.4982 66.5262L43.6526 66.3243L44.0405 66.3678L43.9218 67.1794L42.8767 68.1215L42.3224 68.1849L42.0612 68.6124L45.4815 66.3441L45.1965 66.1857L46.4593 64.911L46.6731 65.01L46.681 65.1565L46.3089 65.2356L46.0634 66.0551L46.2059 66.1857L47.4292 65.7305L47.4371 65.5325L47.2787 65.295L47.3975 65.105L48.1378 65.2594L47.9794 65.394L48.019 65.5325L49.7846 65.6275L50.1053 65.8651L50.5407 65.7067L50.4695 65.9522L51.4869 66.6924L51.6967 66.4985L51.9817 66.6647L52.0134 66.3362L52.1559 66.3678L52.1796 66.8824L51.6729 66.8943L52.243 67.7732L52.2667 67.0843L52.3142 67.3654L52.532 67.2348L52.524 66.8587L52.7378 67.1279L52.619 67.3971L52.4211 67.504L52.4607 67.9157L52.8328 67.7217L53.1337 67.983L52.9912 67.793L52.9991 67.5752L53.2801 67.9671L53.0941 68.1651L52.7853 68.0028L52.8407 68.6916L52.9595 68.5609L53.1574 68.6362L53.2406 68.4184L53.4227 68.4897L53.5889 68.3947L53.6206 68.6718L53.771 68.6995V68.743L53.9254 68.9449L53.8264 69.1072L53.8898 69.4041L54.2025 69.3883L54.729 69.9465L54.8161 70.568L55.7543 70.9955L55.8889 71.2291L56.3759 71.3875L56.6846 71.8071L56.6371 72.6186L56.5105 71.8665L54.6063 70.8095L55.9127 72.0604L57.5041 78.6042L58.2523 78.8734L59.7803 81.5693L59.4914 81.597L61.2292 83.6199L61.4034 83.4971L61.3242 83.1844L61.0194 83.0419L60.0179 81.114L60.0575 80.9042L59.5824 80.4687L59.4597 79.8828L59.5903 79.8433L60.1445 80.0491L62.9236 84.5185L62.8127 84.6571L67.4721 86.8898L69.0754 87.6221L69.2971 87.5707L70.0136 88.9839L70.2195 88.9404L71.6525 89.9617L71.9296 89.8825L71.8267 89.6648L72.4165 89.3323L72.8995 91.6125L71.6288 93.7502L72.0088 93.9956L71.8504 94.2371L71.8227 94.2411L71.5258 94.5855L71.6604 95.1278L71.5496 95.2308L75.4885 100.231L74.0079 110.982L74.1742 111.244L74.4672 110.389L74.4276 112.202L74.2455 112.317L74.2771 112.578L74.0475 112.475L74.2059 112.21L74.0159 111.925L74.1346 112.237L73.7348 112.499L73.7546 112.693L73.5289 112.926L73.9921 112.97L74.0238 113.172L73.9129 113.417L74.2455 113.449L74.2534 113.607L73.8021 113.564L73.5606 113.781L73.6952 113.955L73.8733 113.837L74.0238 113.853L73.6477 114.252L73.8179 114.541L74.0792 114.201L73.7546 115.266L74.1267 115.214L74.198 115.345L74.0317 115.527L74.5978 115.598L74.2771 115.737L74.1742 115.97L74.9857 115.911L74.3405 116.172L74.3484 116.331L75.0808 116.093L74.6295 116.453L74.2455 116.402L74.285 116.663L74.8274 116.845L74.7641 116.715L75.5043 115.947L75.4014 116.366L75.726 116.382L75.5281 116.556L75.5439 116.837L75.3895 116.513L75.3183 116.758L75.1441 116.687L74.867 116.992L75.1283 117.055L75.3104 117.403L75.441 117.099L75.6944 117.463L75.821 117.324L76.1971 117.621L76.1456 117.36L77.262 117.17L76.1417 116.347L76.1694 116.18L76.0467 115.966L75.726 115.816L75.7696 115.757L76.1061 115.808L75.9477 114.779L77.1037 113.136L76.7434 113.033L76.498 112.431L77.0878 112.063L77.5233 110.895L77.7252 111.026L77.8677 110.721L77.6183 110.788L77.4204 110.686L77.3491 110.021L77.9231 110.187L78.3348 109.961L78.3506 109.308L78.4773 109.15L80.0885 108.722L80.4131 108.207L79.7441 107.099L81.2959 107.202L82.4004 105.266L82.4321 105.757L84.8786 102.17L85.793 102.063L86.9688 97.895L87.1904 97.9741L88.3226 96.2957L88.2514 95.1555L87.9386 94.9259Z" fill="#E5F1FF"/>
<path d="M74.0476 84.7718L71.6447 83.5684L70.37 84.0553L70.9915 83.7425L74.0476 84.7718Z" fill="#C6FF00"/>
<path d="M72.567 85.5398L73.2994 85.6783L72.567 85.5398Z" fill="#C6FF00"/>
<path d="M78.9326 115.677L79.3483 115.222L78.9326 115.677Z" fill="#C6FF00"/>
<path d="M79.4116 115.709L79.9975 115.416L79.4116 115.709Z" fill="#C6FF00"/>
<path d="M67.8878 92.8516L68.1095 93.2514L67.8878 92.8516Z" fill="#C6FF00"/>
<path d="M92.9861 59.0717L91.553 59.0005L91.7233 58.375L93.0178 58.8501L93.1444 58.3275L92.2102 57.421L92.7407 57.4883L93.0811 57.0845L92.2221 57.0726L92.0637 56.8153L92.2023 56.4907L92.994 56.744L93.5997 56.5817L93.1247 56.0948L93.9204 56.0117L94.0154 55.7464L93.3661 55.3031L93.9916 55.1883L93.8214 54.4638L93.188 54.2896L92.9228 53.9888L94.3875 53.9175L94.1618 53.4979L93.568 53.3593L94.0549 53.2445L93.0494 53.0941L93.2711 52.3578L94.5023 51.4275L94.2568 51.1147L93.663 51.3246L95.0525 50.8574L94.3954 50.6832L96.6242 49.7529L95.393 49.369L93.9283 49.7886L93.6116 49.6619L92.3052 50.6041L92.899 49.7886L92.6773 49.2185L91.074 49.9271L91.8183 49.4165L89.1224 49.5788L93.188 48.7514L84.1701 48.2407L84.5303 48.601L83.8929 48.8108L84.8034 49.4402L82.5787 48.787L83.0102 49.3333L82.5153 49.3571L81.8542 48.9612L81.8225 49.464L81.5256 49.7292L81.3356 48.9256L78.7664 49.5669L78.8733 50.1607L78.1845 50.0459L76.5614 51.0079L77.4442 51.1623L77.1433 51.8827L74.6533 52.6864L74.8631 52.9753L76.9969 53.4781L75.1521 53.7314L75.7974 53.9175L75.8093 54.2342L79.2454 54.6617L81.0823 57.0726L80.9002 57.5595L81.0704 58.0939L81.6127 57.8366L81.7394 58.2325L82.4282 58.5927L82.2818 58.759L81.3237 58.6759L82.6103 59.5705L82.5351 60.1208L82.0799 60.1406L81.494 61.0036L81.8463 61.3401L81.5692 61.6885L85.1756 65.6907L86.3434 62.9236L86.2682 62.6306L87.1589 61.8072L87.341 61.7953L87.4162 62.0052L92.9861 59.0717Z" fill="#E5F1FF"/>
<path d="M81.5256 59.6658L82.1748 59.5035L81.8858 59.2106L81.1891 59.072L81.1337 59.4085L81.5256 59.6658Z" fill="#C6FF00"/>
<path d="M68.446 53.3079L68.0936 53.6048L68.446 53.3079Z" fill="#C6FF00"/>
<path d="M67.2505 53.1694L66.2014 53.3792L67.2505 53.1694Z" fill="#C6FF00"/>
<path d="M66.1539 51.3523L66.5023 51.7719L67.5553 51.8075L66.918 52.1401L68.7786 52.8012L70.1166 51.8075L69.4159 51.3721L69.2576 51.0039L66.918 49.9905L66.9496 50.1647L66.4073 50.517L66.4706 50.9524L66.1539 51.3523Z" fill="#C6FF00"/>
<path d="M66.9021 55.054L65.9956 55.4379L67.0763 55.7151L66.9021 55.054Z" fill="#C6FF00"/>
<path d="M64.6259 53.9534L64.7367 54.4086L64.325 54.2859L64.1944 54.563L63.9727 54.5828L63.3828 53.989L63.3353 54.4759L63.9093 54.9153L64.7684 54.8955L64.6892 55.3864L65.4374 55.4181L65.7383 55.1054L65.2949 54.1117L64.6259 53.9534Z" fill="#C6FF00"/>
<path d="M65.2949 51.3722L64.8159 51.1782L65.2949 51.3722Z" fill="#C6FF00"/>
<path d="M72.088 64.6855L72.1355 64.25L72.088 64.6855Z" fill="#C6FF00"/>
<path d="M65.9639 53.0824L66.6013 52.9597L66.629 52.6628L65.5007 52.2432L65.9639 53.0824Z" fill="#C6FF00"/>
<path d="M65.0376 58.1574L65.6749 57.9674L66.1539 57.0054L65.9322 56.954L65.8847 57.1123L65.4374 56.9183L65.9006 56.5027L65.6433 56.1345L64.3567 56.6412L64.7525 56.9896L64.036 56.9183L65.0376 58.1574Z" fill="#C6FF00"/>
<path d="M63.1136 52.1916L63.5926 52.437L63.0186 52.54L65.1049 52.9596L64.9584 52.5241L62.8761 51.772L63.1136 52.1916Z" fill="#C6FF00"/>
<path d="M71.8346 63.3433L70.1957 62.0845L69.7959 62.3457L69.4 63.4106L69.8474 63.3948L70.0374 63.7075L71.8346 63.3433Z" fill="#C6FF00"/>
<path d="M70.6906 64.3014L71.2923 63.866L70.6906 64.3014Z" fill="#C6FF00"/>
<path d="M73.6795 60.968L73.727 60.4455L73.2677 60.3228L72.951 60.9324L73.6795 60.968Z" fill="#C6FF00"/>
<path d="M63.4976 55.3309L63.1611 55.1409L63.4976 55.3309Z" fill="#C6FF00"/>
<path d="M67.6344 55.3664L71.8346 55.6989L72.1513 55.0695L68.5251 54.7726L68.636 54.4084L66.0114 53.9888L67.6186 54.7568L67.6344 55.3664Z" fill="#C6FF00"/>
<path d="M63.9727 59.2777L64.4834 59.2579L63.272 58.4187L63.0345 56.4116L62.3338 56.5898L62.7811 57.0054L61.9062 56.7956L62.1438 57.7576L61.9221 57.9674L61.6489 57.2865L60.9799 57.0054L61.253 57.338L60.8374 57.3736L60.1525 56.9738L59.915 57.338L59.6458 57.2152L59.7091 56.7639L58.1494 57.4092L58.0386 57.6863L58.3553 58.2128L59.1985 58.0901L58.2603 58.4899L60.5365 58.9254L58.5611 59.2579L64.131 59.9032L63.8935 59.5548L63.6243 59.539L63.9727 59.2777Z" fill="#E5F1FF"/>
<path d="M63.2245 53.6564L62.6821 53.1853L63.2245 53.6564Z" fill="#C6FF00"/>
<path d="M74.8116 58.4741L75.1124 58.1574L74.574 58.1772L72.951 57.1994L72.5511 57.5319L72.3295 57.4448L71.7396 57.6507L71.5021 56.5185L70.0374 56.851L70.1482 57.425L69.9582 57.7932L70.3382 58.0901L69.7325 57.8288L69.8473 56.7639L70.2115 56.4116L68.7943 56.7956L68.4618 58.1574L69.2258 58.3158L69.1466 58.4899L68.6043 58.5414L71.1814 59.2936L71.5496 59.1194L72.3611 59.2421L72.3136 58.9967L72.3928 58.8027L73.5527 59.6934L73.2043 60.0259L73.7585 59.8517L74.6374 60.6197V61.3006L75.2233 61.2492L75.7814 61.5461L75.2549 61.8232L74.3484 61.459L74.2534 62.1201L72.9351 62.417L72.7253 62.9039L74.4117 62.8366L75.0332 63.7432L77.0086 64.5111L76.0665 63.4621L77.5787 63.6363L76.4346 62.0488L76.5296 61.6134L77.5629 62.3655L78.7742 61.5263L76.3079 59.9032L76.7988 59.7805L76.3871 59.5548L76.593 59.3807L76.403 59.0481L76.1456 59.1867L76.2129 58.8739L75.4014 58.4899L74.9382 58.5929L74.8116 58.4741Z" fill="#E5F1FF"/>
<path d="M68.0778 49.6263L68.2876 49.6777L68.4301 49.8361L68.3193 50.0974L68.6518 50.3428L69.5583 50.3745L69.6692 50.5684L72.2186 50.2003V50.5328L71.0389 50.8139L71.4862 51.3364L69.7484 50.8653L69.7642 51.4908L71.1339 52.437L70.164 52.2271L69.2417 52.6784L70.1007 52.6982L70.0215 52.9397L70.4332 53.4662L69.3367 53.0624L69.2733 53.6919L68.541 54.0917L72.5986 54.1788L72.757 53.8304L71.5812 53.676L71.5971 53.4464L72.5353 53.4108L72.5986 53.0268L73.2677 52.9753L73.9842 52.1717L73.0301 51.9461L77.6104 49.8519L76.5455 49.7807L78.4852 49.2225L78.5842 48.8385L76.7988 48.597L76.9453 48.3516L68.8577 49.2225L68.5726 49.4679L67.8086 49.5392L68.0778 49.6263Z" fill="#C6FF00"/>
<path d="M71.6921 56.4314L71.9138 56.9183L73.3152 56.9539L71.6921 56.4314Z" fill="#C6FF00"/>
<path d="M52.9319 69.1152L53.4782 69.9822L53.308 69.3726L52.9319 69.1152Z" fill="#C6FF00"/>
<path d="M60.4574 52.73L61.4906 52.5914L60.7107 52.3816L60.0259 52.6983L60.4574 52.73Z" fill="#C6FF00"/>
<path d="M77.658 71.2805L78.6476 71.6487L77.658 71.2805Z" fill="#C6FF00"/>
<path d="M80.7933 70.5442L80.623 70.4136L79.574 72.3811L80.9635 72.3692L80.8803 72.6463L81.1891 72.5077L81.8542 72.67L81.6761 72.1119L81.5256 72.0208L81.5494 71.6368L80.9437 71.4864L80.7853 71.2528L80.5082 71.2647L80.7933 70.5442Z" fill="#C6FF00"/>
<path d="M57.9237 54.9826L58.4819 54.5828L57.9237 54.9826Z" fill="#C6FF00"/>
<path d="M56.0156 57.8445L56.5263 58.474L59.2301 56.6055L58.7867 56.17L55.984 55.9602L56.1423 56.3244L55.5723 57.512L56.0156 57.8445Z" fill="#C6FF00"/>
<path d="M61.2372 53.0626L61.0115 52.9082L60.105 53.2209L60.584 53.5693L61.2372 53.0626Z" fill="#C6FF00"/>
<path d="M59.915 53.1496L59.436 53.0466L59.915 53.1496Z" fill="#C6FF00"/>
<path d="M59.0877 54.4087L59.1352 54.6699L58.8343 55.0025H59.1985L58.5612 55.2281L60.4891 55.2439L59.9625 55.5606L59.9467 55.9248L62.5397 55.4023L62.6703 54.5987L62.2705 54.757L61.6014 53.9692L61.2214 54.4087L61.2531 54.6699L61.5223 54.9668L59.4677 54.1632L59.0877 54.4087Z" fill="#C6FF00"/>
<path d="M56.7321 54.7214L57.2745 54.476L57.5278 54.7927L58.276 53.9534L58.3869 54.3018L59.0084 54.0603V53.7634L59.2301 53.5536L58.9451 53.3794L58.7234 53.5338L58.2444 53.4823L56.6055 54.4958L56.7321 54.7214Z" fill="#C6FF00"/>
<path d="M40.5173 69.4319L40.7074 69.135L40.5173 69.4319Z" fill="#C6FF00"/>
<path d="M41.8673 68.6479L41.3922 68.9092L41.8673 68.6479Z" fill="#C6FF00"/>
<path d="M45.9012 66.5974L45.0421 67.215L45.1965 67.5198H45.3865L45.8537 67.1556L45.7191 66.9181L45.9724 66.7874L45.9012 66.5974Z" fill="#C6FF00"/>
<path d="M40.834 65.5681L40.5173 65.6908L41.0161 65.8531L41.0874 65.5839L40.834 65.5681Z" fill="#C6FF00"/>
<path d="M102.178 76.2209L101.865 76.3358L102.178 76.2209Z" fill="#C6FF00"/>
<path d="M110.258 78.1963L109.248 78.2082L109.775 78.3586L110.258 78.1963Z" fill="#C6FF00"/>
<path d="M112.946 78.3429L113.14 78.0935L113.132 78.0183L112.625 78.1846L112.459 78.4656L112.946 78.3429Z" fill="#C6FF00"/>
<path d="M95.4879 63.0267L96.0501 62.4884L95.6067 61.7243L95.0169 61.562L94.9733 61.7995L94.2251 61.7877L93.9876 61.9698L93.8451 61.8866L93.6788 62.0093L93.6313 62.1915L93.3977 62.3063L93.3027 61.9935L92.7564 61.5976L92.8079 61.8193L92.4437 61.9064L92.2616 62.1677L93.0415 62.2587L92.9742 62.4527L92.3804 62.6823L92.8989 62.6982L93.1325 62.9753L92.8317 63.2841L95.4879 63.0267Z" fill="#C6FF00"/>
<path d="M97.594 70.3778L98.6549 70.0017L98.6509 69.0279L98.928 68.8379L98.7261 68.3984L97.8711 68.5489L98.0413 68.7349L97.3683 68.9012L97.5742 69.4792L97.2377 70.0651L97.594 70.3778Z" fill="#C6FF00"/>
<path d="M98.6786 66.5696L98.4371 66.9179L98.6786 66.5696Z" fill="#C6FF00"/>
<path d="M100.492 65.6552L100.551 65.2197L100.492 65.6552Z" fill="#C6FF00"/>
<path d="M98.5876 67.0922L98.845 67.3257L98.7143 67.6187L98.9043 67.8245L98.6074 68.07L98.8648 67.971L99.0112 68.2085L99.2171 67.9037L99.1181 68.5727L99.6327 68.5173L99.8505 69.3803L99.3715 69.4595L99.2646 69.7049L99.4784 69.8554L99.134 70.1245L99.2725 70.2869L99.8584 70.3977L99.894 70.4967L99.4942 70.556L99.0389 71.1696L99.3042 71.0073L99.5694 71.0667L99.7278 70.8925L101.458 70.5323L101.303 70.4492L101.628 69.8395L101.074 69.6139L100.444 68.2283L99.8821 67.971L100.286 67.0288L99.6209 66.9932L99.4982 66.8665L99.8228 66.3083L99.6644 66.4667L99.2765 66.4707L98.8054 67.1793L98.5876 67.0922Z" fill="#C6FF00"/>
<path d="M105.092 68.5293L105.187 68.7035L105.531 67.9553L105.408 68.0464L105.286 67.9553L105.052 68.0662L105.191 68.4264L105.092 68.5293Z" fill="#C6FF00"/>
<path d="M107.665 66.8823L107.42 67.397L107.665 66.8823Z" fill="#C6FF00"/>
<path d="M108.789 66.7678L109.161 66.4986L108.932 66.4233L108.789 66.7678Z" fill="#C6FF00"/>
<path d="M109.09 66.2571L108.86 66.2848L109.09 66.2571Z" fill="#C6FF00"/>
<path d="M105.325 51.8235L105.12 52.2075L105.476 52.643L105.986 52.6786L106.37 52.1996L106.402 52.4371L106.711 52.4015L106.853 52.5321L105.86 52.9597L106.901 53.0626L105.915 53.3793L106.272 53.692L106.624 53.7356L106.45 53.8821L106.743 54.076L106.98 53.9969L107.823 52.4767L108.255 52.3382L108.508 52.8607L108.445 53.2368L108.789 53.316L108.987 53.5179L109.751 53.0547L109.201 52.9082L109.138 52.7499L108.663 52.4173L108.587 52.1917L107.673 51.8512L107.53 51.5464L107.237 51.685L107.332 51.4039L106.766 51.0833L106.632 51.4593L106.853 52.0531L106.208 51.3524L105.971 51.7364L105.701 51.5029L106.002 51.3802L104.953 51.4672V51.8592L105.325 51.8235Z" fill="#C6FF00"/>
<path d="M105.001 52.5322L105.254 52.7222L104.779 52.1838L105.001 52.5322Z" fill="#C6FF00"/>
<path d="M107.53 51.1187L107.491 51.2652L108.797 51.3087L108.049 51.5898L109.32 51.8669L110.681 51.091L109.438 50.8891L109.241 50.996L109.035 50.7426L108.971 51.1266L108.001 50.6912L108.025 50.8653L107.76 50.7862L107.768 51.0039L107.499 50.7941L107.348 50.9445L107.53 51.1187Z" fill="#C6FF00"/>
<path d="M168.886 63.5847L168.439 63.7351L169.543 63.8302L168.886 63.5847Z" fill="#C6FF00"/>
<path d="M151.381 74.5465L151.084 74.6851L150.882 75.453L151.254 75.3224L151.041 75.0334L151.88 75.1364L153.214 74.1031L152.525 74.3011L151.741 73.6716L151.508 73.7904L151.381 74.5465Z" fill="#C6FF00"/>
<path d="M149.196 78.1727L148.23 78.2677L147.676 78.7229V78.9525L148.97 78.6042L149.12 78.9525L149.544 78.9288L149.671 78.6635L150.498 78.5923L150.712 78.3587L151.052 78.3033L151.389 75.6628L150.934 75.8014L150.138 77.5116L149.904 77.3849L149.417 78.0935L149.196 78.1727Z" fill="#C6FF00"/>
<path d="M148.408 79.3483L148.717 79.2217L148.962 78.8733L148.261 78.9287L148.206 79.4552L148.408 79.3483Z" fill="#C6FF00"/>
<path d="M147.145 79.4435L147.347 79.3247L147.537 80.1996L147.941 79.5345L147.87 79.2812L147.624 79.0833L147.296 79.1624L147.145 79.4435Z" fill="#C6FF00"/>
<path d="M143.891 83.992L144.335 82.7688L143.697 83.3151L143.891 83.992Z" fill="#C6FF00"/>
<path d="M140.166 85.3972L140.356 84.9341L139.912 84.8984L139.56 85.4329L140.166 85.3972Z" fill="#C6FF00"/>
<path d="M143.559 86.4227L143.753 87.2619L144.877 87.8557L145.312 88.8652L145.585 88.5287L145.49 88.0497L144.845 87.3886L144.346 87.2936L144.164 86.9333L144.39 85.7378L144.323 85.5953L143.804 85.5518L143.729 86.4702L143.559 86.4227Z" fill="#C6FF00"/>
<path d="M144.334 88.2039L144.354 88.7383L144.548 88.6235L144.631 89.3677L145.015 88.7383L144.334 88.2039Z" fill="#C6FF00"/>
<path d="M145.609 89.2017L145.194 89.5857L144.877 89.5065L144.461 89.7717L144.323 90.1795L144.909 89.8905L145.205 90.5635L145.578 90.7733L145.566 90.2745L145.95 90.1003L145.863 89.2254L145.609 89.2017Z" fill="#C6FF00"/>
<path d="M143.103 88.9601L142.648 89.6093L143.392 88.5286L143.103 88.9601Z" fill="#C6FF00"/>
<path d="M145.257 89.0037L144.992 89.1937L145.257 89.0037Z" fill="#C6FF00"/>
<path d="M143.76 87.6101L144.101 88.0297L143.76 87.6101Z" fill="#C6FF00"/>
<path d="M155.051 94.8902L153.851 95.2069L154.437 95.4959L155.177 95.0881L155.284 94.7397L155.051 94.8902Z" fill="#C6FF00"/>
<path d="M153.491 95.6582L153.566 95.4048L149.948 93.564L149.045 94.2885L148.665 93.3107L147.846 93.1919L147.537 93.4492L147.933 93.8213L148.503 93.857L148.471 93.9718L147.953 94.0905L148.174 94.4389L150.118 95.1237L150.308 95.9274L149.968 96.2401L150.795 96.1966L151.559 96.6597L152.208 96.1015L154.5 97.206L153.491 95.6582Z" fill="#C6FF00"/>
<path d="M155.53 94.8468L155.411 94.4509L155.304 94.4747L155.53 94.8468Z" fill="#C6FF00"/>
<path d="M129.683 89.0869L129.715 90.5635L130.265 90.0053L129.683 89.0869Z" fill="#C6FF00"/>
<path d="M118.405 97.6733L118.278 97.7881L118.223 98.0692L117.831 98.4176L117.823 98.6274L116.604 99.2449L116.505 102.966L117.142 103.14L117.514 102.99L118.587 99.1143L118.797 99.0668L118.405 97.6733Z" fill="#C6FF00"/>
<path d="M119.961 87.9546L120.329 87.8794L119.961 87.9546Z" fill="#C6FF00"/>
<path d="M157.964 96.7312L158.328 96.9529L157.964 96.7312Z" fill="#C6FF00"/>
<path d="M158.336 96.3391L158.621 96.8735L158.336 96.3391Z" fill="#C6FF00"/>
<path d="M158.617 97.115L158.942 97.2892L158.617 97.115Z" fill="#C6FF00"/>
<path d="M156.832 95.6582L157.137 95.9314L156.832 95.6582Z" fill="#C6FF00"/>
<path d="M156.155 95.1714L156.599 95.7414L156.155 95.1714Z" fill="#C6FF00"/>
<path d="M158.028 96.3589L157.525 96.062L158.028 96.3589Z" fill="#C6FF00"/>
<path d="M153.095 110.309L152.481 110.119L153.127 111.513L153.404 111.157L153.61 111.2L153.697 110.171L153.095 110.309Z" fill="#C6FF00"/>
<path d="M155.68 104.383L154.524 102.04L154.318 102.056L153.978 101.208L153.151 100.678L152.474 98.7224L152.193 98.7303L151.741 97.23L150.93 100.033L149.22 98.9243L149.631 97.9544L149.552 97.7644L149.417 97.9188L149.283 97.709L149.01 97.8317L147.977 97.3685L148.111 97.6338L147.462 97.9267L147.062 98.572L147.078 98.9045L146.662 98.9679L146.045 98.4532L145.724 98.766L145.447 98.7739L145.142 99.4627L144.881 99.4389L144.936 99.7358L144.825 99.9338L144.683 99.6369L144.406 99.7952L144.39 100.258L141.484 101.969L141.445 101.723L141.421 103.607L141.203 103.41L141.31 103.687L141.053 103.477L141.963 106.533L141.753 106.854L142.114 107.368L147.581 105.888L148.646 106.295L148.669 106.541L148.986 106.873L149.073 107.309L150.031 106.549L149.655 107.412L150.189 107.265L150.142 107.701L150.403 107.685L150.898 108.73L151.987 109.185L152.442 108.896L152.592 108.956L152.656 109.078L152.751 108.999L153.111 109.332L153.61 108.845L154.358 108.694L155.68 104.383Z" fill="#E5F1FF"/>
<path d="M149.497 107.883L149.928 107.823L149.497 107.883Z" fill="#C6FF00"/>
<path d="M147.244 97.6772L147.707 97.5544L147.244 97.6772Z" fill="#C6FF00"/>
<path d="M160.795 113.244L160.93 113.069L160.795 113.244Z" fill="#C6FF00"/>
<path d="M163.095 110.23L162.81 110.325L162.457 110.171L160.446 112.673L161.028 112.946L161.685 112.78L163.142 110.555L163.095 110.23Z" fill="#C6FF00"/>
<path d="M164.393 108.825L164.041 108.789L163.669 108.243L163.661 108.461L162.802 107.396L163.372 108.409L163.316 108.991L163.023 109.351L163.502 109.822L163.4 110.448L163.724 110.499L164.235 109.482L164.472 109.395L164.742 108.809L164.393 108.825Z" fill="#C6FF00"/>
<path d="M164.86 99.8029L165.236 99.5852L164.86 99.8029Z" fill="#C6FF00"/>
<path d="M164.37 100.266L164.781 100.143L164.37 100.266Z" fill="#C6FF00"/>
<path d="M134.64 51.3603L134.394 51.7086L136.029 52.2906L136.429 51.5582L135.637 51.1267L134.64 51.3603Z" fill="#C6FF00"/>
<path d="M120.558 56.4434L120.463 56.6651L119.889 57.0372L120.008 57.3024L119.351 57.7933L119.711 58.0269L119.775 58.3159L119.913 58.1892L120.653 58.688H121.588L121.101 58.2129L120.974 57.3618L125.725 53.9534L121.303 55.2083L120.911 55.9881L120.602 56.1623L120.558 56.4434Z" fill="#C6FF00"/>
<path d="M136.282 52.9991L138.468 52.441L138.001 52.1045L137.482 52.2193L137.525 52.0095L137.312 51.7561L136.928 51.9065L136.282 52.9991Z" fill="#C6FF00"/>
<path d="M117.736 50.6596L118.342 50.533L117.154 50.6359L117.736 50.6596Z" fill="#C6FF00"/>
<path d="M133.8 50.2083L133.321 50.2755L133.8 50.2083Z" fill="#C6FF00"/>
<path d="M134.077 51.0318L133.737 51.3247L134.054 51.5583L135.467 50.9526L135.562 50.628L135.146 50.0342L134.224 50.4973L134.066 50.7665L134.077 51.0318Z" fill="#C6FF00"/>
<path d="M118.278 59.9548L118.947 59.8044L118.627 59.551L118.278 59.9548Z" fill="#C6FF00"/>
<path d="M129.608 57.0251L129.335 57.1518L129.608 57.0251Z" fill="#C6FF00"/>
<path d="M118.247 50.7545L117.906 50.9643L119.213 50.6358L119.232 50.3586L118.247 50.7545Z" fill="#C6FF00"/>
<path d="M120.23 50.9407L119.782 51.0001L120.23 50.9407Z" fill="#C6FF00"/>
<path d="M120.475 50.5091L121.726 50.3824L120.855 50.2637L120.475 50.5091Z" fill="#C6FF00"/>
<path d="M124.189 50.5091L124.367 50.1726L123.595 50.4735L124.189 50.5091Z" fill="#C6FF00"/>
<path d="M123.413 50.5686L123.254 50.3588L122.672 50.3469L122.395 50.7072L123.413 50.5686Z" fill="#C6FF00"/>
<path d="M140.867 55.9087L140.653 56.0948L141.302 55.976L140.867 55.9087Z" fill="#C6FF00"/>
<path d="M151.698 70.6352L151.603 73.2519L151.836 72.9985L152.145 73.2875L151.943 71.8347L152.481 71.7159L151.824 69.02L151.698 70.6352Z" fill="#C6FF00"/>
<path d="M154.053 55.711L154.912 55.5249L153.428 55.1172L153.182 55.3864L154.053 55.711Z" fill="#C6FF00"/>
<path d="M152.185 56.8866L151.717 56.3958L151.124 56.7006L152.185 56.8866Z" fill="#C6FF00"/>
<path d="M121.6 50.7903L121.121 51.1268L122.288 50.8932L121.6 50.7903Z" fill="#C6FF00"/>
<path d="M149.968 55.3942L150.257 55.6516L151.761 55.5605L151.729 55.1053L152.386 55.5368L152.644 55.2003L152.549 54.8598L150.573 54.4758L149.968 55.3942Z" fill="#C6FF00"/>
<path d="M126.235 56.9775L126.785 56.839L126.394 56.6648L126.235 56.9775Z" fill="#C6FF00"/>
<path d="M121.544 50.1609L122.201 49.9036L121.081 50.0223L121.544 50.1609Z" fill="#C6FF00"/>
<path d="M165.533 58.6285L166.286 58.5374L165.894 58.2009L165.023 58.6403L165.533 58.6285Z" fill="#C6FF00"/>
<path d="M168.281 62.2903L168.684 62.3813L168.597 62.2705L168.874 62.2586L169.104 61.9419L167.449 61.3006L167.612 61.4787L167.56 61.7321L167.331 61.6213L167.176 61.0077L162.054 59.1946L161.935 59.444L162.113 59.7607L162.022 60.1407L161.179 59.6894L161.614 59.4756L161.163 59.2698L160.739 59.6379L158.76 59.5944L158.685 59.9626L158.59 59.5825L158.123 59.3925L158.186 59.1431L157.604 58.5849L155.407 58.6404L155.312 58.4503L154.271 58.0782L154.235 57.9476L154.524 57.7971L153.368 57.5873L153.158 57.9713L152.774 57.9397L153.055 57.7457L152.652 57.6111L153.214 57.5082L151.333 57.1242L151.254 57.3023L150.605 57.6705L150.89 57.6744L150.795 57.8842L150.906 58.1534L150.276 58.1297L150.177 58.2168V58.3751L149.338 58.0822L148.923 58.2326L148.182 57.9911L147.759 58.6997L146.67 57.6942L147.074 57.7298L146.844 56.8906L145.265 56.3166L144.912 56.7085L144.908 57.0054L143.119 56.8668L143.27 56.6808L141.381 56.6293L141.334 56.8391L141.274 56.4551L140.308 56.2335L139.905 56.4908L140.122 56.5541L138.547 57.1004L138.638 56.8273L141.405 55.1329L141.247 55.0023L141.429 54.931L141.306 54.5589L141.072 54.5114L140.997 54.1908L138.82 54.2501L139.077 53.882L138.064 53.7672L138.507 53.5811L138.547 53.4307L137.87 53.2446L136.753 54.0245L136.825 54.1908L136.077 54.3451L136.31 54.5391L135.257 54.6302L135.36 54.4085L134.204 54.6302L134.422 54.7925L132.098 55.5724L132.193 55.7109L131.884 55.6911L132.241 55.9484L131.971 55.9643L132.241 56.2295L132.205 56.3958L130.135 56.5937L130.016 57.2627L130.712 57.9317L129.022 57.3379L128.793 57.5359L129.137 57.7219L128.452 57.8684L129.252 58.4741L129.2 58.5889L128.179 58.2999L128.088 57.1637L127.328 58.2207L127.736 58.7631L127.542 59.824L128.923 60.0338L129.058 60.3347L128.891 60.6237L129.307 60.9285L128.903 60.8929L128.737 60.6435L128.828 60.3584L128.42 59.9467L127.87 60.109L127.941 60.6553L127.047 61.6965L126.31 61.7321L125.847 61.4629L126.453 61.5856L127.423 60.3584L127.435 60.212L127.154 59.8755L127.229 58.6879L126.936 58.2405L127.205 57.2746L126.077 57.0767L125.008 58.6008L125.21 58.6522L125.024 59.4202L125.451 59.5944L125.606 59.9151L125.82 60.0378L125.598 60.4257L122.09 58.9333L122.193 59.2579L122.688 59.5548L122.85 59.8794L122.74 60.0972L122.308 60.3109V60.0774L122.09 59.8992L120.119 60.4257L120.372 59.9388L119.885 60.0972L119.818 60.3188L119.656 60.212L118.096 60.8453L118.017 61.261L117.407 61.3481L117.122 61.0512L117.11 60.8018L117.676 60.6791L117.463 60.299L116.56 60.109L116.73 60.5326L116.592 60.9681L116.841 61.4589L116.73 61.7598L116.576 61.7559L116.469 61.6371L116.109 61.5619L115.218 62.1082L115.388 62.7614L114.177 62.3695L113.959 62.5911L114.066 62.8168L114.414 62.9514L114.45 63.1889L113.896 63.1454L113.381 62.7139L113.334 61.9221L112.364 61.0789L114.612 61.7954L115.654 61.2927L115.622 60.8295L112.479 59.444L112.744 59.3529L112.035 59.2856L112.012 59.2698L111.584 59.2658L111.35 59.0679L112.012 58.8977L111.366 58.5018L110.998 58.7472L111.042 58.5255L110.895 58.3039L110.46 58.8343L110.464 58.5018L109.89 59.0085L110.187 58.4543L110.147 58.3039L109.949 58.478L109.696 58.4424L109.553 58.6522L109.304 58.7472L109.181 59.1233L109.046 58.87L109.312 58.5137L108.892 58.6126L108.916 58.8739L108.813 58.957L108.544 58.961L108.746 59.1589L108.385 59.0085L108.267 59.0837L108.354 59.341L108.029 59.2421L108.001 59.0125L107.752 59.0362L107.653 59.1471L107.621 59.3292L107.134 59.4756L106.948 59.7409L107.174 59.725L107.222 59.8636L107.19 59.9665L107.004 59.9903L106.845 59.8873L106.651 59.9903L106.735 59.6657L105.701 60.5207L106.873 60.1961L106.841 60.4059L106.739 60.4693L106.596 60.3941L105.765 61.7479L105.484 61.7994L105.436 62.4288L104.965 62.5515L105.163 62.797L104.336 63.5333L104.142 63.3631L104.098 63.5848L103.556 63.8579L103.75 64.0163L103.441 64.0202L102.788 64.5586L102.926 64.7566L102.819 65.4691L103.005 65.5325L103.259 65.4295L103.322 65.5523L103.14 65.7146L102.994 65.675L102.875 65.7898L102.847 66.0233L103.239 66.0154L103.002 66.2965L103.797 66.7438L104.712 66.1461L104.803 65.861L105.678 68.2561L105.963 68.2521L106.204 67.8918L106.501 67.8602L106.707 67.682L106.838 67.7375L107.035 67.3653L106.909 67.3891L106.964 66.5578L107.701 65.6671L107.36 65.2553L107.107 65.1801L107.463 63.8698L108.603 62.896L108.702 62.1953L108.936 61.9934L109.795 62.0923L109.921 62.3932L108.484 63.8817L108.5 65.2316L109.054 65.5047L110.883 65.2791L111.054 65.0416L110.883 65.2791L111.034 65.2197L111.259 65.477L111.572 65.5523L109.458 65.9956L109.24 66.2213L109.312 66.4707L109.525 66.6053L109.561 67.1595L109.272 67.3099L108.951 66.9022L108.607 67.0764L108.401 68.3194L108.461 68.3788L108.342 68.5925L107.93 68.6123L107.906 68.7034L107.712 68.8142L107.542 68.5727L106.097 69.1151L105.856 68.9369L105.887 68.7113L105.163 69.0597L104.423 68.3986L104.862 68.4302L104.735 68.1888L104.569 68.165L104.672 67.9196L104.902 67.785L104.731 67.5989L104.755 66.9893L104.284 67.2664L104.3 67.4406L104.094 67.3258L103.912 67.6108L104.264 69.0993L104.11 69.2576L103.572 69.2616L103.564 69.3447L103.112 69.3962L101.881 70.6115L101.802 70.6194L100.979 71.5062L100.527 71.3399L100.321 71.4903L100.369 71.9099L99.4902 71.8149L99.2645 72.001L99.3081 72.2464L100.1 72.5077L100.496 73.0223L100.369 74.5108L98.1086 74.305L97.8117 74.5108L97.7681 77.4007L98.5242 77.4284L98.9597 77.8836L99.0428 77.757L100.294 77.4482L100.975 76.6564L100.979 76.0824L102.146 74.9502L102.127 74.8473L102.424 74.4593L103.081 74.6137L104.142 74.016L106.497 76.0389L106.644 77.0127L107.031 76.4545L106.869 76.1458L107.483 75.9953L105.448 74.016L105.452 73.6201L105.61 73.3945L105.84 73.3628L108.294 76.6208L108.872 76.8425L108.492 76.8781L108.75 77.4838L109.086 77.658L109.023 77.2621L109.272 77.2502L109.106 77.0919L109.494 76.981L109.375 76.6643L109.078 76.6723L109.197 76.4625L108.904 76.023L109.09 75.9122L109.375 75.9597L109.446 75.6628L109.664 75.738L109.933 75.5915L110.385 75.8291L111.2 75.552L110.717 74.7206L111.445 73.5568V73.537L111.924 72.8442L112.32 72.7809L112.356 73.0382L112.942 73.1332L112.463 73.4222L112.823 73.6043L112.843 73.9051L113.955 73.5924L113.302 73.1649L114.866 72.6027L114.422 72.8877L114.561 73.1094L114.054 73.5963L115.654 74.7958L115.792 75.2036L115.709 75.3382L111.263 75.544L111.085 75.8489L110.333 75.9162L110.258 76.2091L110.404 76.3199L110.448 77.0998L111.263 77.7688L112.019 77.5273L112.506 77.844L113.765 77.5353L113.373 79.1108L113.563 79.2019L113.373 79.1108L112.993 80.0609L109.811 79.7601L109.803 79.7442L108.773 79.2969L107.97 79.7442L108.017 80.2589L104.581 78.8218L104.862 78.5447L104.89 77.5353L98.8686 78.0341L94.8347 84.2849L94.9654 87.6656L98.1165 91.0661L102.633 90.3852L103.164 91.1215L104.066 90.9751L104.217 91.1928L104.49 91.2561L104.442 92.519L104.379 92.5981L104.518 92.7961L104.177 93.2118L107.447 106.929L107.784 107.194L110.931 106.184L112.487 103.564L112.344 103.413L113.354 102.653L113.211 100.789L115.325 98.7658L114.648 95.3297L119.121 88.2713L118.888 88.1406L116.449 88.5642L116.263 88.3386L116.204 88.4138L116.263 88.3386L116.069 88.2475L116.279 88.0694L112.4 80.4726L113.001 81.4979L113.219 80.9398L116.319 87.7487L120.547 86.0742L120.685 85.7654L121.081 85.6942L122.253 83.9959L121.924 83.3704L121.322 83.125L121.033 82.2184L119.497 83.216L119.422 83.1962L119.236 82.3293L118.999 82.7133L118.975 82.7172L118.041 80.7418L118.072 80.6745L118.729 80.5083L119.303 81.4861L120.554 82.064L121.132 81.8898L121.41 82.4084L124.846 82.6895L125.784 83.695L126.176 83.7188L125.677 83.9048L126.441 84.5857L126.932 83.9761L128.626 89.7083L131.987 84.3878L133.46 83.7227L134.453 85.6427L134.398 86.2761L134.548 86.4938L134.897 86.4463L135.202 86.0504L137.878 92.42L136.132 89.1818L136.373 87.7487L136.674 87.6498L137.351 88.1209L137.45 88.4771L137.672 88.5167L137.688 88.7265L137.977 88.7542L138.167 88.9482L138.064 89.2887L138.246 89.447L139.742 87.9942L138.487 85.0924L139.192 84.2809L139.818 84.2294L139.992 84.7362L143.471 82.5549V82.0601L144.406 80.7101L143.923 80.5003L144.299 80.2984L143.76 79.8274L144.283 79.8828L143.368 78.5526L144.532 77.5709L143.974 77.1631L143.495 77.5036L143.273 77.1909L142.901 77.0523L142.897 76.5654L144.374 75.837L144.073 76.6723L145.162 76.2368L145.57 76.4585L145.36 76.8821L145.423 77.1196L145.605 77.2186L145.878 77.1631L146.076 77.4244L145.973 78.6912L147.157 78.1172L146.373 76.5575L147.715 74.8156L148.012 74.6375L148.424 74.8948L151.401 69.6456L150.771 69.024L150.462 69.0359L150.241 69.3209L150.039 69.3407L150.011 68.9488L149.79 69.2299L149.746 68.8261L149.338 68.8142L149.354 68.5252L152.228 66.0827L155.193 66.1619L155.015 66.4192L156.377 66.1856L156.234 66.0629L156.207 65.7304L157.188 64.6893L158.277 64.6338L158.103 64.998L158.301 65.1524L158.206 65.3147L159.235 64.7961L159.31 64.4121L159.928 64.1746L157.03 67.0249L156.982 70.8094L157.537 70.2275L157.62 69.8277L158.127 69.5901L158.095 69.2576L158.439 68.8974L158.871 68.8142L158.807 68.4263L159.061 67.9473L159.338 67.9314L159.168 67.6702L159.231 67.017L159.001 67.0368L158.962 66.629L159.532 65.7858L159.983 65.8373L160.343 65.4572L160.419 65.8017L161.65 65.5166L161.915 65.766L164.354 64.2063L165.209 64.2261L164.425 62.8801L164.12 62.8128L164.476 62.702L164.666 62.896L165.553 62.5991L165.616 61.9696L165.751 61.8429L165.941 61.8311L165.894 62.0409L166.02 62.3061L168.17 63.086L168.011 62.8722L168.186 62.9158L168.17 62.3338L168.281 62.2903Z" fill="#E5F1FF"/>
<path d="M151.337 56.1187L150.997 56.2691L151.337 56.1187Z" fill="#C6FF00"/>
<path d="M159.56 101.212L160.601 102.004L159.56 101.212Z" fill="#C6FF00"/>
<path d="M72.7372 82.7212L72.6066 82.836L72.8718 83.2556L72.7372 82.7212Z" fill="#C6FF00"/>
<path d="M78.6041 88.8888L78.8773 88.8531L78.8575 88.6235L78.5962 88.7027L78.6041 88.8888Z" fill="#C6FF00"/>
<path d="M146.543 92.4122L146.298 92.2617L146.488 93.1247L146.753 92.519L146.543 92.4122Z" fill="#C6FF00"/>
<path d="M138.523 94.6725L138.574 94.2648L138.721 94.1697L138.733 93.9243L138.436 93.6116L138.392 93.7858L138.531 93.9718L134.742 90.7375L138.012 95.2426L138.392 95.2544L138.523 94.6725Z" fill="#C6FF00"/>
<path d="M146.488 94.2411L147.434 94.4984L147.189 94.1025L146.488 94.2411Z" fill="#C6FF00"/>
<path d="M139.35 94.0906L139.156 94.1816L139.35 94.0906Z" fill="#C6FF00"/>
<path d="M139.548 92.6931L140.677 94.3122L141.152 94.2528L141.607 94.4864L142.129 94.3914L142.616 92.9148L143.159 92.5783L142.699 91.3075L143.305 90.8879L142.414 90.2625L141.682 91.1215L141.429 91.074L141.108 91.6242L140.589 91.7984L140.356 92.2972L139.782 92.1468L139.548 92.6931Z" fill="#C6FF00"/>
<path d="M135.36 92.3804L135.582 92.6931L135.36 92.3804Z" fill="#C6FF00"/>
<path d="M135.879 93.3782L136.049 93.5999L135.879 93.3782Z" fill="#C6FF00"/>
<path d="M141.536 96.3352L141.959 96.3471L140.974 95.9987L141.334 95.7296L138.563 95.3931L138.392 95.6266L138.658 95.6821L138.852 95.9037L141.536 96.3352Z" fill="#C6FF00"/>
<path d="M145.756 94.2646L146.191 94.3913L145.756 94.2646Z" fill="#C6FF00"/>
<path d="M144.897 97.0557L146.223 96.2639L145.067 96.6083L144.897 97.0557Z" fill="#C6FF00"/>
<path d="M143.147 93.9718L143.519 95.2425L143.658 94.1341L144.069 94.6962L144.398 94.7398L144.228 93.659L144.77 93.2275L144.038 93.4611L143.594 93.0771L145.407 92.3804L143.689 92.6337L143.147 93.9718Z" fill="#C6FF00"/>
<path d="M143.859 96.9765L143.198 96.7786L143.859 96.9765Z" fill="#C6FF00"/>
<path d="M142.668 96.2085L142.339 96.252L142.169 96.4619L143.198 96.3946L142.668 96.2085Z" fill="#C6FF00"/>
<path d="M144.802 96.347L144.92 96.2283L143.487 96.4064L144.802 96.347Z" fill="#C6FF00"/>
<path d="M106.224 76.9453L105.488 77.1037L106.268 77.6025L106.513 76.9691L106.224 76.9453Z" fill="#C6FF00"/>
<path d="M103.912 75.6985L104.193 76.5812L104.443 76.411L104.502 75.7737L104.173 75.6272L103.912 75.6985Z" fill="#C6FF00"/>
<g opacity="0.7">
<path opacity="0.7" d="M104.3 75.3935L104.375 74.6611L104.153 74.8709L104.3 75.3935Z" fill="white"/>
<path opacity="0.7" d="M74.4433 85.6266L76.1654 85.3812L74.4433 84.823L74.6848 85.3653L73.9841 85.5039L74.4433 85.6266Z" fill="white"/>
<path opacity="0.7" d="M74.0475 84.7718L71.6446 83.5684L70.3699 84.0553L70.9914 83.7425L74.0475 84.7718Z" fill="white"/>
<path opacity="0.7" d="M72.567 85.5396L73.2994 85.6781L72.567 85.5396Z" fill="white"/>
<path opacity="0.7" d="M78.9326 115.677L79.3483 115.222L78.9326 115.677Z" fill="white"/>
<path opacity="0.7" d="M79.4116 115.709L79.9975 115.416L79.4116 115.709Z" fill="white"/>
<path opacity="0.7" d="M67.8878 92.8513L68.1095 93.2511L67.8878 92.8513Z" fill="white"/>
<path opacity="0.7" d="M81.5256 59.6656L82.1748 59.5033L81.8858 59.2103L81.1891 59.0718L81.1337 59.4083L81.5256 59.6656Z" fill="white"/>
<path opacity="0.7" d="M68.446 53.3079L68.0936 53.6048L68.446 53.3079Z" fill="white"/>
<path opacity="0.7" d="M67.2505 53.1692L66.2014 53.379L67.2505 53.1692Z" fill="white"/>
<path opacity="0.7" d="M66.1538 51.3523L66.5022 51.7719L67.5552 51.8075L66.9178 52.1401L68.7784 52.8012L70.1165 51.8075L69.4158 51.3721L69.2574 51.0039L66.9178 49.9905L66.9495 50.1647L66.4072 50.517L66.4705 50.9524L66.1538 51.3523Z" fill="white"/>
<path opacity="0.7" d="M66.902 55.0537L65.9955 55.4377L67.0762 55.7148L66.902 55.0537Z" fill="white"/>
<path opacity="0.7" d="M64.6257 53.9531L64.7366 54.4084L64.3249 54.2857L64.1942 54.5628L63.9726 54.5826L63.3827 53.9888L63.3352 54.4757L63.9092 54.9151L64.7683 54.8953L64.6891 55.3862L65.4373 55.4179L65.7381 55.1051L65.2948 54.1115L64.6257 53.9531Z" fill="white"/>
<path opacity="0.7" d="M65.2948 51.3722L64.8158 51.1782L65.2948 51.3722Z" fill="white"/>
<path opacity="0.7" d="M72.0879 64.6852L72.1354 64.2498L72.0879 64.6852Z" fill="white"/>
<path opacity="0.7" d="M65.9638 53.0822L66.6011 52.9594L66.6288 52.6625L65.5006 52.2429L65.9638 53.0822Z" fill="white"/>
<path opacity="0.7" d="M65.0374 58.1572L65.6748 57.9672L66.1538 57.0052L65.9321 56.9537L65.8846 57.1121L65.4373 56.9181L65.9004 56.5024L65.6431 56.1343L64.3565 56.641L64.7524 56.9894L64.0359 56.9181L65.0374 58.1572Z" fill="white"/>
<path opacity="0.7" d="M63.1135 52.1916L63.5925 52.437L63.0185 52.54L65.1047 52.9596L64.9583 52.5241L62.876 51.772L63.1135 52.1916Z" fill="white"/>
<path opacity="0.7" d="M71.8346 63.3431L70.1957 62.0842L69.7959 62.3455L69.4 63.4104L69.8474 63.3946L70.0374 63.7073L71.8346 63.3431Z" fill="white"/>
<path opacity="0.7" d="M70.6906 64.3012L71.2923 63.8657L70.6906 64.3012Z" fill="white"/>
<path opacity="0.7" d="M73.6793 60.968L73.7268 60.4455L73.2676 60.3228L72.9509 60.9324L73.6793 60.968Z" fill="white"/>
<path opacity="0.7" d="M63.4975 55.3309L63.161 55.1409L63.4975 55.3309Z" fill="white"/>
<path opacity="0.7" d="M67.6344 55.3664L71.8346 55.6989L72.1513 55.0695L68.5251 54.7726L68.636 54.4084L66.0114 53.9888L67.6186 54.7568L67.6344 55.3664Z" fill="white"/>
<path opacity="0.7" d="M63.2245 53.6561L62.6821 53.1851L63.2245 53.6561Z" fill="white"/>
<path d="M68.0778 49.6263L68.2876 49.6777L68.4301 49.8361L68.3193 50.0974L68.6518 50.3428L69.5583 50.3745L69.6692 50.5684L72.2186 50.2003V50.5328L71.0389 50.8139L71.4862 51.3364L69.7484 50.8653L69.7642 51.4908L71.1339 52.437L70.164 52.2271L69.2417 52.6784L70.1007 52.6982L70.0215 52.9397L70.4332 53.4662L69.3367 53.0624L69.2733 53.6919L68.541 54.0917L72.5986 54.1788L72.757 53.8304L71.5812 53.676L71.5971 53.4464L72.5353 53.4108L72.5986 53.0268L73.2677 52.9753L73.9842 52.1717L73.0301 51.9461L77.6104 49.8519L76.5455 49.7807L78.4852 49.2225L78.5842 48.8385L76.7988 48.597L76.9453 48.3516L68.8577 49.2225L68.5726 49.4679L67.8086 49.5392L68.0778 49.6263Z" fill="white"/>
<path opacity="0.7" d="M71.6921 56.4312L71.9138 56.9181L73.3152 56.9537L71.6921 56.4312Z" fill="white"/>
<path opacity="0.7" d="M52.9318 69.115L53.4781 69.9819L53.3078 69.3723L52.9318 69.115Z" fill="white"/>
<path opacity="0.7" d="M60.4573 52.73L61.4905 52.5914L60.7106 52.3816L60.0258 52.6983L60.4573 52.73Z" fill="white"/>
<path opacity="0.7" d="M77.6578 71.2805L78.6475 71.6487L77.6578 71.2805Z" fill="white"/>
<path opacity="0.7" d="M80.7931 70.5442L80.6229 70.4136L79.5739 72.3811L80.9634 72.3692L80.8802 72.6463L81.189 72.5077L81.8541 72.67L81.6759 72.1119L81.5255 72.0208L81.5493 71.6368L80.9436 71.4864L80.7852 71.2528L80.5081 71.2647L80.7931 70.5442Z" fill="white"/>
<path opacity="0.7" d="M57.9237 54.9823L58.4819 54.5825L57.9237 54.9823Z" fill="white"/>
<path opacity="0.7" d="M56.0156 57.8445L56.5263 58.474L59.2301 56.6055L58.7867 56.17L55.984 55.9602L56.1423 56.3244L55.5723 57.512L56.0156 57.8445Z" fill="white"/>
<path opacity="0.7" d="M61.2372 53.0626L61.0115 52.9082L60.105 53.2209L60.584 53.5693L61.2372 53.0626Z" fill="white"/>
<path opacity="0.7" d="M59.9149 53.1496L59.4359 53.0466L59.9149 53.1496Z" fill="white"/>
<path opacity="0.7" d="M59.0875 54.4084L59.1351 54.6697L58.8342 55.0022H59.1984L58.561 55.2279L60.4889 55.2437L59.9624 55.5604L59.9466 55.9246L62.5395 55.402L62.6702 54.5984L62.2703 54.7568L61.6013 53.969L61.2213 54.4084L61.253 54.6697L61.5222 54.9666L59.4676 54.163L59.0875 54.4084Z" fill="white"/>
<path opacity="0.7" d="M56.7321 54.7212L57.2745 54.4757L57.5278 54.7924L58.276 53.9532L58.3869 54.3015L59.0084 54.06V53.7631L59.2301 53.5533L58.9451 53.3792L58.7234 53.5335L58.2444 53.4821L56.6055 54.4955L56.7321 54.7212Z" fill="white"/>
<path opacity="0.7" d="M40.5172 69.4317L40.7072 69.1348L40.5172 69.4317Z" fill="white"/>
<path opacity="0.7" d="M41.8671 68.6477L41.3921 68.909L41.8671 68.6477Z" fill="white"/>
<path opacity="0.7" d="M45.9012 66.5972L45.0421 67.2147L45.1965 67.5195H45.3865L45.8537 67.1553L45.7191 66.9178L45.9724 66.7872L45.9012 66.5972Z" fill="white"/>
<path opacity="0.7" d="M40.8339 65.5681L40.5172 65.6908L41.016 65.8531L41.0873 65.5839L40.8339 65.5681Z" fill="white"/>
<path opacity="0.7" d="M102.178 76.2207L101.865 76.3355L102.178 76.2207Z" fill="white"/>
<path opacity="0.7" d="M110.258 78.1963L109.248 78.2082L109.775 78.3586L110.258 78.1963Z" fill="white"/>
<path opacity="0.7" d="M112.946 78.3427L113.14 78.0933L113.132 78.0181L112.625 78.1843L112.459 78.4654L112.946 78.3427Z" fill="white"/>
<path opacity="0.7" d="M95.4879 63.0265L96.0501 62.4881L95.6067 61.7241L95.0169 61.5618L94.9733 61.7993L94.2251 61.7874L93.9876 61.9695L93.8451 61.8864L93.6788 62.0091L93.6313 62.1912L93.3977 62.306L93.3027 61.9933L92.7564 61.5974L92.8079 61.8191L92.4437 61.9062L92.2616 62.1674L93.0415 62.2585L92.9742 62.4525L92.3804 62.6821L92.8989 62.6979L93.1325 62.975L92.8317 63.2838L95.4879 63.0265Z" fill="white"/>
<path opacity="0.7" d="M97.594 70.3778L98.6549 70.0017L98.6509 69.0279L98.928 68.8379L98.7261 68.3984L97.8711 68.5489L98.0413 68.7349L97.3683 68.9012L97.5742 69.4792L97.2377 70.0651L97.594 70.3778Z" fill="white"/>
<path opacity="0.7" d="M98.6786 66.5696L98.4371 66.9179L98.6786 66.5696Z" fill="white"/>
<path opacity="0.7" d="M100.492 65.6549L100.551 65.2195L100.492 65.6549Z" fill="white"/>
<path opacity="0.7" d="M98.5875 67.0919L98.8448 67.3255L98.7142 67.6184L98.9042 67.8243L98.6073 68.0697L98.8646 67.9708L99.0111 68.2083L99.217 67.9035L99.118 68.5725L99.6326 68.5171L99.8504 69.3801L99.3714 69.4592L99.2645 69.7047L99.4782 69.8551L99.1338 70.1243L99.2724 70.2866L99.8583 70.3975L99.8939 70.4964L99.4941 70.5558L99.0388 71.1694L99.3041 71.0071L99.5693 71.0665L99.7276 70.8923L101.458 70.532L101.303 70.4489L101.628 69.8393L101.074 69.6136L100.444 68.2281L99.882 67.9708L100.286 67.0286L99.6207 66.993L99.498 66.8663L99.8226 66.3081L99.6643 66.4665L99.2763 66.4704L98.8053 67.179L98.5875 67.0919Z" fill="white"/>
<path opacity="0.7" d="M105.092 68.5291L105.187 68.7033L105.531 67.9551L105.408 68.0461L105.286 67.9551L105.052 68.0659L105.191 68.4262L105.092 68.5291Z" fill="white"/>
<path opacity="0.7" d="M107.665 66.8823L107.419 67.397L107.665 66.8823Z" fill="white"/>
<path opacity="0.7" d="M108.789 66.7675L109.161 66.4983L108.932 66.4231L108.789 66.7675Z" fill="white"/>
<path opacity="0.7" d="M109.09 66.2568L108.86 66.2845L109.09 66.2568Z" fill="white"/>
<path opacity="0.7" d="M105.325 51.8233L105.119 52.2073L105.476 52.6427L105.986 52.6784L106.37 52.1994L106.402 52.4369L106.711 52.4013L106.853 52.5319L105.86 52.9594L106.901 53.0624L105.915 53.3791L106.271 53.6918L106.624 53.7353L106.45 53.8818L106.742 54.0758L106.98 53.9966L107.823 52.4765L108.255 52.3379L108.508 52.8605L108.445 53.2365L108.789 53.3157L108.987 53.5176L109.751 53.0544L109.201 52.908L109.137 52.7496L108.662 52.4171L108.587 52.1914L107.673 51.851L107.53 51.5462L107.237 51.6847L107.332 51.4037L106.766 51.083L106.632 51.4591L106.853 52.0529L106.208 51.3522L105.971 51.7362L105.701 51.5026L106.002 51.3799L104.953 51.467V51.8589L105.325 51.8233Z" fill="white"/>
<path opacity="0.7" d="M105.001 52.532L105.254 52.722L104.779 52.1836L105.001 52.532Z" fill="white"/>
<path opacity="0.7" d="M107.53 51.1187L107.491 51.2652L108.797 51.3087L108.049 51.5898L109.32 51.8669L110.681 51.091L109.438 50.8891L109.24 50.996L109.035 50.7426L108.971 51.1266L108.001 50.6912L108.025 50.8653L107.76 50.7862L107.768 51.0039L107.499 50.7941L107.348 50.9445L107.53 51.1187Z" fill="white"/>
<path opacity="0.7" d="M168.886 63.5847L168.439 63.7351L169.543 63.8302L168.886 63.5847Z" fill="white"/>
<path opacity="0.7" d="M151.381 74.5463L151.084 74.6848L150.882 75.4528L151.254 75.3222L151.04 75.0332L151.88 75.1361L153.214 74.1029L152.525 74.3008L151.741 73.6714L151.508 73.7901L151.381 74.5463Z" fill="white"/>
<path opacity="0.7" d="M149.196 78.1724L148.23 78.2674L147.676 78.7227V78.9523L148.97 78.6039L149.12 78.9523L149.544 78.9285L149.671 78.6633L150.498 78.592L150.712 78.3585L151.052 78.3031L151.389 75.6626L150.934 75.8011L150.138 77.5113L149.904 77.3846L149.417 78.0932L149.196 78.1724Z" fill="white"/>
<path opacity="0.7" d="M148.408 79.3481L148.717 79.2214L148.962 78.873L148.261 78.9285L148.206 79.455L148.408 79.3481Z" fill="white"/>
<path opacity="0.7" d="M147.145 79.4432L147.347 79.3245L147.537 80.1994L147.941 79.5343L147.87 79.2809L147.624 79.083L147.296 79.1622L147.145 79.4432Z" fill="white"/>
<path opacity="0.7" d="M143.891 83.9918L144.334 82.7686L143.697 83.3149L143.891 83.9918Z" fill="white"/>
<path opacity="0.7" d="M140.166 85.397L140.356 84.9338L139.912 84.8982L139.56 85.4326L140.166 85.397Z" fill="white"/>
<path opacity="0.7" d="M143.558 86.4224L143.752 87.2617L144.877 87.8555L145.312 88.865L145.585 88.5285L145.49 88.0495L144.845 87.3884L144.346 87.2933L144.164 86.9331L144.39 85.7376L144.322 85.5951L143.804 85.5515L143.729 86.4699L143.558 86.4224Z" fill="white"/>
<path opacity="0.7" d="M144.334 88.2039L144.354 88.7383L144.548 88.6235L144.631 89.3677L145.015 88.7383L144.334 88.2039Z" fill="white"/>
<path opacity="0.7" d="M145.609 89.2014L145.193 89.5854L144.877 89.5062L144.461 89.7715L144.323 90.1792L144.908 89.8902L145.205 90.5632L145.577 90.773L145.566 90.2742L145.95 90.1L145.862 89.2252L145.609 89.2014Z" fill="white"/>
<path opacity="0.7" d="M143.103 88.9601L142.648 89.6093L143.392 88.5286L143.103 88.9601Z" fill="white"/>
<path opacity="0.7" d="M145.257 89.0034L144.992 89.1934L145.257 89.0034Z" fill="white"/>
<path opacity="0.7" d="M143.76 87.6101L144.101 88.0297L143.76 87.6101Z" fill="white"/>
<path opacity="0.7" d="M155.051 94.8899L153.851 95.2066L154.437 95.4956L155.177 95.0879L155.284 94.7395L155.051 94.8899Z" fill="white"/>
<path opacity="0.7" d="M153.491 95.6582L153.566 95.4048L149.948 93.564L149.045 94.2885L148.665 93.3107L147.846 93.1919L147.537 93.4492L147.933 93.8213L148.503 93.857L148.471 93.9718L147.953 94.0905L148.174 94.4389L150.118 95.1237L150.308 95.9274L149.968 96.2401L150.795 96.1966L151.559 96.6597L152.208 96.1015L154.5 97.206L153.491 95.6582Z" fill="white"/>
<path opacity="0.7" d="M155.53 94.8466L155.411 94.4507L155.304 94.4744L155.53 94.8466Z" fill="white"/>
<path opacity="0.7" d="M129.683 89.0867L129.715 90.5633L130.265 90.0051L129.683 89.0867Z" fill="white"/>
<path opacity="0.7" d="M118.405 97.6731L118.278 97.7879L118.223 98.069L117.831 98.4173L117.823 98.6271L116.604 99.2447L116.505 102.966L117.142 103.14L117.514 102.99L118.587 99.1141L118.797 99.0666L118.405 97.6731Z" fill="white"/>
<path opacity="0.7" d="M119.961 87.9544L120.329 87.8792L119.961 87.9544Z" fill="white"/>
<path opacity="0.7" d="M157.964 96.731L158.328 96.9526L157.964 96.731Z" fill="white"/>
<path opacity="0.7" d="M158.336 96.3391L158.621 96.8735L158.336 96.3391Z" fill="white"/>
<path opacity="0.7" d="M158.617 97.115L158.942 97.2892L158.617 97.115Z" fill="white"/>
<path opacity="0.7" d="M156.832 95.658L157.137 95.9311L156.832 95.658Z" fill="white"/>
<path opacity="0.7" d="M156.155 95.1711L156.598 95.7412L156.155 95.1711Z" fill="white"/>
<path opacity="0.7" d="M158.028 96.3589L157.525 96.062L158.028 96.3589Z" fill="white"/>
<path opacity="0.7" d="M153.095 110.309L152.481 110.119L153.127 111.513L153.404 111.157L153.61 111.2L153.697 110.171L153.095 110.309Z" fill="white"/>
<path opacity="0.7" d="M149.497 107.883L149.928 107.823L149.497 107.883Z" fill="white"/>
<path opacity="0.7" d="M147.244 97.6769L147.707 97.5542L147.244 97.6769Z" fill="white"/>
<path opacity="0.7" d="M160.795 113.244L160.93 113.069L160.795 113.244Z" fill="white"/>
<path opacity="0.7" d="M163.095 110.23L162.81 110.325L162.457 110.171L160.446 112.673L161.028 112.946L161.685 112.779L163.142 110.555L163.095 110.23Z" fill="white"/>
<path opacity="0.7" d="M164.393 108.825L164.041 108.789L163.669 108.243L163.661 108.461L162.802 107.396L163.372 108.409L163.316 108.991L163.023 109.351L163.502 109.822L163.4 110.448L163.724 110.499L164.235 109.482L164.472 109.395L164.742 108.809L164.393 108.825Z" fill="white"/>
<path opacity="0.7" d="M164.86 99.8029L165.236 99.5852L164.86 99.8029Z" fill="white"/>
<path opacity="0.7" d="M164.369 100.266L164.781 100.143L164.369 100.266Z" fill="white"/>
<path opacity="0.7" d="M134.639 51.3603L134.394 51.7086L136.029 52.2906L136.429 51.5582L135.637 51.1267L134.639 51.3603Z" fill="white"/>
<path opacity="0.7" d="M120.558 56.4432L120.463 56.6648L119.889 57.037L120.008 57.3022L119.351 57.7931L119.711 58.0266L119.775 58.3156L119.913 58.1889L120.653 58.6877H121.588L121.101 58.2127L120.974 57.3616L125.724 53.9531L121.303 55.208L120.911 55.9879L120.602 56.1621L120.558 56.4432Z" fill="white"/>
<path opacity="0.7" d="M136.282 52.9991L138.468 52.441L138 52.1045L137.482 52.2193L137.525 52.0095L137.312 51.7561L136.928 51.9065L136.282 52.9991Z" fill="white"/>
<path opacity="0.7" d="M117.736 50.6594L118.342 50.5327L117.154 50.6356L117.736 50.6594Z" fill="white"/>
<path opacity="0.7" d="M133.8 50.2083L133.321 50.2755L133.8 50.2083Z" fill="white"/>
<path opacity="0.7" d="M134.077 51.0318L133.737 51.3247L134.054 51.5583L135.467 50.9526L135.562 50.628L135.146 50.0342L134.224 50.4973L134.066 50.7665L134.077 51.0318Z" fill="white"/>
<path opacity="0.7" d="M118.278 59.9546L118.947 59.8041L118.627 59.5508L118.278 59.9546Z" fill="white"/>
<path opacity="0.7" d="M129.608 57.0251L129.335 57.1518L129.608 57.0251Z" fill="white"/>
<path opacity="0.7" d="M118.246 50.7545L117.906 50.9643L119.212 50.6358L119.232 50.3586L118.246 50.7545Z" fill="white"/>
<path opacity="0.7" d="M120.23 50.9404L119.782 50.9998L120.23 50.9404Z" fill="white"/>
<path opacity="0.7" d="M120.475 50.5091L121.726 50.3824L120.855 50.2637L120.475 50.5091Z" fill="white"/>
<path opacity="0.7" d="M124.189 50.5091L124.367 50.1726L123.595 50.4735L124.189 50.5091Z" fill="white"/>
<path opacity="0.7" d="M123.413 50.5684L123.254 50.3586L122.672 50.3467L122.395 50.7069L123.413 50.5684Z" fill="white"/>
<path opacity="0.7" d="M140.867 55.9087L140.653 56.0948L141.302 55.976L140.867 55.9087Z" fill="white"/>
<path opacity="0.7" d="M151.698 70.6352L151.603 73.2519L151.836 72.9985L152.145 73.2875L151.943 71.8347L152.481 71.7159L151.824 69.02L151.698 70.6352Z" fill="white"/>
<path opacity="0.7" d="M154.053 55.7107L154.912 55.5247L153.428 55.1169L153.182 55.3861L154.053 55.7107Z" fill="white"/>
<path opacity="0.7" d="M152.184 56.8864L151.717 56.3955L151.124 56.7003L152.184 56.8864Z" fill="white"/>
<path opacity="0.7" d="M121.599 50.7903L121.12 51.1268L122.288 50.8932L121.599 50.7903Z" fill="white"/>
<path opacity="0.7" d="M149.968 55.394L150.257 55.6513L151.761 55.5603L151.729 55.105L152.386 55.5365L152.644 55.2L152.549 54.8596L150.573 54.4756L149.968 55.394Z" fill="white"/>
<path opacity="0.7" d="M126.235 56.9775L126.785 56.839L126.393 56.6648L126.235 56.9775Z" fill="white"/>
<path opacity="0.7" d="M121.544 50.1606L122.201 49.9033L121.081 50.0221L121.544 50.1606Z" fill="white"/>
<path opacity="0.7" d="M165.533 58.6285L166.285 58.5374L165.894 58.2009L165.023 58.6403L165.533 58.6285Z" fill="white"/>
<path opacity="0.7" d="M151.337 56.1187L150.997 56.2691L151.337 56.1187Z" fill="white"/>
<path opacity="0.7" d="M159.56 101.212L160.601 102.004L159.56 101.212Z" fill="white"/>
<path opacity="0.7" d="M72.7372 82.7209L72.6066 82.8357L72.8718 83.2554L72.7372 82.7209Z" fill="white"/>
<path opacity="0.7" d="M78.604 88.8888L78.8771 88.8531L78.8573 88.6235L78.5961 88.7027L78.604 88.8888Z" fill="white"/>
<path opacity="0.7" d="M146.543 92.4119L146.298 92.2615L146.488 93.1245L146.753 92.5188L146.543 92.4119Z" fill="white"/>
<path opacity="0.7" d="M138.523 94.6723L138.574 94.2645L138.721 94.1695L138.733 93.9241L138.436 93.6113L138.392 93.7855L138.531 93.9716L134.742 90.7373L138.012 95.2423L138.392 95.2542L138.523 94.6723Z" fill="white"/>
<path opacity="0.7" d="M146.488 94.2408L147.434 94.4982L147.189 94.1023L146.488 94.2408Z" fill="white"/>
<path opacity="0.7" d="M139.35 94.0903L139.156 94.1814L139.35 94.0903Z" fill="white"/>
<path opacity="0.7" d="M139.548 92.6931L140.677 94.3122L141.152 94.2528L141.607 94.4864L142.129 94.3914L142.616 92.9148L143.159 92.5783L142.699 91.3075L143.305 90.8879L142.414 90.2625L141.682 91.1215L141.429 91.074L141.108 91.6242L140.589 91.7984L140.356 92.2972L139.782 92.1468L139.548 92.6931Z" fill="white"/>
<path opacity="0.7" d="M135.36 92.3804L135.582 92.6931L135.36 92.3804Z" fill="white"/>
<path opacity="0.7" d="M135.879 93.3779L136.049 93.5996L135.879 93.3779Z" fill="white"/>
<path opacity="0.7" d="M141.536 96.335L141.959 96.3469L140.973 95.9985L141.334 95.7293L138.563 95.3928L138.392 95.6264L138.658 95.6818L138.852 95.9035L141.536 96.335Z" fill="white"/>
<path opacity="0.7" d="M145.756 94.2646L146.191 94.3913L145.756 94.2646Z" fill="white"/>
<path opacity="0.7" d="M144.896 97.0554L146.223 96.2637L145.067 96.6081L144.896 97.0554Z" fill="white"/>
<path opacity="0.7" d="M143.147 93.9718L143.519 95.2425L143.657 94.1341L144.069 94.6962L144.398 94.7398L144.227 93.659L144.77 93.2275L144.037 93.4611L143.594 93.0771L145.407 92.3804L143.689 92.6337L143.147 93.9718Z" fill="white"/>
<path opacity="0.7" d="M143.859 96.9765L143.198 96.7786L143.859 96.9765Z" fill="white"/>
<path opacity="0.7" d="M142.668 96.2083L142.339 96.2518L142.169 96.4616L143.198 96.3943L142.668 96.2083Z" fill="white"/>
<path opacity="0.7" d="M144.801 96.347L144.92 96.2283L143.487 96.4064L144.801 96.347Z" fill="white"/>
<path opacity="0.7" d="M106.224 76.9453L105.488 77.1037L106.267 77.6025L106.513 76.9691L106.224 76.9453Z" fill="white"/>
<path opacity="0.7" d="M103.912 75.6982L104.193 76.581L104.442 76.4108L104.502 75.7734L104.173 75.627L103.912 75.6982Z" fill="white"/>
</g>
<path d="M41.8553 110.828H167.77" stroke="#263238" stroke-width="0.197935" stroke-miterlimit="10"/>
<path d="M41.8553 110.828V109.858" stroke="#263238" stroke-width="0.197935" stroke-miterlimit="10"/>
<path d="M57.5952 110.828V109.858" stroke="#263238" stroke-width="0.197935" stroke-miterlimit="10"/>
<path d="M73.335 110.828V109.858" stroke="#263238" stroke-width="0.197935" stroke-miterlimit="10"/>
<path d="M89.0748 110.828V109.858" stroke="#263238" stroke-width="0.197935" stroke-miterlimit="10"/>
<path d="M104.811 110.828V109.858" stroke="#263238" stroke-width="0.197935" stroke-miterlimit="10"/>
<path d="M120.551 110.828V109.858" stroke="#263238" stroke-width="0.197935" stroke-miterlimit="10"/>
<path d="M136.29 110.828V109.858" stroke="#263238" stroke-width="0.197935" stroke-miterlimit="10"/>
<path d="M152.03 110.828V109.858" stroke="#263238" stroke-width="0.197935" stroke-miterlimit="10"/>
<path d="M167.77 110.828V109.858" stroke="#263238" stroke-width="0.197935" stroke-miterlimit="10"/>
<path d="M65.465 80.3738L49.7252 85.243" stroke="#263238" stroke-width="0.791742" stroke-miterlimit="10" stroke-linecap="round"/>
<path d="M81.2049 69.6653L65.4651 80.3736" stroke="#263238" stroke-width="0.791742" stroke-miterlimit="10" stroke-linecap="round"/>
<path d="M96.9408 55.0657L81.205 69.6654" stroke="#263238" stroke-width="0.791742" stroke-miterlimit="10" stroke-linecap="round"/>
<path d="M112.681 53.605L96.9408 55.0657" stroke="#263238" stroke-width="0.791742" stroke-miterlimit="10" stroke-linecap="round"/>
<path d="M128.42 64.3133L112.681 53.605" stroke="#263238" stroke-width="0.791742" stroke-miterlimit="10" stroke-linecap="round"/>
<path d="M144.16 74.5346L128.42 64.3132" stroke="#263238" stroke-width="0.791742" stroke-miterlimit="10" stroke-linecap="round"/>
<path d="M159.9 53.1179L144.16 74.5345" stroke="#263238" stroke-width="0.791742" stroke-miterlimit="10" stroke-linecap="round"/>
<path d="M49.7252 83.2358C50.2575 83.2358 50.768 83.4473 51.1444 83.8237C51.5208 84.2001 51.7323 84.7106 51.7323 85.2429C51.7323 85.7752 51.5208 86.2857 51.1444 86.6621C50.768 87.0385 50.2575 87.25 49.7252 87.25C49.1929 87.25 48.6824 87.0385 48.306 86.6621C47.9296 86.2857 47.7181 85.7752 47.7181 85.2429C47.7181 84.7106 47.9296 84.2001 48.306 83.8237C48.6824 83.4473 49.1929 83.2358 49.7252 83.2358Z" fill="#C6FF00" stroke="#263238" stroke-width="0.395871" stroke-miterlimit="10"/>
<path d="M65.4651 78.3823C65.9974 78.3823 66.508 78.5938 66.8844 78.9702C67.2607 79.3466 67.4722 79.8571 67.4722 80.3894C67.4722 80.9217 67.2607 81.4322 66.8844 81.8086C66.508 82.185 65.9974 82.3965 65.4651 82.3965C65.1992 82.3965 64.9359 82.3437 64.6906 82.2411C64.4453 82.1385 64.2228 81.9882 64.036 81.7988C63.8493 81.6095 63.702 81.385 63.6028 81.1383C63.5036 80.8915 63.4544 80.6276 63.4581 80.3617C63.4654 79.8342 63.68 79.3308 64.0556 78.9603C64.4313 78.5899 64.9376 78.3823 65.4651 78.3823Z" fill="#25CCB3" stroke="#263238" stroke-width="0.395871" stroke-miterlimit="10"/>
<path d="M81.2049 67.6624C81.7373 67.6624 82.2478 67.8738 82.6241 68.2502C83.0005 68.6266 83.212 69.1371 83.212 69.6694C83.212 70.2017 83.0005 70.7122 82.6241 71.0886C82.2478 71.465 81.7373 71.6765 81.2049 71.6765C80.6726 71.6765 80.1621 71.465 79.7857 71.0886C79.4093 70.7122 79.1979 70.2017 79.1979 69.6694C79.1979 69.1371 79.4093 68.6266 79.7857 68.2502C80.1621 67.8738 80.6726 67.6624 81.2049 67.6624Z" fill="#25CCB3" stroke="#263238" stroke-width="0.395871" stroke-miterlimit="10"/>
<path d="M96.9408 53.0467C97.207 53.0441 97.4711 53.0945 97.7177 53.1949C97.9643 53.2953 98.1884 53.4438 98.3771 53.6317C98.5657 53.8196 98.7151 54.0432 98.8165 54.2893C98.9178 54.5355 98.9692 54.7994 98.9677 55.0657C98.9677 55.598 98.7562 56.1085 98.3798 56.4849C98.0034 56.8613 97.4929 57.0727 96.9606 57.0727C96.4283 57.0727 95.9178 56.8613 95.5414 56.4849C95.165 56.1085 94.9535 55.598 94.9535 55.0657C94.9504 54.5347 95.1577 54.0241 95.5302 53.6457C95.9026 53.2673 96.4099 53.052 96.9408 53.0467Z" fill="#25CCB3" stroke="#263238" stroke-width="0.395871" stroke-miterlimit="10"/>
<path d="M112.681 51.5979C113.213 51.5979 113.723 51.8094 114.1 52.1858C114.476 52.5622 114.688 53.0727 114.688 53.605C114.688 54.1373 114.476 54.6478 114.1 55.0242C113.723 55.4006 113.213 55.612 112.681 55.612C112.148 55.612 111.638 55.4006 111.261 55.0242C110.885 54.6478 110.674 54.1373 110.674 53.605C110.674 53.0727 110.885 52.5622 111.261 52.1858C111.638 51.8094 112.148 51.5979 112.681 51.5979Z" fill="#25CCB3" stroke="#263238" stroke-width="0.395871" stroke-miterlimit="10"/>
<path d="M128.42 62.3062C128.684 62.3062 128.945 62.3581 129.188 62.4589C129.432 62.5598 129.653 62.7076 129.84 62.894C130.026 63.0804 130.174 63.3016 130.275 63.5451C130.376 63.7887 130.427 64.0496 130.427 64.3132C130.427 64.5768 130.376 64.8378 130.275 65.0813C130.174 65.3248 130.026 65.5461 129.84 65.7324C129.653 65.9188 129.432 66.0666 129.188 66.1675C128.945 66.2684 128.684 66.3203 128.42 66.3203C127.888 66.3203 127.378 66.1088 127.001 65.7324C126.625 65.356 126.413 64.8455 126.413 64.3132C126.413 63.7809 126.625 63.2704 127.001 62.894C127.378 62.5176 127.888 62.3062 128.42 62.3062Z" fill="#25CCB3" stroke="#263238" stroke-width="0.395871" stroke-miterlimit="10"/>
<path d="M146.163 74.5327C146.163 73.4253 145.266 72.5276 144.158 72.5276C143.051 72.5276 142.153 73.4253 142.153 74.5327C142.153 75.64 143.051 76.5378 144.158 76.5378C145.266 76.5378 146.163 75.64 146.163 74.5327Z" fill="#25CCB3" stroke="#263238" stroke-width="0.395871" stroke-miterlimit="10"/>
<path d="M159.9 51.1147C160.432 51.1147 160.943 51.3262 161.319 51.7026C161.696 52.079 161.907 52.5895 161.907 53.1218C161.907 53.6541 161.696 54.1646 161.319 54.541C160.943 54.9174 160.432 55.1289 159.9 55.1289C159.368 55.1289 158.857 54.9174 158.481 54.541C158.105 54.1646 157.893 53.6541 157.893 53.1218C157.893 52.5895 158.105 52.079 158.481 51.7026C158.857 51.3262 159.368 51.1147 159.9 51.1147Z" fill="#25CCB3" stroke="#263238" stroke-width="0.395871" stroke-miterlimit="10"/>
<path d="M49.7213 96.4105L65.9124 92.2935L81.2801 92.8437L96.6478 96.1334L112.843 87.0798L128.757 94.2134L144.125 94.7637L160.043 90.3735" stroke="#787878" stroke-width="0.791742" stroke-miterlimit="10" stroke-linecap="round"/>
<path d="M49.7252 94.4863C50.2575 94.4863 50.768 94.6978 51.1444 95.0742C51.5208 95.4506 51.7323 95.9611 51.7323 96.4934C51.7323 97.0257 51.5208 97.5362 51.1444 97.9126C50.768 98.289 50.2575 98.5005 49.7252 98.5005C49.1929 98.5005 48.6824 98.289 48.306 97.9126C47.9296 97.5362 47.7181 97.0257 47.7181 96.4934C47.7181 95.9611 47.9296 95.4506 48.306 95.0742C48.6824 94.6978 49.1929 94.4863 49.7252 94.4863Z" fill="#263238" stroke="#263238" stroke-width="0.395871" stroke-miterlimit="10"/>
<path d="M65.4651 90.4446C65.9974 90.4446 66.5079 90.656 66.8843 91.0324C67.2607 91.4088 67.4721 91.9193 67.4721 92.4516C67.4721 92.9839 67.2607 93.4945 66.8843 93.8709C66.5079 94.2473 65.9974 94.4587 65.4651 94.4587C64.9328 94.4587 64.4223 94.2473 64.0459 93.8709C63.6695 93.4945 63.458 92.9839 63.458 92.4516C63.458 91.9193 63.6695 91.4088 64.0459 91.0324C64.4223 90.656 64.9328 90.4446 65.4651 90.4446Z" fill="#263238" stroke="#263238" stroke-width="0.395871" stroke-miterlimit="10"/>
<path d="M81.2049 90.7139C81.7373 90.7139 82.2478 90.9253 82.6241 91.3017C83.0005 91.6781 83.212 92.1886 83.212 92.7209C83.212 93.2532 83.0005 93.7637 82.6241 94.1401C82.2478 94.5165 81.7373 94.728 81.2049 94.728C80.6726 94.728 80.1621 94.5165 79.7857 94.1401C79.4093 93.7637 79.1979 93.2532 79.1979 92.7209C79.1979 92.1886 79.4093 91.6781 79.7857 91.3017C80.1621 90.9253 80.6726 90.7139 81.2049 90.7139Z" fill="#263238" stroke="#263238" stroke-width="0.395871" stroke-miterlimit="10"/>
<path d="M96.9408 93.9521C97.4731 93.9521 97.9836 94.1636 98.36 94.54C98.7364 94.9164 98.9478 95.4269 98.9478 95.9592C98.9478 96.4915 98.7364 97.002 98.36 97.3784C97.9836 97.7548 97.4731 97.9663 96.9408 97.9663C96.4085 97.9663 95.898 97.7548 95.5216 97.3784C95.1452 97.002 94.9337 96.4915 94.9337 95.9592C94.9337 95.4269 95.1452 94.9164 95.5216 94.54C95.898 94.1636 96.4085 93.9521 96.9408 93.9521Z" fill="#263238" stroke="#263238" stroke-width="0.395871" stroke-miterlimit="10"/>
<path d="M112.681 85.0806C113.213 85.0806 113.723 85.292 114.1 85.6684C114.476 86.0448 114.688 86.5553 114.688 87.0876C114.688 87.6199 114.476 88.1304 114.1 88.5068C113.723 88.8832 113.213 89.0947 112.681 89.0947C112.148 89.0947 111.638 88.8832 111.261 88.5068C110.885 88.1304 110.674 87.6199 110.674 87.0876C110.674 86.5553 110.885 86.0448 111.261 85.6684C111.638 85.292 112.148 85.0806 112.681 85.0806Z" fill="#263238" stroke="#263238" stroke-width="0.395871" stroke-miterlimit="10"/>
<path d="M128.42 91.6719C128.684 91.6719 128.945 91.7238 129.188 91.8247C129.432 91.9255 129.653 92.0734 129.84 92.2597C130.026 92.4461 130.174 92.6674 130.275 92.9109C130.376 93.1544 130.427 93.4154 130.427 93.6789C130.427 93.9425 130.376 94.2035 130.275 94.447C130.174 94.6905 130.026 94.9118 129.84 95.0981C129.653 95.2845 129.432 95.4324 129.188 95.5332C128.945 95.6341 128.684 95.686 128.42 95.686C127.888 95.686 127.378 95.4745 127.001 95.0981C126.625 94.7218 126.413 94.2112 126.413 93.6789C126.413 93.1466 126.625 92.6361 127.001 92.2597C127.378 91.8833 127.888 91.6719 128.42 91.6719Z" fill="#263238" stroke="#263238" stroke-width="0.395871" stroke-miterlimit="10"/>
<path d="M146.163 94.2905C146.163 93.1831 145.266 92.2854 144.158 92.2854C143.051 92.2854 142.153 93.1831 142.153 94.2905C142.153 95.3979 143.051 96.2956 144.158 96.2956C145.266 96.2956 146.163 95.3979 146.163 94.2905Z" fill="#263238" stroke="#263238" stroke-width="0.395871" stroke-miterlimit="10"/>
<path d="M159.9 88.4375C160.432 88.4375 160.943 88.649 161.319 89.0254C161.696 89.4018 161.907 89.9123 161.907 90.4446C161.907 90.9769 161.696 91.4874 161.319 91.8638C160.943 92.2402 160.432 92.4516 159.9 92.4516C159.368 92.4516 158.857 92.2402 158.481 91.8638C158.105 91.4874 157.893 90.9769 157.893 90.4446C157.893 89.9123 158.105 89.4018 158.481 89.0254C158.857 88.649 159.368 88.4375 159.9 88.4375Z" fill="#263238" stroke="#263238" stroke-width="0.395871" stroke-miterlimit="10"/>
<path d="M73.4775 33.1423H89.3836" stroke="#263238" stroke-width="0.395871" stroke-miterlimit="10"/>
<path d="M73.4775 35.8501H89.3836" stroke="#263238" stroke-width="0.395871" stroke-miterlimit="10"/>
<path d="M73.4775 38.5579H89.3836" stroke="#263238" stroke-width="0.395871" stroke-miterlimit="10"/>
<path d="M73.4775 41.2656H89.3836" stroke="#263238" stroke-width="0.395871" stroke-miterlimit="10"/>
<path d="M148.95 41.7961H129.58V55.517H148.95V41.7961Z" fill="#263238" stroke="#263238" stroke-width="0.395871" stroke-linecap="round" stroke-linejoin="round"/>
<path d="M139.466 53.7101C142.308 53.5811 144.507 51.173 144.378 48.3315C144.249 45.49 141.841 43.2911 138.999 43.4202C136.158 43.5492 133.959 45.9573 134.088 48.7988C134.217 51.6403 136.625 53.8392 139.466 53.7101Z" fill="#25CCB3" stroke="#263238" stroke-width="0.395871" stroke-linecap="round" stroke-linejoin="round"/>
<path d="M136.856 45.6123L142.272 48.423L137.134 51.7087L136.856 45.6123Z" fill="#263238" stroke="#263238" stroke-width="0.395871" stroke-linecap="round" stroke-linejoin="round"/>
<path d="M148.242 47.8333H159.496V52.2274" stroke="#263238" stroke-width="0.395871" stroke-linecap="round" stroke-linejoin="round"/>
<path d="M129.857 57.4409H148.242" stroke="#263238" stroke-width="0.395871" stroke-linecap="round" stroke-linejoin="round"/>
<path d="M129.857 58.8105H148.242" stroke="#263238" stroke-width="0.395871" stroke-linecap="round" stroke-linejoin="round"/>
<path d="M129.857 60.1843H148.242" stroke="#263238" stroke-width="0.395871" stroke-linecap="round" stroke-linejoin="round"/>
<path d="M148.95 101.074H129.58V114.795H148.95V101.074Z" fill="#6E6E6E" stroke="#263238" stroke-width="0.395871" stroke-linecap="round" stroke-linejoin="round"/>
<path d="M145.498 106.564L141.108 110.404L137.541 105.191L129.58 111.822V114.795H148.954V110.254L145.498 106.564Z" fill="#25CCB3" stroke="#263238" stroke-width="0.395871" stroke-linecap="round" stroke-linejoin="round"/>
<path d="M133.697 105.191C134.456 105.191 135.071 104.576 135.071 103.817C135.071 103.058 134.456 102.443 133.697 102.443C132.939 102.443 132.324 103.058 132.324 103.817C132.324 104.576 132.939 105.191 133.697 105.191Z" fill="#25CCB3" stroke="#263238" stroke-width="0.395871" stroke-linecap="round" stroke-linejoin="round"/>
<path d="M148.242 107.111H159.496V93.6631" stroke="#263238" stroke-width="0.395871" stroke-linecap="round" stroke-linejoin="round"/>
<path d="M129.857 116.719H148.242" stroke="#263238" stroke-width="0.395871" stroke-linecap="round" stroke-linejoin="round"/>
<path d="M129.857 118.088H148.242" stroke="#263238" stroke-width="0.395871" stroke-linecap="round" stroke-linejoin="round"/>
<path d="M129.857 119.462H148.242" stroke="#263238" stroke-width="0.395871" stroke-linecap="round" stroke-linejoin="round"/>
<path d="M159.377 162.818C159.377 162.818 148.891 144.398 151.31 139.719C153.728 135.039 159.932 143.464 159.932 143.464C159.932 143.464 154.556 126.295 157.513 118.801C160.47 111.307 165.581 118.801 165.85 124.109C166.119 129.418 164.773 138.468 164.773 138.468C164.773 138.468 166.923 119.739 172.033 125.356C177.144 130.974 165.581 149.706 165.581 149.706C165.581 149.706 173.379 145.352 173.102 150.953C172.825 156.555 163.692 161.567 163.692 161.567" fill="#25CCB3"/>
<path d="M159.468 159.385C159.468 159.385 149.762 150.332 154.492 146.274C159.223 142.216 161.709 150.629 161.709 150.629C161.709 150.629 156.484 124.719 164.943 123.781C173.403 122.842 167.184 146.258 167.184 146.258C167.184 146.258 174.401 136.27 173.914 144.386C173.427 152.501 162.703 159.385 162.703 159.385" stroke="#263238" stroke-width="0.395871" stroke-miterlimit="10"/>
<path d="M164.235 157.739L157.675 150.633" stroke="#263238" stroke-width="0.395871" stroke-miterlimit="10"/>
<path d="M162.869 158.285L164.643 137.514" stroke="#263238" stroke-width="0.395871" stroke-miterlimit="10"/>
<path d="M162.596 156.78L168.471 148.994" stroke="#263238" stroke-width="0.395871" stroke-miterlimit="10"/>
<path d="M171.091 155.332H152.953L154.766 176.729H169.278L171.091 155.332Z" fill="#263238"/>
<path d="M10.7082 176.729H6.84058" stroke="#263238" stroke-width="0.395871" stroke-miterlimit="10"/>
<path d="M176.669 176.729H13.598" stroke="#263238" stroke-width="0.395871" stroke-miterlimit="10"/>
<path d="M19.1125 103.421C19.1125 103.421 20.0942 125 20.9612 132.518C21.7751 139.065 22.0162 145.671 21.6817 152.26C21.3729 159.041 22.9128 170.941 22.9128 171.202V172.786C22.9128 172.786 20.5376 176.384 19.2233 177.536C17.909 178.688 17.2044 179.82 17.6398 180.434C18.0753 181.048 19.3064 182.017 22.7307 181.135C26.155 180.252 27.4812 179.29 28.2729 178.15C28.8503 177.382 29.5642 176.727 30.3789 176.218C31.8878 176.536 33.3763 176.945 34.8364 177.441C37.1206 178.233 38.9614 179.108 41.5979 179.108C44.2344 179.108 44.7649 177.441 44.1434 176.649C43.5219 175.858 39.1396 173.665 38.4349 172.259C37.7303 170.854 38.0826 169.714 38.0826 166.551C38.0826 163.388 38.8506 155.261 39.096 151.029C39.3415 146.797 44.5432 133.555 45.4735 126.92C46.4038 120.285 47.6706 113.373 47.7814 110.028C47.8923 106.683 47.8448 103.694 47.8448 103.694C47.8448 103.694 47.916 103.338 47.5874 101.861C47.2589 100.385 47.1678 100.385 38.9416 101.113C33.5469 101.616 28.1275 101.804 22.7109 101.675C20.1892 101.616 19.3262 102.36 19.1125 103.421Z" fill="#263238" stroke="#263238" stroke-width="0.395871" stroke-linecap="round" stroke-linejoin="round"/>
<path d="M36.2696 115.476C36.2696 115.476 35.1295 134.873 33.4272 141.884C31.725 148.895 30.9016 160.933 30.9016 164.797C30.9016 168.661 30.6364 171.559 30.6364 171.559" stroke="#6A6A6A" stroke-width="0.395871" stroke-linecap="round" stroke-linejoin="round"/>
<path d="M36.1785 119.26L39.8601 115.139" stroke="#263238" stroke-width="0.395871" stroke-linecap="round" stroke-linejoin="round"/>
<path d="M26.0719 105.741L25.0466 111.972" stroke="#54595A" stroke-width="0.395871" stroke-linecap="round" stroke-linejoin="round"/>
<path d="M28.4155 113.005L28.5105 114.062" stroke="#263238" stroke-width="0.395871" stroke-linecap="round" stroke-linejoin="round"/>
<path d="M27.7742 106.042L28.2809 111.553" stroke="#263238" stroke-width="0.395871" stroke-linecap="round" stroke-linejoin="round"/>
<path d="M37.2632 104.672L37.1801 111.046L39.3653 109.636L39.7018 104.747" stroke="#5C5F62" stroke-width="0.395871" stroke-linecap="round" stroke-linejoin="round"/>
<path d="M45.8893 104.843L46.5266 110.622" stroke="#54595A" stroke-width="0.395871" stroke-linecap="round" stroke-linejoin="round"/>
<path d="M44.947 104.7L43.8346 109.058" stroke="#263238" stroke-width="0.395871" stroke-linecap="round" stroke-linejoin="round"/>
<path d="M50.5487 66.6805C49.9826 65.3583 42.0889 63.2483 38.4944 62.0092C34.8999 60.7701 30.7472 60.6751 29.71 61.36C29.71 61.36 23.582 64.7803 19.164 66.3836C14.7461 67.9869 11.9869 69.0122 11.6425 70.2037C11.3693 71.1697 10.0076 84.4551 9.49292 89.5183C9.29498 90.4486 8.96641 91.8935 8.70118 92.7882C8.2578 94.1539 9.90858 97.1665 12.5411 98.2235C15.1737 99.2804 16.2584 97.3248 16.9749 95.7216C17.5053 94.534 18.0873 93.1207 18.3485 92.4042C18.4515 92.994 19.358 98.3739 18.7642 100.523C18.1387 102.796 18.3288 104.526 19.7578 105.135C21.1869 105.745 46.9581 103.508 47.3659 103.88C47.7736 104.253 49.4244 103.508 50.0301 101.964C50.4745 100.75 50.4745 99.4179 50.0301 98.2037C49.7846 97.7088 49.5313 95.868 49.5313 95.868C49.5313 95.868 51.6492 96.7825 53.5415 96.4143C55.4337 96.0462 57.2904 93.7185 57.3735 90.5713C57.4566 87.4241 51.1148 68.0027 50.5487 66.6805Z" fill="#226EBE" stroke="#263238" stroke-width="0.395871" stroke-linecap="round" stroke-linejoin="round"/>
<path d="M16.2661 78.4141C16.0999 77.274 15.989 76.4901 15.9692 76.3318" stroke="#828282" stroke-width="0.395871" stroke-linecap="round" stroke-linejoin="round"/>
<path d="M18.3327 92.3845C18.3327 92.3845 17.3351 85.6784 16.6265 80.928" stroke="#828282" stroke-width="0.395871" stroke-linecap="round" stroke-linejoin="round"/>
<path d="M49.5154 95.8523L49.2819 72.1792" stroke="#828282" stroke-width="0.395871" stroke-linecap="round" stroke-linejoin="round"/>
<path d="M36.3755 94.6879C40.9381 94.4807 44.4688 90.614 44.2616 86.0515C44.0544 81.4889 40.1878 77.9582 35.6252 78.1654C31.0627 78.3726 27.532 82.2392 27.7392 86.8018C27.9463 91.3643 31.813 94.895 36.3755 94.6879Z" fill="white" stroke="#263238" stroke-width="0.395871" stroke-linecap="round" stroke-linejoin="round"/>
<path d="M32.1881 81.7L40.8854 86.205L32.6315 91.4859L32.1881 81.7Z" fill="#226EBE" stroke="#263238" stroke-width="0.395871" stroke-linecap="round" stroke-linejoin="round"/>
<path d="M38.4944 62.0093C34.9038 60.7703 30.7472 60.6792 29.71 61.3403C29.71 61.3403 28.2849 62.1321 26.3174 63.1376C26.2224 63.8303 26.167 64.7211 26.4045 65.1367C26.832 65.9047 34.3219 74.8237 35.751 74.4753C37.1801 74.1269 41.6534 64.7804 41.8157 63.4266C41.8157 63.3038 41.8474 63.197 41.8632 63.0861C40.5885 62.6902 39.4049 62.3221 38.4944 62.0093Z" fill="white" stroke="#263238" stroke-width="0.395871" stroke-linecap="round" stroke-linejoin="round"/>
<path d="M8.70898 87.2657C9.90097 88.1606 11.2019 88.9002 12.5806 89.4668C14.4056 90.112 16.4562 91.9845 16.757 93.6551C17.0579 95.3257 17.2479 97.0556 15.3556 98.5995C13.4634 100.143 10.8744 98.8014 8.76044 96.7112C6.64649 94.621 6.14373 89.7597 5.59347 88.7938C5.04321 87.8279 6.36146 85.9712 8.70898 87.2657Z" fill="white" stroke="#263238" stroke-width="0.395871" stroke-linecap="round" stroke-linejoin="round"/>
<path d="M9.41368 88.8611C9.41368 88.8611 10.0431 86.6996 9.27116 85.7258C8.49921 84.752 6.67821 83.0378 6.36943 81.1456C6.06065 79.2533 5.83104 77.9153 5.05118 78.0617C4.27131 78.2082 3.81606 80.532 4.15651 81.8067C4.49696 83.0814 4.89283 84.4115 4.8097 85.033C4.72656 85.6545 3.73689 86.09 3.62209 87.333C3.50728 88.5761 4.86116 92.3843 5.74395 93.2988C6.62674 94.2133 9.16824 93.2988 9.8333 91.8776C10.4984 90.4564 9.41368 88.8611 9.41368 88.8611Z" fill="white" stroke="#263238" stroke-width="0.395871" stroke-linecap="round" stroke-linejoin="round"/>
<path d="M3.16687 91.3352C3.16687 91.3352 3.16687 92.4595 4.58805 92.9543C6.00922 93.4491 7.86586 92.1863 7.20475 90.0288C6.71047 90.082 6.22494 90.1977 5.75982 90.3732C5.22936 90.6226 4.15259 91.6281 3.16687 91.3352Z" fill="white" stroke="#263238" stroke-width="0.395871" stroke-linecap="round" stroke-linejoin="round"/>
<path d="M2.26819 89.7479C2.26819 89.7479 2.31965 90.8682 2.85012 91.462C3.38059 92.0558 5.06304 92.036 6.32586 91.4145C7.58869 90.793 7.46201 89.2293 7.16115 88.7938C6.86029 88.3584 6.76528 88.588 6.26648 88.8888C5.76769 89.1897 4.16045 89.4906 3.49539 89.5183C2.83033 89.546 2.59676 89.5658 2.26819 89.7479Z" fill="white" stroke="#263238" stroke-width="0.395871" stroke-linecap="round" stroke-linejoin="round"/>
<path d="M1.89608 87.6893C1.89608 87.6893 0.985577 88.6829 1.64668 89.6092C2.30779 90.5356 4.38611 90.6068 5.60539 90.1595C6.82467 89.7122 7.11762 88.8571 7.08199 88.0733C7.04636 87.2894 6.42484 87.2063 5.97751 87.2261C5.53017 87.2459 1.89608 87.6893 1.89608 87.6893Z" fill="white" stroke="#263238" stroke-width="0.395871" stroke-linecap="round" stroke-linejoin="round"/>
<path d="M5.03145 85.0767C5.03145 85.0767 1.88427 84.9935 1.00544 85.429C0.820478 85.5274 0.65779 85.6629 0.527533 85.8269C0.397275 85.991 0.302247 86.1802 0.248381 86.3827C0.194515 86.5851 0.182969 86.7965 0.214463 87.0036C0.245957 87.2108 0.319816 87.4092 0.431426 87.5865C0.85105 88.1842 3.59839 88.0615 4.70683 87.8398C5.81527 87.6181 6.19927 87.3212 6.15968 86.4266C6.12618 86.1152 6.00111 85.8208 5.80029 85.5805C5.59947 85.3402 5.33191 85.1649 5.03145 85.0767Z" fill="white" stroke="#263238" stroke-width="0.395871" stroke-linecap="round" stroke-linejoin="round"/>
<path d="M61.2174 79.2138C61.2174 79.2138 55.0259 84.0949 52.6507 85.4409C50.2755 86.7869 50.1726 92.6814 51.1583 94.6013C52.144 96.5213 54.6182 96.6876 57.2349 94.9972C59.8516 93.3068 63.9647 86.0505 65.0613 83.2517C66.1578 80.4529 66.53 79.7601 66.53 79.7601C66.53 79.7601 68.8379 79.8789 70.3184 79.1386C71.799 78.3983 72.0642 75.5758 72.0524 74.0675C72.0405 72.5593 72.4482 71.526 71.0864 71.2964C69.7246 71.0668 67.6265 71.7358 67.6265 71.7358C67.7636 70.5425 67.7835 69.3386 67.6859 68.1413C67.5038 66.5776 66.4468 66.7954 66.0826 67.4288C65.7184 68.0622 65.663 70.5324 64.9583 72.3613C64.1993 74.2936 63.3092 76.1717 62.2941 77.9827C61.9803 78.4304 61.6193 78.8432 61.2174 79.2138Z" fill="white" stroke="#263238" stroke-width="0.395871" stroke-linecap="round" stroke-linejoin="round"/>
<path d="M71.8623 76.3755C71.8623 76.3755 72.0246 77.4919 71.601 78.0144C71.1774 78.537 68.9962 78.6953 68.434 78.3272C67.8719 77.959 67.8481 76.5576 69.301 76.4349C70.1527 76.3624 71.0081 76.3426 71.8623 76.3755Z" fill="white" stroke="#263238" stroke-width="0.395871" stroke-linecap="round" stroke-linejoin="round"/>
<path d="M72.4442 74.2695C72.4442 74.2695 73.0539 75.3621 72.6422 76.1697C72.2305 76.9773 70.5599 77.2742 69.4752 76.9852C68.3905 76.6962 68.7785 75.2196 69.0793 74.8713C69.3802 74.5229 70.267 74.6496 70.6391 74.6337C71.2467 74.5438 71.8493 74.4222 72.4442 74.2695Z" fill="white" stroke="#263238" stroke-width="0.395871" stroke-linecap="round" stroke-linejoin="round"/>
<path d="M72.84 72.7373C73.0305 72.8943 73.1661 73.1077 73.2273 73.3468C73.2885 73.5859 73.2721 73.8383 73.1805 74.0674C72.8202 74.8117 71.7712 75.1957 70.6588 75.3619C69.5464 75.5282 69.1149 74.7008 69.0753 73.917C69.0579 73.7824 69.0701 73.6456 69.111 73.5161C69.1519 73.3867 69.2206 73.2677 69.3121 73.1674C69.4037 73.0672 69.516 72.9881 69.6412 72.9357C69.7664 72.8833 69.9016 72.8588 70.0373 72.864L72.84 72.7373Z" fill="white" stroke="#263238" stroke-width="0.395871" stroke-linecap="round" stroke-linejoin="round"/>
<path d="M69.5505 71.1459C69.5505 71.1459 69.1308 73.0184 69.8711 73.2639C70.6114 73.5093 73.3429 73.1055 73.6556 72.5315C73.9684 71.9575 74.1228 70.4334 73.4458 70.3542C72.7689 70.275 69.8276 70.9678 69.8276 70.9678C69.8276 70.9678 69.9305 70.8609 69.5505 71.1459Z" fill="white" stroke="#263238" stroke-width="0.395871" stroke-linecap="round" stroke-linejoin="round"/>
<path d="M67.6146 71.7397C67.635 72.1972 67.7313 72.648 67.8997 73.0738C68.1451 73.5687 68.8695 74.6573 68.0303 75.9874" fill="white"/>
<path d="M67.6146 71.7397C67.635 72.1972 67.7313 72.648 67.8997 73.0738C68.1451 73.5687 68.8695 74.6573 68.0303 75.9874" stroke="#263238" stroke-width="0.395871" stroke-linecap="round" stroke-linejoin="round"/>
<path d="M28.6174 173.665C28.6174 173.665 27.7385 171.646 25.7196 171.206C23.7006 170.767 22.9089 172.79 22.9089 172.79C22.9089 172.79 20.5337 176.388 19.2194 177.54C17.9051 178.692 17.2005 179.824 17.6359 180.438C18.0714 181.052 19.3025 182.021 22.7268 181.139C26.1511 180.256 27.4773 179.294 28.269 178.154C28.8464 177.386 29.5603 176.731 30.375 176.222L30.6403 171.57L28.6174 173.665Z" fill="white" stroke="#263238" stroke-width="0.395871" stroke-linecap="round" stroke-linejoin="round"/>
<path d="M26.9508 177.528C25.8978 179.021 24.8447 179.987 21.3334 180.161C19.354 180.26 18.21 179.912 17.5884 179.591C17.5295 179.724 17.5038 179.87 17.5135 180.015C17.5231 180.161 17.5679 180.302 17.6439 180.426C18.0833 181.04 19.3105 182.01 22.7348 181.127C26.159 180.244 27.4852 179.282 28.2769 178.142C28.8543 177.374 29.5682 176.719 30.383 176.21L30.4424 174.975C30.2523 175.074 27.9603 176.099 26.9508 177.528Z" fill="white" stroke="#263238" stroke-width="0.395871" stroke-linecap="round" stroke-linejoin="round"/>
<path d="M41.6138 179.108C44.2464 179.108 44.7808 177.441 44.1593 176.649C43.5378 175.858 39.1555 173.665 38.4508 172.259C38.1803 171.712 38.0343 171.112 38.0233 170.502C35.4184 170.106 34.1477 172.786 34.1477 172.786L30.6363 171.555L30.3711 176.206C31.8829 176.528 33.374 176.941 34.8365 177.441C37.1365 178.229 38.9813 179.108 41.6138 179.108Z" fill="white" stroke="#263238" stroke-width="0.395871" stroke-linecap="round" stroke-linejoin="round"/>
<path d="M35.4659 176.649C33.8393 175.96 32.1609 175.4 30.4463 174.975V176.214C31.9324 176.537 33.3984 176.947 34.8365 177.441C37.1207 178.233 38.9615 179.108 41.598 179.108C43.3081 179.108 44.1236 178.407 44.3216 177.698C41.3011 179.523 37.2117 177.473 35.4659 176.649Z" fill="white" stroke="#263238" stroke-width="0.395871" stroke-linecap="round" stroke-linejoin="round"/>
<path d="M27.8929 58.3396C27.8929 58.3396 28.3917 63.1415 28.6609 64.1312C28.9301 65.1209 34.4169 72.2861 35.268 71.1817C36.1191 70.0772 39.4207 63.7551 39.6226 63.0703C39.8245 62.3854 39.6543 58.8582 39.6543 58.8582C38.721 59.4288 37.6832 59.8075 36.6017 59.972C35.5202 60.1365 34.4167 60.0835 33.356 59.8162C29.714 58.9295 27.8929 58.3396 27.8929 58.3396Z" fill="white" stroke="#263238" stroke-width="0.395871" stroke-linecap="round" stroke-linejoin="round"/>
<path d="M25.9334 49.8401C25.9334 49.8401 24.6705 47.9914 23.2335 48.502C21.7965 49.0127 22.2518 51.578 23.2652 52.8764C24.2786 54.1749 25.8067 54.4995 26.1828 52.8566C26.401 51.8486 26.3141 50.7985 25.9334 49.8401Z" fill="white" stroke="#263238" stroke-width="0.395871" stroke-linecap="round" stroke-linejoin="round"/>
<path d="M40.7034 47.5994C40.7034 47.5994 41.6693 45.3667 42.5838 46.9542C43.4982 48.5416 42.7738 51.0989 42.2275 51.4592C41.6812 51.8194 41.0399 51.57 40.8934 50.5091C40.7806 49.5431 40.7172 48.5719 40.7034 47.5994Z" fill="white" stroke="#263238" stroke-width="0.395871" stroke-linecap="round" stroke-linejoin="round"/>
<path d="M22.9168 42.6828C22.6556 40.2323 24.7735 36.5943 27.4852 35.7986C29.057 35.3207 30.7062 35.15 32.3425 35.2958C32.3425 35.2958 32.0852 33.3442 34.5475 33.174C37.0098 33.0037 39.0525 36.0005 38.3281 37.3781C37.6037 38.7557 36.7129 38.7953 36.7129 38.7953L41.3684 49.8797C41.3684 49.8797 41.9899 51.1979 42.1918 54.4441C42.3937 57.6902 41.0754 59.4875 38.5062 61.0076C35.937 62.5278 32.0654 61.5698 29.2666 60.2396C26.4678 58.9095 25.969 56.8549 25.8265 54.8954C25.684 52.9358 26.0601 48.9375 24.9397 46.5188C23.8194 44.1 23.1108 44.5275 22.9168 42.6828Z" fill="#263238" stroke="#263238" stroke-width="0.395871" stroke-linecap="round" stroke-linejoin="round"/>
<path d="M37.5244 38.1461C37.5244 38.1461 33.8072 36.6299 30.4344 37.7502C27.0616 38.8706 25.3356 41.3408 25.7314 42.948C26.1273 44.5553 26.8913 46.206 27.018 49.0048C27.1447 51.8037 27.6752 56.0474 30.5373 57.3181C33.3995 58.5889 34.0724 58.5612 34.3218 57.8763C34.5712 57.1915 34.8127 56.3403 35.8737 56.178C36.9346 56.0157 36.9385 57.4211 37.4096 57.8486C37.8807 58.2761 39.1673 57.0569 40.6003 55.2359C42.0334 53.4148 41.5623 50.4854 40.9408 47.9241C40.3193 45.3628 40.2995 43.6883 39.9234 41.6298C39.5473 39.5712 38.2687 38.4509 37.5244 38.1461Z" fill="white" stroke="#263238" stroke-width="0.395871" stroke-linecap="round" stroke-linejoin="round"/>
<path d="M33.8429 44.8246C32.3677 44.6851 30.8815 44.7143 29.4131 44.9117C27.0695 45.2442 26.7607 45.8182 26.7766 46.2101C26.7924 46.602 26.9666 49.1752 28.8549 49.9313C30.7432 50.6874 34.0012 49.6423 34.3971 48.7793C34.7929 47.9163 34.7217 44.8206 34.7217 44.8206L33.8429 44.8246Z" fill="#25CCB3" stroke="#263238" stroke-width="0.395871" stroke-linecap="round" stroke-linejoin="round"/>
<path d="M36.6892 44.472C38.0693 43.933 39.5064 43.5531 40.9726 43.3398C43.3161 43.0152 43.7714 43.4823 43.8624 43.8624C43.9535 44.2424 44.4958 46.7641 42.8886 48.0111C41.2813 49.2581 37.8571 49.1512 37.2276 48.4347C36.5982 47.7181 35.8302 44.7333 35.8302 44.7333L36.6892 44.472Z" fill="#25CCB3" stroke="#263238" stroke-width="0.395871" stroke-linecap="round" stroke-linejoin="round"/>
<path d="M34.7415 44.8403L35.8301 44.7334" stroke="#263238" stroke-width="0.395871" stroke-linecap="round" stroke-linejoin="round"/>
<path d="M26.7686 45.9883L25.585 48.8267" stroke="white" stroke-width="0.395871" stroke-linecap="round" stroke-linejoin="round"/>
<path d="M35.9331 46.3564C35.9331 46.3564 37.572 50.3152 37.0851 50.6794C36.5981 51.0436 34.7098 51.6849 34.2308 50.8654" stroke="#263238" stroke-width="0.395871" stroke-linecap="round" stroke-linejoin="round"/>
<path d="M31.2341 52.8567C31.2341 52.8567 35.3433 54.4085 38.8942 52.2827" stroke="#263238" stroke-width="0.395871" stroke-linecap="round" stroke-linejoin="round"/>
<path d="M27.9127 43.9694C27.9127 43.9694 28.7797 42.0772 31.6616 42.4533" stroke="#263238" stroke-width="0.791742" stroke-linecap="round" stroke-linejoin="round"/>
<path d="M36.2498 43.4232C36.2498 43.4232 37.8649 41.9466 39.5276 42.7146" stroke="#263238" stroke-width="0.791742" stroke-linecap="round" stroke-linejoin="round"/>
<path d="M40.4658 44.666C40.4658 44.666 40.2719 46.7008 40.7034 47.5994" stroke="#263238" stroke-width="0.395871" stroke-linecap="round" stroke-linejoin="round"/>
<path d="M31.5504 48.3526C31.8258 48.3388 32.0282 47.9094 32.0024 47.3934C31.9766 46.8774 31.7324 46.4703 31.4569 46.4841C31.1814 46.4979 30.979 46.9273 31.0048 47.4433C31.0306 47.9593 31.2749 48.3664 31.5504 48.3526Z" fill="#263238"/>
<path d="M37.9869 47.7055C38.262 47.693 38.4662 47.2651 38.4428 46.7496C38.4194 46.2342 38.1773 45.8264 37.9021 45.8389C37.6269 45.8514 37.4228 46.2794 37.4462 46.7949C37.4696 47.3103 37.7117 47.718 37.9869 47.7055Z" fill="#263238"/>
</g>
<defs>
<clipPath id="clip0">
<rect width="176.669" height="181.677" fill="white"/>
</clipPath>
</defs>
</svg>
