<svg width="232" height="183" viewBox="0 0 232 183" fill="none" xmlns="http://www.w3.org/2000/svg">
<g clip-path="url(#clip0)">
<path d="M42.3865 20.5534C42.3865 20.5534 16.1577 42.1239 6.41726 68.7724C-3.32319 95.4209 4.175 125.367 26.7035 143.975C49.232 162.582 82.692 152.299 114.198 160.374C145.704 168.449 176.574 158.755 183.742 125.748C190.909 92.742 168.211 85.8669 157.407 51.7838C146.603 17.7007 105.03 -26.6823 42.3865 20.5534Z" fill="#C6FF00"/>
<path d="M42.3865 20.5534C42.3865 20.5534 16.1577 42.1239 6.41726 68.7724C-3.32319 95.4209 4.175 125.367 26.7035 143.975C49.232 162.582 82.692 152.299 114.198 160.374C145.704 168.449 176.574 158.755 183.742 125.748C190.909 92.742 168.211 85.8669 157.407 51.7838C146.603 17.7007 105.03 -26.6823 42.3865 20.5534Z" fill="#E6F1FF"/>
<path d="M82.3277 26.0898H60.4392C60.0506 26.0898 59.7356 26.4049 59.7356 26.7935V40.0393C59.7356 40.4279 60.0506 40.7429 60.4392 40.7429H82.3277C82.7163 40.7429 83.0313 40.4279 83.0313 40.0393V26.7935C83.0313 26.4049 82.7163 26.0898 82.3277 26.0898Z" stroke="#263238" stroke-width="0.423866" stroke-miterlimit="10"/>
<path d="M83.0313 34.7324H59.7356V38.1149H83.0313V34.7324Z" stroke="#263238" stroke-width="0.423866" stroke-miterlimit="10"/>
<path d="M79.369 30.5065C80.2515 30.5065 80.967 29.7911 80.967 28.9085C80.967 28.026 80.2515 27.3105 79.369 27.3105C78.4864 27.3105 77.771 28.026 77.771 28.9085C77.771 29.7911 78.4864 30.5065 79.369 30.5065Z" stroke="#263238" stroke-width="0.423866" stroke-miterlimit="10"/>
<path d="M76.9276 30.5065C77.8101 30.5065 78.5255 29.7911 78.5255 28.9085C78.5255 28.026 77.8101 27.3105 76.9276 27.3105C76.045 27.3105 75.3296 28.026 75.3296 28.9085C75.3296 29.7911 76.045 30.5065 76.9276 30.5065Z" stroke="#263238" stroke-width="0.423866" stroke-miterlimit="10"/>
<path d="M61.804 28.4375H68.1916" stroke="#263238" stroke-width="0.423866" stroke-miterlimit="10"/>
<path d="M32.8921 91.4453H11.0037C10.6151 91.4453 10.3 91.7603 10.3 92.1489V105.395C10.3 105.783 10.6151 106.098 11.0037 106.098H32.8921C33.2807 106.098 33.5957 105.783 33.5957 105.395V92.1489C33.5957 91.7603 33.2807 91.4453 32.8921 91.4453Z" stroke="#263238" stroke-width="0.423866" stroke-miterlimit="10"/>
<path d="M33.5957 100.088H10.3V103.47H33.5957V100.088Z" stroke="#263238" stroke-width="0.423866" stroke-miterlimit="10"/>
<path d="M29.9293 95.862C30.8118 95.862 31.5273 95.1465 31.5273 94.264C31.5273 93.3815 30.8118 92.666 29.9293 92.666C29.0467 92.666 28.3313 93.3815 28.3313 94.264C28.3313 95.1465 29.0467 95.862 29.9293 95.862Z" stroke="#263238" stroke-width="0.423866" stroke-miterlimit="10"/>
<path d="M27.4876 95.862C28.3702 95.862 29.0856 95.1465 29.0856 94.264C29.0856 93.3815 28.3702 92.666 27.4876 92.666C26.6051 92.666 25.8896 93.3815 25.8896 94.264C25.8896 95.1465 26.6051 95.862 27.4876 95.862Z" stroke="#263238" stroke-width="0.423866" stroke-miterlimit="10"/>
<path d="M12.3643 93.7939H18.7519" stroke="#263238" stroke-width="0.423866" stroke-miterlimit="10"/>
<path d="M156.114 11.9961H141.639V26.4711H156.114V11.9961Z" stroke="#263238" stroke-width="0.423866" stroke-miterlimit="10"/>
<path d="M153.351 18.1212H149.659V14.4336H148.095V18.1212H144.407V19.6853H148.095V23.3772H149.659V19.6853H153.351V18.1212Z" stroke="#263238" stroke-width="0.423866" stroke-miterlimit="10"/>
<path d="M170.56 11.9961H156.084V26.4711H170.56V11.9961Z" stroke="#263238" stroke-width="0.423866" stroke-miterlimit="10"/>
<path d="M167.177 18.1211H159.467V19.4605H167.177V18.1211Z" stroke="#263238" stroke-width="0.423866" stroke-miterlimit="10"/>
<path d="M156.114 26.4453H141.639V40.9203H156.114V26.4453Z" stroke="#263238" stroke-width="0.423866" stroke-miterlimit="10"/>
<path d="M151.486 29.6367L148.879 32.2435L146.272 29.6367L145.166 30.743L147.773 33.3498L145.166 35.9566L146.272 37.0629L148.879 34.4561L151.486 37.0629L152.592 35.9566L149.985 33.3498L152.592 30.743L151.486 29.6367Z" stroke="#263238" stroke-width="0.423866" stroke-miterlimit="10"/>
<path d="M170.56 26.4453H156.084V40.9203H170.56V26.4453Z" stroke="#263238" stroke-width="0.423866" stroke-miterlimit="10"/>
<path d="M167.177 32.5664H159.467V33.9058H167.177V32.5664Z" stroke="#263238" stroke-width="0.423866" stroke-miterlimit="10"/>
<path d="M163.32 31.3407C163.856 31.3407 164.29 30.9061 164.29 30.3701C164.29 29.834 163.856 29.3994 163.32 29.3994C162.784 29.3994 162.349 29.834 162.349 30.3701C162.349 30.9061 162.784 31.3407 163.32 31.3407Z" stroke="#263238" stroke-width="0.423866" stroke-miterlimit="10"/>
<path d="M163.32 37.2284C163.856 37.2284 164.29 36.7938 164.29 36.2578C164.29 35.7217 163.856 35.2871 163.32 35.2871C162.784 35.2871 162.349 35.7217 162.349 36.2578C162.349 36.7938 162.784 37.2284 163.32 37.2284Z" stroke="#263238" stroke-width="0.423866" stroke-miterlimit="10"/>
<path d="M10.7026 138.918H1.55981V148.061H10.7026V138.918Z" stroke="#263238" stroke-width="0.423866" stroke-miterlimit="10"/>
<path d="M8.95205 142.784H6.62502V140.457H5.63742V142.784H3.30615V143.776H5.63742V146.103H6.62502V143.776H8.95205V142.784Z" stroke="#263238" stroke-width="0.423866" stroke-miterlimit="10"/>
<path d="M19.8242 138.918H10.6814V148.061H19.8242V138.918Z" stroke="#263238" stroke-width="0.423866" stroke-miterlimit="10"/>
<path d="M17.6878 142.784H12.8176V143.632H17.6878V142.784Z" stroke="#263238" stroke-width="0.423866" stroke-miterlimit="10"/>
<path d="M10.7026 148.04H1.55981V157.183H10.7026V148.04Z" stroke="#263238" stroke-width="0.423866" stroke-miterlimit="10"/>
<path d="M7.77798 150.058L6.12914 151.706L4.48454 150.058L3.78516 150.757L5.42976 152.406L3.78516 154.05L4.48454 154.75L6.12914 153.101L7.77798 154.75L8.47736 154.05L6.82852 152.406L8.47736 150.757L7.77798 150.058Z" stroke="#263238" stroke-width="0.423866" stroke-miterlimit="10"/>
<path d="M19.8242 148.04H10.6814V157.183H19.8242V148.04Z" stroke="#263238" stroke-width="0.423866" stroke-miterlimit="10"/>
<path d="M17.6878 151.91H12.8176V152.758H17.6878V151.91Z" stroke="#263238" stroke-width="0.423866" stroke-miterlimit="10"/>
<path d="M15.2507 151.134C15.5878 151.134 15.8611 150.861 15.8611 150.523C15.8611 150.186 15.5878 149.913 15.2507 149.913C14.9137 149.913 14.6404 150.186 14.6404 150.523C14.6404 150.861 14.9137 151.134 15.2507 151.134Z" stroke="#263238" stroke-width="0.423866" stroke-miterlimit="10"/>
<path d="M15.2507 154.852C15.5878 154.852 15.8611 154.578 15.8611 154.241C15.8611 153.904 15.5878 153.631 15.2507 153.631C14.9137 153.631 14.6404 153.904 14.6404 154.241C14.6404 154.578 14.9137 154.852 15.2507 154.852Z" stroke="#263238" stroke-width="0.423866" stroke-miterlimit="10"/>
<path d="M112.358 30.0696C112.335 30.0735 112.314 30.0854 112.299 30.1031C112.283 30.1209 112.274 30.1435 112.274 30.1671V30.7944C112.279 30.8267 112.276 30.8598 112.266 30.8909C112.256 30.922 112.239 30.9503 112.215 30.9734C112.192 30.9966 112.164 31.0139 112.133 31.024C112.102 31.0342 112.069 31.0368 112.036 31.0317H111.214C111.182 31.0368 111.149 31.0342 111.118 31.024C111.086 31.0139 111.058 30.9966 111.035 30.9734C111.012 30.9503 110.995 30.922 110.984 30.8909C110.974 30.8598 110.972 30.8267 110.977 30.7944L111.006 30.1501C111.006 30.1266 110.997 30.104 110.981 30.0862C110.966 30.0684 110.945 30.0565 110.922 30.0526C109.328 29.8576 108.408 28.8912 108.408 27.5518V26.9542C108.404 26.922 108.407 26.8893 108.418 26.8586C108.428 26.8279 108.445 26.8 108.468 26.7771C108.491 26.7542 108.519 26.7368 108.55 26.7264C108.581 26.7159 108.613 26.7126 108.645 26.7168H110.099C110.252 26.7168 110.337 26.7888 110.337 26.8991V27.094C110.33 27.2771 110.364 27.4593 110.435 27.6283C110.506 27.7972 110.612 27.9488 110.747 28.0728C110.882 28.1968 111.042 28.2901 111.216 28.3465C111.39 28.4029 111.575 28.421 111.757 28.3995C112.651 28.3995 113.028 27.8528 113.028 27.2975C113.028 26.3056 111.21 26.153 109.87 25.2841C109.023 24.7543 108.404 24.0676 108.404 22.8808C108.404 21.4142 109.311 20.38 110.917 20.1426C110.941 20.1387 110.962 20.1268 110.977 20.1091C110.993 20.0913 111.001 20.0687 111.002 20.0451L110.972 19.2907C110.967 19.2583 110.97 19.2253 110.98 19.1941C110.99 19.163 111.008 19.1348 111.031 19.1116C111.054 19.0885 111.082 19.0711 111.113 19.061C111.144 19.0509 111.177 19.0482 111.21 19.0533H112.007C112.039 19.0491 112.072 19.0524 112.102 19.0629C112.133 19.0733 112.161 19.0907 112.184 19.1136C112.207 19.1365 112.224 19.1644 112.234 19.1951C112.245 19.2258 112.248 19.2585 112.244 19.2907V20.0324C112.245 20.056 112.254 20.0786 112.269 20.0963C112.284 20.1141 112.306 20.126 112.329 20.1299C114.024 20.3122 114.957 21.3295 114.957 22.7706V23.2326C114.961 23.2648 114.958 23.2975 114.947 23.3281C114.937 23.3588 114.919 23.3867 114.896 23.4097C114.874 23.4326 114.846 23.4499 114.815 23.4604C114.784 23.4709 114.752 23.4741 114.719 23.47H113.253C113.1 23.47 113.015 23.4149 113.015 23.3301V23.1902C113.031 23.002 113.006 22.8125 112.942 22.6349C112.877 22.4573 112.775 22.2958 112.642 22.1616C112.509 22.0274 112.348 21.9237 112.171 21.8576C111.994 21.7915 111.805 21.7646 111.617 21.7787C110.833 21.7787 110.345 22.2026 110.345 22.813C110.345 23.7201 111.617 23.8599 112.931 24.4322C114.368 25.0764 114.999 25.9708 114.999 27.2C114.999 28.7556 114.062 29.8449 112.358 30.0696Z" stroke="#263238" stroke-width="0.423866" stroke-miterlimit="10"/>
<path d="M111.587 33.0711C115.974 33.0711 119.53 29.5148 119.53 25.1278C119.53 20.7409 115.974 17.1846 111.587 17.1846C107.2 17.1846 103.644 20.7409 103.644 25.1278C103.644 29.5148 107.2 33.0711 111.587 33.0711Z" stroke="#263238" stroke-width="0.423866" stroke-miterlimit="10"/>
<path d="M48.7149 15.2978C48.6999 15.3006 48.6863 15.3084 48.6763 15.32C48.6663 15.3315 48.6605 15.3461 48.6598 15.3613V15.7852C48.6635 15.8072 48.6619 15.8297 48.6551 15.851C48.6483 15.8722 48.6365 15.8915 48.6208 15.9072C48.605 15.923 48.5857 15.9348 48.5645 15.9415C48.5433 15.9483 48.5207 15.95 48.4988 15.9463H47.9477C47.9257 15.95 47.9032 15.9483 47.882 15.9415C47.8608 15.9348 47.8415 15.923 47.8257 15.9072C47.8099 15.8915 47.7982 15.8722 47.7914 15.851C47.7846 15.8297 47.783 15.8072 47.7867 15.7852V15.3613C47.786 15.3461 47.7802 15.3315 47.7702 15.32C47.7602 15.3084 47.7466 15.3006 47.7316 15.2978C46.6634 15.1664 46.0361 14.5221 46.0361 13.6023V13.1996C46.0333 13.1778 46.0356 13.1557 46.0427 13.1349C46.0498 13.1141 46.0616 13.0952 46.0772 13.0796C46.0927 13.0641 46.1116 13.0523 46.1324 13.0452C46.1532 13.0381 46.1753 13.0358 46.1972 13.0386H47.1721C47.2738 13.0386 47.3331 13.0852 47.3331 13.1615V13.2929C47.3261 13.4164 47.3462 13.54 47.392 13.6549C47.4378 13.7699 47.5082 13.8734 47.5983 13.9582C47.6884 14.043 47.7959 14.1071 47.9134 14.1459C48.0309 14.1848 48.1555 14.1974 48.2783 14.183C48.3838 14.1975 48.4911 14.1893 48.5931 14.1589C48.6951 14.1285 48.7894 14.0766 48.8697 14.0068C48.95 13.9369 49.0144 13.8507 49.0587 13.7539C49.1029 13.6571 49.1259 13.5519 49.1261 13.4455C49.1261 12.78 47.9096 12.6783 47.0067 12.0976C46.6547 11.9142 46.3719 11.6212 46.2012 11.2628C46.0305 10.9045 45.9812 10.5003 46.0607 10.1114C46.1402 9.72245 46.3442 9.37003 46.6419 9.1074C46.9395 8.84477 47.3146 8.68624 47.7104 8.65578C47.7254 8.65293 47.739 8.6451 47.749 8.63357C47.759 8.62203 47.7648 8.60745 47.7655 8.5922V8.0878C47.7618 8.06582 47.7634 8.04328 47.7702 8.02205C47.777 8.00083 47.7888 7.98153 47.8045 7.96577C47.8203 7.95001 47.8396 7.93825 47.8608 7.93146C47.882 7.92467 47.9046 7.92305 47.9265 7.92673H48.4606C48.4824 7.92397 48.5046 7.92623 48.5254 7.93335C48.5462 7.94047 48.5651 7.95225 48.5806 7.9678C48.5961 7.98334 48.6079 8.00224 48.615 8.02304C48.6222 8.04384 48.6244 8.06599 48.6217 8.0878V8.58372C48.6224 8.59897 48.6282 8.61355 48.6382 8.62509C48.6482 8.63663 48.6618 8.64445 48.6768 8.6473C49.8 8.77022 50.4358 9.45265 50.4358 10.4148V10.7242C50.4386 10.7461 50.4363 10.7682 50.4292 10.789C50.4221 10.8098 50.4103 10.8287 50.3948 10.8442C50.3792 10.8598 50.3603 10.8716 50.3395 10.8787C50.3187 10.8858 50.2966 10.8881 50.2748 10.8853H49.2914C49.1897 10.8853 49.1303 10.8472 49.1303 10.7921V10.6988C49.1415 10.5739 49.1256 10.448 49.0837 10.3297C49.0419 10.2115 48.975 10.1036 48.8878 10.0135C48.8005 9.92344 48.6948 9.85321 48.5779 9.80762C48.4611 9.76203 48.3358 9.74216 48.2105 9.74935C47.6849 9.74935 47.3628 10.0206 47.3628 10.4403C47.3628 11.0464 48.2105 11.1439 49.0922 11.5254C50.0543 11.9492 50.4782 12.5553 50.4782 13.3776C50.4824 14.4119 49.8551 15.1494 48.7149 15.2978Z" stroke="#263238" stroke-width="0.423866" stroke-miterlimit="10"/>
<path d="M48.1979 17.307C51.1358 17.307 53.5175 14.9254 53.5175 11.9875C53.5175 9.0496 51.1358 6.66797 48.1979 6.66797C45.26 6.66797 42.8784 9.0496 42.8784 11.9875C42.8784 14.9254 45.26 17.307 48.1979 17.307Z" stroke="#263238" stroke-width="0.423866" stroke-miterlimit="10"/>
<path d="M7.54068 68.5858C7.52568 68.5887 7.51207 68.5965 7.50207 68.6081C7.49207 68.6196 7.48626 68.6342 7.48557 68.6494V69.0733C7.48926 69.0953 7.48763 69.1178 7.48084 69.139C7.47405 69.1603 7.46229 69.1796 7.44653 69.1953C7.43077 69.2111 7.41147 69.2228 7.39025 69.2296C7.36902 69.2364 7.34648 69.238 7.3245 69.2344H6.78196C6.75998 69.238 6.73744 69.2364 6.71621 69.2296C6.69498 69.2228 6.67569 69.2111 6.65993 69.1953C6.64417 69.1796 6.63241 69.1603 6.62562 69.139C6.61883 69.1178 6.6172 69.0953 6.62089 69.0733V68.6494C6.6202 68.6342 6.61439 68.6196 6.60439 68.6081C6.59439 68.5965 6.58078 68.5887 6.56578 68.5858C5.49764 68.4544 4.87032 67.8102 4.87032 66.8904V66.4877C4.86756 66.4659 4.86982 66.4437 4.87694 66.4229C4.88406 66.4022 4.89584 66.3833 4.91139 66.3677C4.92693 66.3522 4.94583 66.3404 4.96663 66.3333C4.98743 66.3261 5.00958 66.3239 5.03139 66.3266H6.00628C6.10801 66.3266 6.16735 66.3733 6.16735 66.4496V66.581C6.16032 66.7045 6.18041 66.8281 6.22623 66.943C6.27204 67.0579 6.34246 67.1615 6.43253 67.2463C6.52261 67.3311 6.63017 67.3952 6.74765 67.434C6.86513 67.4729 6.98968 67.4855 7.11257 67.4711C7.21801 67.4856 7.32533 67.4774 7.42734 67.447C7.52934 67.4166 7.62365 67.3647 7.70395 67.2949C7.78425 67.225 7.84867 67.1388 7.89289 67.042C7.9371 66.9451 7.96009 66.84 7.9603 66.7336C7.9603 66.0681 6.74381 65.9664 5.84097 65.3857C5.48891 65.2023 5.20614 64.9093 5.03544 64.5509C4.86475 64.1926 4.81543 63.7883 4.89493 63.3994C4.97443 63.0105 5.17844 62.6581 5.47609 62.3955C5.77373 62.1329 6.14882 61.9743 6.54459 61.9439C6.55959 61.941 6.57319 61.9332 6.58319 61.9217C6.59319 61.9101 6.59901 61.8955 6.59969 61.8803V61.3759C6.59601 61.3539 6.59763 61.3314 6.60442 61.3101C6.61122 61.2889 6.62298 61.2696 6.63874 61.2539C6.6545 61.2381 6.67379 61.2263 6.69502 61.2195C6.71624 61.2128 6.73878 61.2111 6.76076 61.2148H7.29483C7.31664 61.2121 7.3388 61.2143 7.35959 61.2214C7.38039 61.2286 7.39929 61.2403 7.41483 61.2559C7.43038 61.2714 7.44216 61.2903 7.44928 61.3111C7.4564 61.3319 7.45866 61.3541 7.4559 61.3759V61.8718C7.45659 61.8871 7.4624 61.9016 7.4724 61.9132C7.4824 61.9247 7.496 61.9325 7.51101 61.9354C8.63425 62.0583 9.27005 62.7407 9.27005 63.7029V64.0039C9.27281 64.0257 9.27054 64.0478 9.26343 64.0686C9.25631 64.0894 9.24453 64.1083 9.22898 64.1239C9.21344 64.1394 9.19454 64.1512 9.17374 64.1583C9.15294 64.1654 9.13079 64.1677 9.10898 64.1649H8.12985C8.02812 64.1649 7.96878 64.1268 7.96878 64.0717V64.0039C7.9796 63.8777 7.96286 63.7508 7.91973 63.6317C7.8766 63.5127 7.80811 63.4045 7.71901 63.3146C7.6299 63.2247 7.52231 63.1552 7.40369 63.111C7.28507 63.0668 7.15825 63.049 7.03204 63.0586C6.50644 63.0586 6.1843 63.3299 6.1843 63.7495C6.1843 64.3557 7.03204 64.4532 7.91368 64.8346C8.87585 65.2585 9.29972 65.8646 9.29972 66.6869C9.32515 67.7042 8.68088 68.4333 7.54068 68.5858Z" stroke="#263238" stroke-width="0.423866" stroke-miterlimit="10"/>
<path d="M7.02338 70.5951C9.96127 70.5951 12.3429 68.2135 12.3429 65.2756C12.3429 62.3377 9.96127 59.9561 7.02338 59.9561C4.08549 59.9561 1.70386 62.3377 1.70386 65.2756C1.70386 68.2135 4.08549 70.5951 7.02338 70.5951Z" stroke="#263238" stroke-width="0.423866" stroke-miterlimit="10"/>
<path d="M92.5724 176.451C132.614 176.451 165.075 175.305 165.075 173.891C165.075 172.477 132.614 171.331 92.5724 171.331C52.5305 171.331 20.0701 172.477 20.0701 173.891C20.0701 175.305 52.5305 176.451 92.5724 176.451Z" fill="#CCCCCC"/>
<path d="M87.3588 150.875C87.3588 150.875 90.8854 166.032 89.351 168.525C87.3461 171.784 65.979 173.747 65.979 173.747H113.092C113.092 173.747 118.996 172.089 117.22 167.342C115.847 163.672 109.256 150.875 109.256 150.875H87.3588Z" fill="white" stroke="#263238" stroke-width="0.423866" stroke-linecap="round" stroke-linejoin="round"/>
<path d="M86.3247 150.875C86.3247 150.875 90.0844 166.16 88.3168 168.525C86.5493 170.89 65.9749 172.696 65.9749 172.696H113.312C113.312 172.696 117.292 171.085 116.186 167.342C115.08 163.599 108.222 150.875 108.222 150.875H86.3247Z" fill="white" stroke="#263238" stroke-width="0.423866" stroke-linecap="round" stroke-linejoin="round"/>
<path d="M108.226 150.875H86.3247C86.3247 150.875 88.55 159.933 88.7704 165.18H115.368C113.215 160.132 108.226 150.875 108.226 150.875Z" fill="#263238" stroke="#263238" stroke-width="0.423866" stroke-linecap="round" stroke-linejoin="round"/>
<path d="M113.088 172.768H65.9749V173.742H113.088V172.768Z" fill="white" stroke="#263238" stroke-width="0.423866" stroke-linecap="round" stroke-linejoin="round"/>
<path d="M166.363 45.748H31.3959C29.4108 45.748 27.8015 47.3573 27.8015 49.3424V148.769C27.8015 150.754 29.4108 152.363 31.3959 152.363H166.363C168.349 152.363 169.958 150.754 169.958 148.769V49.3424C169.958 47.3573 168.349 45.748 166.363 45.748Z" fill="white" stroke="#263238" stroke-width="0.423866" stroke-linecap="round" stroke-linejoin="round"/>
<path d="M163.015 45.748H28.0473C26.0621 45.748 24.4529 47.3573 24.4529 49.3424V148.769C24.4529 150.754 26.0621 152.363 28.0473 152.363H163.015C165 152.363 166.609 150.754 166.609 148.769V49.3424C166.609 47.3573 165 45.748 163.015 45.748Z" fill="#263238" stroke="#263238" stroke-width="0.423866" stroke-linecap="round" stroke-linejoin="round"/>
<path d="M24.4529 135.794H166.609V148.777C166.609 149.73 166.23 150.645 165.556 151.319C164.882 151.993 163.968 152.371 163.015 152.371H28.0473C27.094 152.371 26.1797 151.993 25.5057 151.319C24.8316 150.645 24.4529 149.73 24.4529 148.777V135.794Z" fill="white" stroke="#263238" stroke-width="0.423866" stroke-linecap="round" stroke-linejoin="round"/>
<path d="M159.459 52.3818H31.6035V127.707H159.459V52.3818Z" fill="white" stroke="#263238" stroke-width="0.423866" stroke-linecap="round" stroke-linejoin="round"/>
<path d="M146.547 95.7471H38.0122V100.511H146.547V95.7471Z" fill="#25CCB3"/>
<path d="M146.547 104.75H38.0122V109.514H146.547V104.75Z" fill="#25CCB3"/>
<path d="M38.0039 67.3311H57.0991" stroke="#263238" stroke-width="0.423866" stroke-miterlimit="10"/>
<path d="M38.0039 70.1377H57.0991" stroke="#263238" stroke-width="0.423866" stroke-miterlimit="10"/>
<path d="M99.918 70.1377H119.013" stroke="#263238" stroke-width="0.423866" stroke-miterlimit="10"/>
<path d="M99.918 72.9307H119.013" stroke="#263238" stroke-width="0.423866" stroke-miterlimit="10"/>
<path d="M99.918 75.7236H119.013" stroke="#263238" stroke-width="0.423866" stroke-miterlimit="10"/>
<path d="M38.0039 72.9473H57.0991" stroke="#263238" stroke-width="0.423866" stroke-miterlimit="10"/>
<path d="M38.0039 120.077H57.0991" stroke="#263238" stroke-width="0.423866" stroke-miterlimit="10"/>
<path d="M38.0039 122.68H57.0991" stroke="#263238" stroke-width="0.423866" stroke-miterlimit="10"/>
<path d="M38.0039 75.7539H57.0991" stroke="#263238" stroke-width="0.423866" stroke-miterlimit="10"/>
<path d="M83.773 78.5635H38.0039V83.616H83.773V78.5635Z" fill="#25CCB3"/>
<path d="M146.386 73.5068H122.239V76.0331H146.386V73.5068Z" fill="#25CCB3"/>
<path d="M146.386 67.0518H122.239V76.0377H146.386V67.0518Z" stroke="#263238" stroke-width="0.423866" stroke-miterlimit="10"/>
<path d="M146.386 69.5781H122.239V73.5074H146.386V69.5781Z" stroke="#263238" stroke-width="0.423866" stroke-miterlimit="10"/>
<path d="M125.914 67.1279V75.9274" stroke="#263238" stroke-width="0.423866" stroke-miterlimit="10"/>
<path d="M146.547 87.0117H38.0122V117.454H146.547V87.0117Z" stroke="#263238" stroke-width="0.423866" stroke-miterlimit="10"/>
<path d="M146.547 87.0117H38.0122V91.776H146.547V87.0117Z" fill="#25CCB3" stroke="#263238" stroke-width="0.423866" stroke-miterlimit="10"/>
<path d="M114.635 87.126V117.403" stroke="#263238" stroke-width="0.423866" stroke-miterlimit="10"/>
<path d="M126.431 87.126V117.403" stroke="#263238" stroke-width="0.423866" stroke-miterlimit="10"/>
<path d="M126.617 119.823H111.134V125.757H126.617V119.823Z" fill="#25CCB3"/>
<path d="M117.131 122.421C117.134 122.561 117.108 122.699 117.053 122.828C116.999 122.956 116.918 123.072 116.816 123.167C116.714 123.262 116.593 123.335 116.461 123.38C116.329 123.426 116.189 123.442 116.05 123.43H115.381C115.373 123.43 115.365 123.433 115.36 123.439C115.354 123.444 115.351 123.452 115.351 123.46V124.646C115.352 124.657 115.351 124.668 115.348 124.679C115.344 124.689 115.338 124.699 115.33 124.706C115.323 124.714 115.313 124.72 115.303 124.724C115.292 124.727 115.281 124.728 115.27 124.727H114.762C114.751 124.728 114.74 124.727 114.729 124.724C114.719 124.72 114.71 124.714 114.702 124.706C114.694 124.699 114.688 124.689 114.685 124.679C114.681 124.668 114.68 124.657 114.681 124.646V121.472C114.68 121.461 114.681 121.45 114.685 121.439C114.688 121.429 114.694 121.419 114.702 121.412C114.71 121.404 114.719 121.398 114.729 121.394C114.74 121.391 114.751 121.39 114.762 121.391H116.08C116.219 121.381 116.358 121.401 116.489 121.449C116.619 121.497 116.738 121.572 116.837 121.67C116.937 121.767 117.014 121.884 117.065 122.014C117.116 122.143 117.138 122.282 117.131 122.421ZM116.466 122.421C116.468 122.357 116.457 122.294 116.434 122.235C116.41 122.175 116.373 122.122 116.327 122.078C116.281 122.034 116.226 122 116.166 121.979C116.106 121.957 116.042 121.949 115.978 121.955H115.376C115.372 121.954 115.368 121.954 115.364 121.956C115.36 121.957 115.357 121.959 115.354 121.962C115.351 121.965 115.349 121.968 115.347 121.972C115.346 121.976 115.346 121.98 115.347 121.985V122.832C115.346 122.836 115.346 122.84 115.347 122.844C115.349 122.848 115.351 122.852 115.354 122.855C115.357 122.858 115.36 122.86 115.364 122.861C115.368 122.862 115.372 122.863 115.376 122.862H115.978C116.038 122.867 116.099 122.86 116.156 122.842C116.213 122.823 116.266 122.793 116.312 122.753C116.357 122.714 116.394 122.665 116.421 122.611C116.447 122.557 116.463 122.498 116.466 122.438V122.421Z" fill="#263238"/>
<path d="M119.335 124.663L119.204 124.239C119.204 124.239 119.204 124.214 119.174 124.214H118.004C118.001 124.213 117.997 124.213 117.993 124.214C117.99 124.215 117.986 124.217 117.984 124.22C117.981 124.222 117.978 124.225 117.977 124.229C117.975 124.232 117.975 124.236 117.975 124.239L117.843 124.663C117.838 124.683 117.827 124.701 117.811 124.713C117.795 124.725 117.775 124.732 117.754 124.731H117.203C117.148 124.731 117.118 124.693 117.135 124.642L118.148 121.467C118.153 121.447 118.165 121.43 118.181 121.418C118.197 121.405 118.217 121.399 118.237 121.399H118.937C118.957 121.399 118.977 121.405 118.993 121.418C119.009 121.43 119.021 121.447 119.026 121.467L120.039 124.642C120.039 124.693 120.039 124.731 119.971 124.731H119.42C119.4 124.731 119.381 124.724 119.366 124.712C119.351 124.699 119.34 124.682 119.335 124.663ZM118.17 123.676H119.017C119.017 123.676 119.047 123.676 119.043 123.642L118.619 122.188C118.619 122.162 118.589 122.162 118.581 122.188L118.157 123.642C118.14 123.667 118.148 123.676 118.165 123.676H118.17Z" fill="#263238"/>
<path d="M120.904 124.643V123.464C120.906 123.452 120.906 123.439 120.904 123.426L119.941 121.489C119.912 121.438 119.941 121.392 119.997 121.392H120.548C120.567 121.392 120.587 121.399 120.603 121.41C120.62 121.421 120.633 121.437 120.641 121.455L121.221 122.693H121.26L121.84 121.455C121.848 121.437 121.861 121.421 121.878 121.41C121.894 121.399 121.914 121.392 121.934 121.392H122.497C122.561 121.392 122.586 121.434 122.561 121.489L121.59 123.426C121.588 123.439 121.588 123.452 121.59 123.464V124.643C121.592 124.654 121.59 124.665 121.587 124.675C121.583 124.685 121.577 124.695 121.57 124.703C121.562 124.71 121.552 124.716 121.542 124.72C121.532 124.723 121.521 124.725 121.51 124.723H121.005C120.993 124.729 120.98 124.731 120.966 124.73C120.953 124.728 120.94 124.723 120.929 124.715C120.919 124.706 120.911 124.695 120.906 124.682C120.901 124.67 120.901 124.656 120.904 124.643Z" fill="#263238"/>
<path d="M159.459 52.3818H31.6035V55.8618H159.459V52.3818Z" fill="#25CCB3" stroke="#263238" stroke-width="0.423866" stroke-linecap="round" stroke-linejoin="round"/>
<path d="M95.531 146.704C96.98 146.704 98.1547 145.53 98.1547 144.081C98.1547 142.632 96.98 141.457 95.531 141.457C94.0819 141.457 92.9072 142.632 92.9072 144.081C92.9072 145.53 94.0819 146.704 95.531 146.704Z" fill="#263238" stroke="#263238" stroke-width="0.423866" stroke-linecap="round" stroke-linejoin="round"/>
<path d="M169.051 183.205C182.258 183.205 192.965 181.267 192.965 178.876C192.965 176.485 182.258 174.547 169.051 174.547C155.843 174.547 145.136 176.485 145.136 178.876C145.136 181.267 155.843 183.205 169.051 183.205Z" fill="#CCCCCC"/>
<path d="M154.269 67.9054C154.269 67.9054 151.692 68.8688 150.886 72.4933C150.079 76.1179 148.393 87.0638 147.502 92.2176C146.611 97.3714 141.872 114.121 141.872 114.121L144.365 115.813C144.365 115.813 150.482 106.878 152.192 102.694C153.902 98.5094 155.576 95.6073 155.805 92.3922C156.033 89.1771 155.642 71.4637 155.642 70.1151C155.642 68.7664 154.992 67.7609 154.269 67.9054Z" fill="#226EBE" stroke="#263238" stroke-width="0.602085" stroke-linecap="round" stroke-linejoin="round"/>
<path d="M156.605 173.012C156.605 173.012 150.247 177.118 149.519 178.569C148.79 180.02 150.163 180.423 153.733 179.936C157.304 179.448 159.754 177.599 161.464 176.636C163.174 175.673 163.957 175.589 163.397 173.415C162.837 171.241 156.605 173.012 156.605 173.012Z" fill="white" stroke="#263238" stroke-width="0.602085" stroke-linecap="round" stroke-linejoin="round"/>
<path d="M181.484 173.656C181.484 173.656 188.486 178.406 188.107 179.454C187.727 180.501 185.614 180.983 181.911 179.773C178.208 178.563 177.401 177.599 175.89 176.311C174.379 175.022 174.927 173.415 174.927 172.283C174.927 171.151 181.484 173.656 181.484 173.656Z" fill="white" stroke="#263238" stroke-width="0.602085" stroke-linecap="round" stroke-linejoin="round"/>
<path d="M153.306 100.104C153.306 100.104 151.855 112.821 151.698 122.984C151.542 133.147 156.196 171.801 156.196 172.204V173.408C157.39 173.95 158.67 174.276 159.977 174.372C161.348 174.407 162.72 174.352 164.083 174.209C164.083 174.209 164.083 167.044 164.246 161.493C164.408 155.942 165.294 130.606 165.294 130.606L165.534 119.66L167.142 120.708L174.71 174.372L181.472 173.649C181.472 173.649 182.278 137.933 182.116 128.113C181.953 118.293 180.021 100.984 180.021 100.984L153.306 100.104Z" fill="#263238" stroke="#263238" stroke-width="0.602085" stroke-linecap="round" stroke-linejoin="round"/>
<path d="M165.944 64.1483C165.944 64.1483 155.239 67.4477 154.269 67.9293C153.3 68.411 152.662 70.9879 152.662 74.2091C152.662 77.4302 153.866 93.3674 153.709 95.282C153.553 97.1967 152.583 99.6291 153.39 100.996C154.197 102.363 164.83 103.248 170.538 103.007C176.245 102.766 179.472 103.326 180.279 101.718C181.086 100.111 181.568 80.2239 182.375 75.636C183.181 71.0481 183.741 68.6338 182.134 67.3453C180.526 66.0569 171.989 64.5276 169.899 64.0459L165.944 64.1483Z" fill="#226EBE" stroke="#263238" stroke-width="0.602085" stroke-linecap="round" stroke-linejoin="round"/>
<path d="M165.582 62.0954C165.582 62.0954 163.812 62.6975 163.216 64.0281C162.62 65.3587 160.85 71.9817 161.494 72.3008C162.139 72.6199 167.136 70.2055 167.888 70.3681C168.641 70.5307 171.706 74.5044 172.615 73.9806C173.524 73.4568 175.685 67.7611 174.861 64.8891C174.036 62.0172 166.389 61.3428 165.582 62.0954Z" fill="white" stroke="#263238" stroke-width="0.602085" stroke-linecap="round" stroke-linejoin="round"/>
<path d="M164.625 60.265C164.625 60.265 164.571 63.2212 164.571 64.7264C164.571 66.2316 165.86 71.6022 166.979 71.3915C168.099 71.1808 172.783 65.9125 173.536 64.5157C174.289 63.1188 174.451 60.2168 174.451 60.2168C174.451 60.2168 171.122 62.583 168.593 61.8304C167.222 61.44 165.893 60.9157 164.625 60.265Z" fill="white" stroke="#263238" stroke-width="0.602085" stroke-linecap="round" stroke-linejoin="round"/>
<path d="M168.593 61.8245C167.22 61.4365 165.889 60.9142 164.619 60.2651C164.619 60.2651 164.619 61.4271 164.583 62.6735C164.95 63.4622 165.299 64.1245 165.546 64.5941C165.868 65.3318 166.462 65.9167 167.205 66.2264C167.948 66.5361 168.782 66.5466 169.532 66.2559C171.28 65.4855 172.835 64.3358 174.084 62.8902C174.27 62.007 174.392 61.1116 174.451 60.2109C174.451 60.2109 171.116 62.5771 168.593 61.8245Z" fill="#263238" stroke="#263238" stroke-width="0.602085" stroke-linecap="round" stroke-linejoin="round"/>
<path d="M163.355 51.625C163.355 51.625 163.048 49.4816 162.042 50.3546C161.037 51.2276 161.211 53.4192 161.693 54.4728C162.175 55.5265 162.698 55.394 162.831 55.3459C162.963 55.2977 163.355 51.625 163.355 51.625Z" fill="white" stroke="#263238" stroke-width="0.602085" stroke-linecap="round" stroke-linejoin="round"/>
<path d="M177.365 53.6843C177.498 53.4675 179.117 48.0367 179.208 45.0985C179.298 42.1604 175.047 39.4028 172.025 38.8369C169.002 38.2709 164.535 39.0115 163.596 40.7214C162.656 42.4313 162.542 49.1506 162.542 50.2704C162.542 51.3903 163.415 51.583 163.638 51.3241C163.861 51.0652 164.511 44.4483 164.908 43.9666C165.306 43.485 172.308 43.7017 173.404 44.0088C174.499 44.3158 175.114 45.4538 174.891 47.1155C174.668 48.7773 174.933 48.693 175.372 49.6563C175.812 50.6197 175.812 50.9689 175.812 52.2814C175.812 53.594 176.444 55.1714 177.365 53.6843Z" fill="#263238" stroke="#263238" stroke-width="0.602085" stroke-linecap="round" stroke-linejoin="round"/>
<path d="M164.318 43.7439C163.574 46.9601 163.047 50.2228 162.741 53.5097C162.524 57.4052 164.667 61.4392 165.546 63.1009C165.868 63.8386 166.462 64.4235 167.205 64.7332C167.948 65.0429 168.782 65.0535 169.532 64.7627C171.631 63.8196 173.455 62.3566 174.831 60.512C176.45 58.4107 177.281 53.3712 177.281 53.3712C177.281 53.3712 176.625 53.7204 176.583 53.1545C176.54 52.5885 176.974 50.6137 176.54 49.3433C176.107 48.0729 175.138 47.7658 175.71 46.5376C176.077 45.849 176.343 45.1108 176.498 44.346C176.498 44.1292 174.307 42.8107 170.321 42.4614C166.335 42.1122 164.535 42.6481 164.318 43.7439Z" fill="white" stroke="#263238" stroke-width="0.602085" stroke-linecap="round" stroke-linejoin="round"/>
<path d="M164.751 47.3323C164.751 47.3323 165.956 46.3088 167.563 47.4829" stroke="#263238" stroke-width="0.602085" stroke-linecap="round" stroke-linejoin="round"/>
<path d="M170.646 47.7954C170.646 47.7954 173.458 46.6695 174.578 48.6624" stroke="#263238" stroke-width="0.602085" stroke-linecap="round" stroke-linejoin="round"/>
<path d="M176.841 54.0332C176.841 54.0332 177.714 52.0644 178.985 51.9741C180.255 51.8837 180.081 54.3824 178.895 56.002C177.708 57.6216 176.005 58.2779 175.962 57.0978" fill="white"/>
<path d="M176.841 54.0332C176.841 54.0332 177.714 52.0644 178.985 51.9741C180.255 51.8837 180.081 54.3824 178.895 56.002C177.708 57.6216 176.005 58.2779 175.962 57.0978" stroke="#263238" stroke-width="0.602085" stroke-linecap="round" stroke-linejoin="round"/>
<path d="M168.238 50.4873C168.238 50.4873 166.793 54.6477 167.1 55.2197C167.407 55.7917 168.587 56.4239 170.032 55.7435" stroke="#263238" stroke-width="0.602085" stroke-linecap="round" stroke-linejoin="round"/>
<path d="M168.84 57.7119C169.472 57.9291 170.149 57.9828 170.808 57.8681C171.467 57.7533 172.087 57.4739 172.609 57.0557" stroke="#263238" stroke-width="0.602085" stroke-linecap="round" stroke-linejoin="round"/>
<path d="M166.437 51.4921C166.644 51.4921 166.811 51.1094 166.811 50.6372C166.811 50.165 166.644 49.7822 166.437 49.7822C166.231 49.7822 166.064 50.165 166.064 50.6372C166.064 51.1094 166.231 51.4921 166.437 51.4921Z" fill="#263238"/>
<path d="M171.916 52.0644C172.122 52.0644 172.29 51.6816 172.29 51.2095C172.29 50.7373 172.122 50.3545 171.916 50.3545C171.71 50.3545 171.543 50.7373 171.543 51.2095C171.543 51.6816 171.71 52.0644 171.916 52.0644Z" fill="#263238"/>
<path d="M165.781 52.8957C167.171 52.8957 168.298 51.769 168.298 50.379C168.298 48.9891 167.171 47.8623 165.781 47.8623C164.391 47.8623 163.264 48.9891 163.264 50.379C163.264 51.769 164.391 52.8957 165.781 52.8957Z" stroke="#263238" stroke-width="0.602085" stroke-linecap="round" stroke-linejoin="round"/>
<path d="M172.181 53.564C173.644 53.564 174.831 52.3779 174.831 50.9148C174.831 49.4517 173.644 48.2656 172.181 48.2656C170.718 48.2656 169.532 49.4517 169.532 50.9148C169.532 52.3779 170.718 53.564 172.181 53.564Z" stroke="#263238" stroke-width="0.602085" stroke-linecap="round" stroke-linejoin="round"/>
<path d="M168.298 49.915C168.494 49.8126 168.719 49.7783 168.937 49.8176C169.155 49.8568 169.354 49.9673 169.502 50.1317" stroke="#263238" stroke-width="0.602085" stroke-linecap="round" stroke-linejoin="round"/>
<path d="M174.782 51.1855L177.937 52.5041" stroke="#263238" stroke-width="0.602085" stroke-linecap="round" stroke-linejoin="round"/>
<path d="M142.517 112.261L145.9 113.627" stroke="#263238" stroke-width="0.602085" stroke-linecap="round" stroke-linejoin="round"/>
<path d="M139.398 122.55C139.398 122.55 139.873 125.332 140.205 125.476C140.536 125.621 140.644 124.122 140.536 123.17L140.427 122.219C140.427 122.219 140.939 124.706 141.451 124.929C141.963 125.151 141.668 124.049 141.523 123.502L141.379 122.954C141.379 122.954 142.661 124.308 142.769 123.977C142.878 123.646 141.999 122.002 141.963 121.888C141.757 121.254 141.598 120.606 141.487 119.949C141.451 119.438 140.716 117.384 139.988 118.667C139.259 119.949 139.398 122.55 139.398 122.55Z" fill="white" stroke="#263238" stroke-width="0.602085" stroke-linecap="round" stroke-linejoin="round"/>
<path d="M141.872 114.121C141.872 114.121 139.464 117.986 138.814 119.275C138.164 120.563 137.688 125.392 138.248 125.717C138.808 126.042 138.97 124.868 139.097 124.049C139.326 123.085 139.67 122.151 140.12 121.268C140.12 121.268 139.771 124.351 140.259 124.278C140.746 124.206 141.144 121.382 141.463 120.666C141.782 119.949 143.715 118.896 144.359 115.849L141.872 114.121Z" fill="#FFFBFB" stroke="#263238" stroke-width="0.602085" stroke-linecap="round" stroke-linejoin="round"/>
<path d="M140.126 121.25C140.126 121.25 140.126 120.835 140.421 119.312L140.126 121.25Z" fill="white"/>
<path d="M140.126 121.25C140.126 121.25 140.126 120.835 140.421 119.312" stroke="#263238" stroke-width="0.602085" stroke-linecap="round" stroke-linejoin="round"/>
<path d="M181.803 67.1592C183.632 68.5452 185.028 70.4253 185.825 72.5779C187.354 76.359 192.586 92.8622 192.749 93.1873C192.911 93.5124 192.749 96.7276 190.172 97.7752C187.595 98.8228 186.391 96.571 184.861 93.9941C183.332 91.4172 179.792 79.9896 179.792 79.9896" fill="#226EBE"/>
<path d="M181.803 67.1592C183.632 68.5452 185.028 70.4253 185.825 72.5779C187.354 76.359 192.586 92.8622 192.749 93.1873C192.911 93.5124 192.749 96.7276 190.172 97.7752C187.595 98.8228 186.391 96.571 184.861 93.9941C183.332 91.4172 179.792 79.9896 179.792 79.9896" stroke="#263238" stroke-width="0.602085" stroke-linecap="round" stroke-linejoin="round"/>
<path d="M188.402 88.5151L200.901 82.3799L203.074 84.8725C203.074 84.8725 193.875 96.0593 191.864 97.3658C189.853 98.6723 187.354 98.3291 186.391 96.1616" fill="#226EBE"/>
<path d="M188.402 88.5151L200.901 82.3799L203.074 84.8725C203.074 84.8725 193.875 96.0593 191.864 97.3658C189.853 98.6723 187.354 98.3291 186.391 96.1616" stroke="#263238" stroke-width="0.602085" stroke-linecap="round" stroke-linejoin="round"/>
<path d="M199.534 83.2588L201.864 86.0766" stroke="#263238" stroke-width="0.602085" stroke-linecap="round" stroke-linejoin="round"/>
<path d="M200.901 82.373C200.901 82.373 203.64 78.1043 204.441 77.7852C205.242 77.466 207.5 76.9784 208.788 76.015C210.077 75.0517 210.799 75.2925 210.077 76.3341C209.354 77.3757 208.547 77.5383 207.825 77.8634C207.458 78.0164 207.107 78.206 206.777 78.4294C206.777 78.4294 208.788 78.5077 210.077 78.5919C210.859 78.6394 211.644 78.5847 212.413 78.4294C212.413 78.4294 215.712 76.9784 214.905 78.7485C214.099 80.5186 214.183 81.6445 210.962 82.6139C208.866 83.2084 206.698 83.5063 204.519 83.4989L203.068 84.8657L200.901 82.373Z" fill="white" stroke="#263238" stroke-width="0.602085" stroke-linecap="round" stroke-linejoin="round"/>
<path d="M213.538 81.4103C214.049 81.2263 214.51 80.9275 214.887 80.5372C215.264 80.1468 215.546 79.6751 215.712 79.1585C216.278 77.3884 215.953 77.3041 215.23 77.9543C214.523 78.6785 213.95 79.5225 213.538 80.447C213.135 81.2477 213.538 81.4103 213.538 81.4103Z" fill="white" stroke="#263238" stroke-width="0.602085" stroke-linecap="round" stroke-linejoin="round"/>
<path d="M212.792 81.4886C212.792 81.4886 213.755 82.1329 214.484 80.2002C215.212 78.2675 215.128 76.7382 214.484 77.0633C213.84 77.3884 213.677 77.4667 212.876 79.1586C212.075 80.8504 211.347 81.5669 211.829 81.7355C211.997 81.7695 212.172 81.765 212.339 81.7222C212.505 81.6795 212.66 81.5996 212.792 81.4886Z" fill="white" stroke="#263238" stroke-width="0.602085" stroke-linecap="round" stroke-linejoin="round"/>
<path d="M203.556 82.211C203.556 82.211 204.76 80.2001 206.133 80.2001C207.807 80.3241 209.473 80.5392 211.124 80.8443C211.124 80.8443 213.779 76.9789 214.345 77.5449C214.911 78.1108 213.46 80.766 212.816 81.4885C212.172 82.211 212.093 82.2953 211.528 82.4519" fill="white"/>
<path d="M203.556 82.211C203.556 82.211 204.76 80.2001 206.133 80.2001C207.807 80.3241 209.473 80.5392 211.124 80.8443C211.124 80.8443 213.779 76.9789 214.345 77.5449C214.911 78.1108 213.46 80.766 212.816 81.4885C212.172 82.211 212.093 82.2953 211.528 82.4519" stroke="#263238" stroke-width="0.602085" stroke-linecap="round" stroke-linejoin="round"/>
<path d="M41.5386 64L40.6806 62.77C40.6446 62.774 40.5906 62.776 40.5186 62.776H39.5706V64H38.7906V59.8H40.5186C40.8826 59.8 41.1986 59.86 41.4666 59.98C41.7386 60.1 41.9466 60.272 42.0906 60.496C42.2346 60.72 42.3066 60.986 42.3066 61.294C42.3066 61.61 42.2286 61.882 42.0726 62.11C41.9206 62.338 41.7006 62.508 41.4126 62.62L42.3786 64H41.5386ZM41.5206 61.294C41.5206 61.026 41.4326 60.82 41.2566 60.676C41.0806 60.532 40.8226 60.46 40.4826 60.46H39.5706V62.134H40.4826C40.8226 62.134 41.0806 62.062 41.2566 61.918C41.4326 61.77 41.5206 61.562 41.5206 61.294ZM46.5093 63.346V64H43.3593V59.8H46.4253V60.454H44.1393V61.546H46.1673V62.188H44.1393V63.346H46.5093ZM49.4852 64.06C49.0612 64.06 48.6772 63.968 48.3332 63.784C47.9932 63.596 47.7252 63.338 47.5292 63.01C47.3372 62.682 47.2412 62.312 47.2412 61.9C47.2412 61.488 47.3392 61.118 47.5352 60.79C47.7312 60.462 47.9992 60.206 48.3392 60.022C48.6832 59.834 49.0672 59.74 49.4912 59.74C49.8352 59.74 50.1492 59.8 50.4332 59.92C50.7172 60.04 50.9572 60.214 51.1532 60.442L50.6492 60.916C50.3452 60.588 49.9712 60.424 49.5272 60.424C49.2392 60.424 48.9812 60.488 48.7532 60.616C48.5252 60.74 48.3472 60.914 48.2192 61.138C48.0912 61.362 48.0272 61.616 48.0272 61.9C48.0272 62.184 48.0912 62.438 48.2192 62.662C48.3472 62.886 48.5252 63.062 48.7532 63.19C48.9812 63.314 49.2392 63.376 49.5272 63.376C49.9712 63.376 50.3452 63.21 50.6492 62.878L51.1532 63.358C50.9572 63.586 50.7152 63.76 50.4272 63.88C50.1432 64 49.8292 64.06 49.4852 64.06ZM55.2306 63.346V64H52.0806V59.8H55.1466V60.454H52.8606V61.546H54.8886V62.188H52.8606V63.346H55.2306ZM56.2801 59.8H57.0601V64H56.2801V59.8ZM60.1041 59.8C60.4681 59.8 60.7841 59.86 61.0521 59.98C61.3241 60.1 61.5321 60.272 61.6761 60.496C61.8201 60.72 61.8921 60.986 61.8921 61.294C61.8921 61.598 61.8201 61.864 61.6761 62.092C61.5321 62.316 61.3241 62.488 61.0521 62.608C60.7841 62.728 60.4681 62.788 60.1041 62.788H59.1561V64H58.3761V59.8H60.1041ZM60.0681 62.128C60.4081 62.128 60.6661 62.056 60.8421 61.912C61.0181 61.768 61.1061 61.562 61.1061 61.294C61.1061 61.026 61.0181 60.82 60.8421 60.676C60.6661 60.532 60.4081 60.46 60.0681 60.46H59.1561V62.128H60.0681ZM63.58 60.46H62.188V59.8H65.752V60.46H64.36V64H63.58V60.46Z" fill="black"/>
</g>
<defs>
<clipPath id="clip0">
<rect width="232" height="183" fill="white"/>
</clipPath>
</defs>
</svg>
