<svg width="600" height="690" viewBox="0 0 600 690" fill="none" xmlns="http://www.w3.org/2000/svg">
<path d="M445.349 246.252V268.854C428.497 281.269 407.654 288.625 385.101 288.625C334.953 288.625 293.303 252.343 284.965 204.573C297.899 201.598 311.367 200.031 325.173 200.031C371.401 200.031 413.551 217.522 445.349 246.252ZM385.101 85.3608C328.949 85.3608 283.451 130.869 283.451 186.975C283.451 192.96 283.968 198.855 284.965 204.573C297.899 201.598 311.367 200.031 325.173 200.031C371.401 200.031 413.551 217.522 445.349 246.252V105.114C428.497 92.6991 407.654 85.3608 385.101 85.3608Z" fill="#76DBC9"/>
<path d="M445.348 291.475V557.168C410.646 588.516 364.666 607.61 314.216 607.61C206.153 607.61 118.577 520.031 118.577 412.005C118.577 319.029 183.422 241.229 270.339 221.351C279.442 273.467 324.887 313.062 379.613 313.062C404.215 313.044 426.964 305.029 445.348 291.475ZM416.222 411.987C416.222 355.667 370.545 309.999 314.216 309.999C257.886 309.999 212.21 355.667 212.21 411.987C212.21 468.307 257.886 513.975 314.216 513.975C370.545 513.975 416.222 468.325 416.222 411.987Z" fill="#80D5FF"/>
</svg>
