<svg width="51" height="16" viewBox="0 0 51 16" fill="none" xmlns="http://www.w3.org/2000/svg">
<path d="M13.1484 10.2275C13.1484 9.66888 13.2342 9.1841 13.4057 8.77366C13.5772 8.36322 13.8151 8.02248 14.1194 7.75144C14.4237 7.48039 14.7793 7.27956 15.1871 7.14843C15.5945 7.0173 16.0337 6.95173 16.5053 6.95173C16.6768 6.95173 16.8441 6.9667 17.0067 6.99613C17.1694 7.02607 17.3027 7.0617 17.4057 7.10403V5.04668C17.4914 5.02138 17.6284 4.99402 17.8172 4.96408C18.0054 4.93465 18.1984 4.91968 18.396 4.91968C18.5843 4.91968 18.7537 4.93258 18.9037 4.95788C19.0538 4.98318 19.1803 5.03377 19.2833 5.11018C19.3863 5.18659 19.4632 5.29036 19.515 5.4215C19.5662 5.55263 19.5924 5.72403 19.5924 5.9357V11.9549C19.5924 12.353 19.4036 12.6705 19.0266 12.9075C18.7777 13.0685 18.4561 13.2105 18.0619 13.3329C17.6677 13.4552 17.2133 13.5167 16.6988 13.5167C16.1414 13.5167 15.642 13.4408 15.2002 13.288C14.7584 13.1357 14.3856 12.9157 14.0812 12.6276C13.7769 12.3401 13.5453 11.9947 13.3869 11.593C13.2279 11.1903 13.1484 10.7355 13.1484 10.2275ZM16.8012 8.63995C16.338 8.63995 15.9824 8.77108 15.7341 9.03335C15.4852 9.29613 15.3612 9.69366 15.3612 10.227C15.3612 10.752 15.4768 11.1475 15.7084 11.4144C15.9401 11.6813 16.2742 11.8145 16.7113 11.8145C16.8656 11.8145 17.0052 11.7913 17.1291 11.7448C17.2535 11.6984 17.3497 11.6457 17.4182 11.5863V8.79276C17.2467 8.69054 17.0412 8.63995 16.8012 8.63995Z" fill="black" fill-opacity="0.87"/>
<path d="M24.2604 13.5161C23.7543 13.5161 23.2848 13.4464 22.8523 13.3065C22.4194 13.1666 22.0419 12.9575 21.7208 12.6777C21.3993 12.3984 21.1462 12.0473 20.9621 11.624C20.7776 11.2007 20.6855 10.7055 20.6855 10.1382C20.6855 9.57955 20.7776 9.0989 20.9621 8.69672C21.1462 8.29506 21.3883 7.96465 21.6889 7.70651C21.9891 7.44837 22.3321 7.25787 22.718 7.13499C23.1038 7.01212 23.4981 6.95068 23.9012 6.95068C24.3556 6.95068 24.7692 7.01883 25.1425 7.1541C25.5154 7.28988 25.8369 7.47573 26.1072 7.7127C26.3771 7.94967 26.5872 8.23311 26.7373 8.56353C26.8874 8.89394 26.9621 9.25378 26.9621 9.64305C26.9621 9.93113 26.8806 10.1511 26.718 10.3034C26.5548 10.4557 26.3279 10.5532 26.0361 10.5956L22.8597 11.0654C22.9538 11.3447 23.1467 11.5543 23.4385 11.6942C23.7297 11.8336 24.0644 11.9038 24.4414 11.9038C24.7927 11.9038 25.1248 11.8594 25.438 11.7706C25.7506 11.6818 26.0058 11.578 26.2035 11.4593C26.3404 11.544 26.4565 11.6627 26.5506 11.815C26.6448 11.9673 26.6918 12.1284 26.6918 12.2977C26.6918 12.6787 26.512 12.9622 26.1517 13.1486C25.8772 13.2926 25.5687 13.3897 25.2257 13.4408C24.8816 13.4908 24.5601 13.5161 24.2604 13.5161ZM23.9002 8.52584C23.6947 8.52584 23.5164 8.55991 23.3663 8.62754C23.2163 8.69518 23.0939 8.78242 22.9998 8.88774C22.9052 8.99358 22.8346 9.11232 22.7875 9.24346C22.7404 9.37459 22.7122 9.50831 22.7038 9.64357L24.9031 9.28786C24.8774 9.11852 24.7828 8.94918 24.6202 8.77984C24.4576 8.61051 24.217 8.52584 23.9002 8.52584Z" fill="black" fill-opacity="0.87"/>
<path d="M31.0642 6.95117C31.5531 6.95117 31.9965 7.01261 32.3954 7.13548C32.7938 7.25836 33.1306 7.41685 33.4051 7.61149C33.5766 7.73023 33.7115 7.86136 33.8103 8.0054C33.9086 8.14945 33.9583 8.3353 33.9583 8.56401V13.0086C33.9583 13.4573 33.8725 13.8445 33.701 14.1707C33.5295 14.4965 33.2958 14.7676 32.9999 14.9834C32.7039 15.1992 32.3567 15.3577 31.9578 15.4594C31.5593 15.5611 31.1327 15.6117 30.6783 15.6117C29.8982 15.6117 29.2848 15.5079 28.8388 15.3009C28.3928 15.0933 28.1701 14.7567 28.1701 14.2915C28.1701 14.0969 28.2108 13.925 28.2919 13.7773C28.3735 13.6292 28.4655 13.5171 28.5685 13.4407C28.8169 13.576 29.0976 13.6906 29.4108 13.7835C29.7235 13.8765 30.0477 13.9229 30.3818 13.9229C30.8451 13.9229 31.2132 13.847 31.4877 13.6942C31.7622 13.5419 31.8992 13.2962 31.8992 12.9575V12.7541C31.5473 12.9064 31.1191 12.9828 30.6129 12.9828C30.2271 12.9828 29.8605 12.926 29.5133 12.8114C29.1661 12.6973 28.8618 12.5192 28.6004 12.2781C28.339 12.037 28.1288 11.7257 27.9703 11.3447C27.8114 10.9637 27.7324 10.5109 27.7324 9.98583C27.7324 9.46956 27.8161 9.02091 27.9834 8.6399C28.1507 8.25889 28.3818 7.94345 28.6778 7.69409C28.9737 7.44421 29.3251 7.25836 29.7324 7.13548C30.1403 7.01261 30.5842 6.95117 31.0642 6.95117ZM31.8616 8.79221C31.8014 8.75865 31.7136 8.72457 31.598 8.6905C31.4825 8.65694 31.3387 8.6399 31.1672 8.6399C30.7468 8.6399 30.432 8.75658 30.2218 8.98891C30.0116 9.22174 29.9071 9.55371 29.9071 9.98583C29.9071 10.4768 30.0122 10.8305 30.2218 11.0463C30.432 11.2621 30.6997 11.37 31.0255 11.37C31.3769 11.37 31.6555 11.2894 31.8616 11.1289V8.79221Z" fill="black" fill-opacity="0.87"/>
<path d="M38.614 13.5161C38.1078 13.5161 37.6383 13.4464 37.2059 13.3065C36.7729 13.1666 36.3954 12.9575 36.0744 12.6777C35.7528 12.3984 35.4997 12.0473 35.3157 11.624C35.1311 11.2007 35.0391 10.7055 35.0391 10.1382C35.0391 9.57955 35.1311 9.0989 35.3157 8.69672C35.4997 8.29506 35.7418 7.96465 36.0425 7.70651C36.3426 7.44837 36.6856 7.25787 37.0715 7.13499C37.4574 7.01212 37.8516 6.95068 38.2548 6.95068C38.7091 6.95068 39.1227 7.01883 39.4961 7.1541C39.8689 7.28988 40.1904 7.47573 40.4608 7.7127C40.7306 7.94967 40.9408 8.23311 41.0908 8.56353C41.2409 8.89394 41.3157 9.25378 41.3157 9.64305C41.3157 9.93113 41.2341 10.1511 41.0715 10.3034C40.9083 10.4557 40.6814 10.5532 40.3897 10.5956L37.2132 11.0654C37.3073 11.3447 37.5002 11.5543 37.792 11.6942C38.0832 11.8336 38.4179 11.9038 38.7949 11.9038C39.1463 11.9038 39.4783 11.8594 39.7915 11.7706C40.1042 11.6818 40.3593 11.578 40.557 11.4593C40.694 11.544 40.81 11.6627 40.9042 11.815C40.9983 11.9673 41.0453 12.1284 41.0453 12.2977C41.0453 12.6787 40.8655 12.9622 40.5052 13.1486C40.2307 13.2926 39.9222 13.3897 39.5792 13.4408C39.2357 13.4908 38.9141 13.5161 38.614 13.5161ZM38.2542 8.52584C38.0487 8.52584 37.8704 8.55991 37.7204 8.62754C37.5703 8.69518 37.448 8.78242 37.3538 8.88774C37.2592 8.99358 37.1886 9.11232 37.1415 9.24346C37.0945 9.37459 37.0663 9.50831 37.0579 9.64357L39.2571 9.28786C39.2315 9.11852 39.1368 8.94918 38.9742 8.77984C38.8111 8.61051 38.5711 8.52584 38.2542 8.52584Z" fill="black" fill-opacity="0.87"/>
<path d="M42.3164 5.42721C42.3164 5.10557 42.4257 4.83453 42.6442 4.61459C42.8628 4.39466 43.1525 4.28418 43.5122 4.28418C43.8725 4.28418 44.1616 4.39415 44.3802 4.61459C44.5988 4.83504 44.708 5.10557 44.708 5.42721C44.708 5.74885 44.5988 6.01989 44.3802 6.23982C44.1616 6.46027 43.8725 6.57024 43.5122 6.57024C43.152 6.57024 42.8628 6.46027 42.6442 6.23982C42.4257 6.01989 42.3164 5.74936 42.3164 5.42721ZM44.6056 13.3004C44.5109 13.3174 44.3718 13.3407 44.1878 13.3701C44.0032 13.3995 43.8171 13.4145 43.6283 13.4145C43.4395 13.4145 43.2701 13.4021 43.1201 13.3763C42.97 13.351 42.8435 13.3004 42.7405 13.224C42.6375 13.1481 42.558 13.0443 42.5026 12.9127C42.4466 12.7815 42.4189 12.6101 42.4189 12.3985V7.23056C42.513 7.21352 42.6526 7.19028 42.8367 7.16086C43.0212 7.13143 43.2074 7.11646 43.3961 7.11646C43.5849 7.11646 43.7538 7.12885 43.9044 7.15466C44.0544 7.17996 44.181 7.23107 44.2835 7.30696C44.3865 7.38285 44.4654 7.48714 44.5214 7.61828C44.5768 7.74941 44.605 7.92081 44.605 8.13248V13.3004H44.6056Z" fill="black" fill-opacity="0.87"/>
<path d="M48.182 11.1925C48.182 11.4129 48.2526 11.5694 48.3943 11.6623C48.536 11.7557 48.7352 11.8017 48.9925 11.8017C49.1211 11.8017 49.2539 11.7914 49.3909 11.7702C49.5279 11.749 49.6481 11.7217 49.7512 11.6876C49.828 11.781 49.8944 11.8843 49.9504 11.9984C50.0058 12.1125 50.034 12.2503 50.034 12.4109C50.034 12.733 49.9122 12.9953 49.6675 13.1982C49.4233 13.4016 48.9925 13.5028 48.3749 13.5028C47.6204 13.5028 47.0395 13.3335 46.6322 12.9948C46.2249 12.6561 46.0215 12.1058 46.0215 11.3437V5.90996C46.1156 5.88466 46.2505 5.8573 46.4267 5.82736C46.6024 5.79793 46.7885 5.78296 46.9862 5.78296C47.3632 5.78296 47.657 5.84853 47.8672 5.97966C48.0774 6.11079 48.1825 6.38803 48.1825 6.81138V7.62399H49.8672C49.9185 7.71744 49.9681 7.8336 50.0152 7.97299C50.0623 8.11239 50.0858 8.26727 50.0858 8.43661C50.0858 8.73295 50.0194 8.94668 49.8866 9.07782C49.7538 9.20947 49.576 9.27452 49.3527 9.27452H48.1825V11.1925H48.182Z" fill="black" fill-opacity="0.87"/>
<path d="M10.0722 5.13762V5.79277C9.57757 6.15262 8.96581 6.36584 8.30385 6.36584C6.83195 6.36584 5.60946 5.31419 5.36476 3.92954C5.74436 3.84332 6.13966 3.79789 6.54489 3.79789C7.90175 3.79789 9.13888 4.30487 10.0722 5.13762ZM8.30385 0.474121C6.65574 0.474121 5.32031 1.7932 5.32031 3.41946C5.32031 3.59293 5.33548 3.76382 5.36476 3.92954C5.74436 3.84332 6.13966 3.79789 6.54489 3.79789C7.90175 3.79789 9.13888 4.30487 10.0722 5.13762V1.04667C9.57757 0.686826 8.96581 0.474121 8.30385 0.474121Z" fill="#25CCB3"/>
<path d="M10.0716 6.44859V14.1498C9.05302 15.0585 7.70348 15.6119 6.22269 15.6119C3.05093 15.6119 0.480469 13.0734 0.480469 9.94221C0.480469 7.24726 2.38374 4.99218 4.93485 4.41602C5.20204 5.92663 6.53589 7.07431 8.14217 7.07431C8.86426 7.07379 9.53197 6.84147 10.0716 6.44859ZM9.21668 9.9417C9.21668 8.30924 7.87602 6.98551 6.22269 6.98551C4.56936 6.98551 3.2287 8.30924 3.2287 9.9417C3.2287 11.5742 4.56936 12.8979 6.22269 12.8979C7.87602 12.8979 9.21668 11.5747 9.21668 9.9417Z" fill="#0B57A7"/>
</svg>
