<svg width="811" height="291" viewBox="0 0 811 291" fill="none" xmlns="http://www.w3.org/2000/svg">
<path d="M231.91 177.913C231.91 169.785 233.141 162.731 235.604 156.76C238.068 150.788 241.484 145.83 245.855 141.886C250.225 137.943 255.331 135.02 261.189 133.112C267.038 131.204 273.346 130.25 280.119 130.25C282.582 130.25 284.985 130.468 287.321 130.896C289.656 131.332 291.571 131.85 293.05 132.466V102.532C294.282 102.164 296.249 101.766 298.96 101.33C301.663 100.902 304.434 100.684 307.273 100.684C309.976 100.684 312.409 100.872 314.564 101.24C316.719 101.608 318.537 102.344 320.016 103.456C321.495 104.568 322.599 106.078 323.343 107.986C324.079 109.894 324.454 112.387 324.454 115.467V203.047C324.454 208.839 321.743 213.458 316.329 216.906C312.755 219.25 308.136 221.316 302.474 223.096C296.812 224.876 290.287 225.77 282.898 225.77C274.893 225.77 267.722 224.666 261.376 222.443C255.031 220.227 249.677 217.027 245.306 212.835C240.936 208.651 237.609 203.626 235.334 197.781C233.051 191.922 231.91 185.304 231.91 177.913ZM284.37 154.814C277.716 154.814 272.61 156.722 269.043 160.538C265.469 164.361 263.689 170.146 263.689 177.905C263.689 185.545 265.349 191.299 268.675 195.182C272.002 199.066 276.8 201.004 283.078 201.004C285.293 201.004 287.298 200.666 289.078 199.99C290.865 199.314 292.247 198.548 293.231 197.684V157.038C290.767 155.55 287.816 154.814 284.37 154.814Z" fill="white" fill-opacity="0.87"/>
<path d="M391.496 225.763C384.228 225.763 377.484 224.749 371.274 222.713C365.056 220.677 359.635 217.635 355.024 213.564C350.406 209.5 346.771 204.392 344.128 198.232C341.477 192.072 340.156 184.869 340.156 176.613C340.156 168.485 341.477 161.492 344.128 155.64C346.771 149.796 350.248 144.989 354.566 141.233C358.876 137.477 363.802 134.705 369.344 132.917C374.886 131.129 380.548 130.235 386.338 130.235C392.863 130.235 398.803 131.227 404.165 133.195C409.519 135.171 414.137 137.875 418.019 141.323C421.894 144.771 424.913 148.895 427.068 153.702C429.223 158.51 430.297 163.745 430.297 169.409C430.297 173.601 429.125 176.801 426.79 179.017C424.447 181.233 421.188 182.653 416.998 183.269L371.379 190.104C372.731 194.168 375.502 197.218 379.692 199.254C383.875 201.282 388.68 202.303 394.095 202.303C399.141 202.303 403.909 201.657 408.407 200.365C412.898 199.073 416.562 197.563 419.401 195.836C421.368 197.068 423.035 198.795 424.387 201.011C425.739 203.227 426.415 205.571 426.415 208.035C426.415 213.579 423.831 217.703 418.657 220.414C414.715 222.51 410.285 223.922 405.359 224.666C400.417 225.395 395.799 225.763 391.496 225.763ZM386.323 153.154C383.371 153.154 380.811 153.65 378.656 154.634C376.5 155.618 374.743 156.887 373.392 158.42C372.032 159.959 371.019 161.687 370.343 163.595C369.667 165.503 369.262 167.449 369.141 169.417L400.725 164.241C400.357 161.777 398.998 159.314 396.663 156.85C394.327 154.386 390.873 153.154 386.323 153.154Z" fill="white" fill-opacity="0.87"/>
<path d="M489.2 130.243C496.221 130.243 502.589 131.137 508.319 132.925C514.041 134.713 518.877 137.019 522.819 139.851C525.282 141.578 527.219 143.486 528.639 145.582C530.05 147.678 530.764 150.382 530.764 153.71V218.379C530.764 224.907 529.532 230.541 527.069 235.288C524.606 240.028 521.249 243.972 516.999 247.112C512.749 250.251 507.763 252.558 502.033 254.037C496.311 255.517 490.184 256.253 483.658 256.253C472.454 256.253 463.646 254.744 457.241 251.731C450.835 248.712 447.636 243.814 447.636 237.046C447.636 234.214 448.222 231.712 449.386 229.564C450.557 227.408 451.879 225.778 453.358 224.666C456.925 226.634 460.958 228.302 465.456 229.654C469.946 231.006 474.602 231.682 479.4 231.682C486.054 231.682 491.34 230.578 495.282 228.355C499.225 226.139 501.192 222.563 501.192 217.635V214.676C496.139 216.892 489.988 218.003 482.719 218.003C477.178 218.003 471.914 217.177 466.927 215.509C461.941 213.849 457.571 211.258 453.816 207.75C450.062 204.242 447.043 199.712 444.768 194.168C442.485 188.625 441.351 182.037 441.351 174.397C441.351 166.886 442.552 160.358 444.955 154.814C447.358 149.271 450.677 144.681 454.928 141.053C459.178 137.417 464.224 134.713 470.074 132.925C475.931 131.137 482.306 130.243 489.2 130.243ZM500.652 157.03C499.788 156.542 498.526 156.046 496.867 155.55C495.207 155.062 493.142 154.814 490.679 154.814C484.642 154.814 480.121 156.512 477.103 159.892C474.084 163.28 472.582 168.11 472.582 174.397C472.582 181.541 474.091 186.687 477.103 189.827C480.121 192.967 483.966 194.537 488.644 194.537C493.69 194.537 497.693 193.365 500.652 191.029V157.03Z" fill="white" fill-opacity="0.87"/>
<path d="M597.618 225.763C590.349 225.763 583.606 224.749 577.395 222.713C571.178 220.677 565.756 217.635 561.145 213.564C556.527 209.5 552.893 204.392 550.249 198.232C547.599 192.072 546.277 184.869 546.277 176.613C546.277 168.485 547.599 161.492 550.249 155.64C552.893 149.796 556.369 144.989 560.687 141.233C564.998 137.477 569.924 134.705 575.465 132.917C581.007 131.129 586.669 130.235 592.459 130.235C598.984 130.235 604.924 131.227 610.286 133.195C615.64 135.171 620.258 137.875 624.141 141.323C628.015 144.771 631.034 148.895 633.189 153.702C635.344 158.51 636.418 163.745 636.418 169.409C636.418 173.601 635.247 176.801 632.911 179.017C630.568 181.233 627.309 182.653 623.119 183.269L577.501 190.104C578.852 194.168 581.623 197.218 585.813 199.254C589.996 201.282 594.802 202.303 600.216 202.303C605.262 202.303 610.031 201.657 614.529 200.365C619.019 199.073 622.684 197.563 625.522 195.836C627.49 197.068 629.157 198.795 630.508 201.011C631.86 203.227 632.536 205.571 632.536 208.035C632.536 213.579 629.953 217.703 624.779 220.414C620.836 222.51 616.406 223.922 611.48 224.666C606.546 225.395 601.928 225.763 597.618 225.763ZM592.451 153.154C589.5 153.154 586.94 153.65 584.784 154.634C582.629 155.618 580.872 156.887 579.52 158.42C578.161 159.959 577.148 161.687 576.472 163.595C575.796 165.503 575.39 167.449 575.27 169.417L606.854 164.241C606.486 161.777 605.127 159.314 602.792 156.85C600.449 154.386 597.002 153.154 592.451 153.154Z" fill="white" fill-opacity="0.87"/>
<path d="M650.813 108.069C650.813 103.389 652.383 99.4451 655.522 96.245C658.661 93.045 662.821 91.4375 667.987 91.4375C673.161 91.4375 677.314 93.0375 680.453 96.245C683.591 99.4526 685.161 103.389 685.161 108.069C685.161 112.748 683.591 116.692 680.453 119.892C677.314 123.1 673.161 124.7 667.987 124.7C662.813 124.7 658.661 123.1 655.522 119.892C652.383 116.692 650.813 112.756 650.813 108.069ZM683.689 222.623C682.33 222.871 680.332 223.209 677.689 223.637C675.038 224.066 672.365 224.283 669.654 224.283C666.943 224.283 664.51 224.103 662.355 223.728C660.2 223.359 658.383 222.623 656.903 221.512C655.424 220.407 654.283 218.897 653.487 216.982C652.683 215.074 652.285 212.58 652.285 209.5V134.307C653.637 134.059 655.642 133.721 658.285 133.293C660.936 132.865 663.609 132.647 666.32 132.647C669.031 132.647 671.456 132.827 673.619 133.203C675.774 133.571 677.591 134.315 679.063 135.419C680.543 136.523 681.677 138.041 682.48 139.949C683.276 141.857 683.681 144.35 683.681 147.43V222.623H683.689Z" fill="white" fill-opacity="0.87"/>
<path d="M735.038 191.953C735.038 195.16 736.051 197.436 738.086 198.788C740.121 200.148 742.982 200.817 746.677 200.817C748.524 200.817 750.432 200.666 752.399 200.358C754.366 200.05 756.094 199.652 757.573 199.156C758.677 200.516 759.63 202.018 760.434 203.679C761.23 205.339 761.635 207.344 761.635 209.68C761.635 214.368 759.886 218.184 756.371 221.136C752.864 224.096 746.677 225.568 737.808 225.568C726.973 225.568 718.63 223.104 712.78 218.176C706.93 213.249 704.009 205.241 704.009 194.154V115.092C705.361 114.724 707.298 114.326 709.829 113.89C712.352 113.462 715.025 113.244 717.864 113.244C723.278 113.244 727.498 114.198 730.517 116.106C733.536 118.014 735.045 122.048 735.045 128.208V140.031H759.24C759.976 141.391 760.689 143.081 761.365 145.109C762.041 147.137 762.379 149.391 762.379 151.855C762.379 156.166 761.425 159.276 759.518 161.184C757.61 163.1 755.057 164.046 751.851 164.046H735.045V191.953H735.038Z" fill="white" fill-opacity="0.87"/>
<path d="M187.726 103.854V113.386C180.622 118.622 171.836 121.724 162.329 121.724C141.191 121.724 123.634 106.423 120.12 86.2764C125.572 85.0219 131.249 84.3609 137.068 84.3609C156.555 84.3609 174.322 91.7375 187.726 103.854ZM162.329 36C138.66 36 119.482 55.1926 119.482 78.8547C119.482 81.3787 119.699 83.8651 120.12 86.2764C125.572 85.0219 131.249 84.3609 137.068 84.3609C156.555 84.3609 174.322 91.7375 187.726 103.854V44.3306C180.622 39.0949 171.836 36 162.329 36Z" fill="#76DBC9"/>
<path d="M187.725 122.926V234.98C173.097 248.2 153.716 256.253 132.45 256.253C86.8987 256.253 49.9832 219.318 49.9832 173.759C49.9832 134.547 77.3169 101.736 113.955 93.3525C117.792 115.332 136.948 132.031 160.016 132.031C170.387 132.023 179.976 128.643 187.725 122.926ZM175.448 173.751C175.448 149.999 156.194 130.739 132.45 130.739C108.706 130.739 89.4518 149.999 89.4518 173.751C89.4518 197.503 108.706 216.764 132.45 216.764C156.194 216.764 175.448 197.511 175.448 173.751Z" fill="#80D5FF"/>
</svg>
